<svg xmlns="http://www.w3.org/2000/svg" viewBox="0 0 317.58 407.91"><g data-name="Layer 2"><g data-name="Layer 1"><g data-name="Group 652"><rect x="-26.33" y="80.85" width="370.24" height="246.22" rx="25.69" transform="rotate(-76 158.793 203.956)" fill="#b5d3f5" data-name="Rectangle 198"/><g data-name="Group 634"><path d="M315.28 83.85c-43.2-9.33-86.6-20.34-129-32.71l.36-1.23a1874.58 1874.58 0 00128.91 32.68z" fill="#ddebff" data-name="Path 2843"/><path d="M288 103.11c-43.2-9.33-86.6-20.33-129-32.71l.36-1.23c42.35 12.37 85.72 23.36 128.89 32.69z" fill="#ddebff" data-name="Path 2844"/><path d="M288 158.34c-43.2-9.33-86.6-20.34-129-32.71l.36-1.23c42.35 12.36 85.72 23.36 128.89 32.68z" fill="#ddebff" data-name="Path 2846"/><path d="M262.26 208.43c-43.2-9.33-86.59-20.34-129-32.71l.36-1.23c42.36 12.36 85.72 23.36 128.89 32.68z" fill="#ddebff" data-name="Path 2848"/><path d="M262.26 263.65c-43.2-9.33-86.59-20.33-129-32.71l.36-1.23c42.36 12.37 85.72 23.37 128.89 32.69z" fill="#ddebff" data-name="Path 2850"/><path d="M262.26 302.18c-43.2-9.33-86.59-20.33-129-32.71l.36-1.23c42.36 12.37 85.73 23.37 128.89 32.69z" fill="#ddebff" data-name="Path 2851"/><path d="M302.71 132.65c-43.2-9.33-86.6-20.33-129-32.71l.36-1.23c42.35 12.37 85.72 23.36 128.89 32.69z" fill="#ddebff" data-name="Path 2845"/><path d="M289.86 189.16c-43.19-9.33-86.59-20.33-129-32.71l.36-1.23c42.36 12.37 85.73 23.36 128.9 32.69z" fill="#ddebff" data-name="Path 2847"/><path d="M277 237.28a1824.01 1824.01 0 01-129-32.71l.36-1.23c42.36 12.37 85.72 23.36 128.89 32.69z" fill="#ddebff" data-name="Path 2849"/><path d="M249.08 172.53l-1.23-.38C261 130 272.72 86.84 282.81 43.83l1.25.3c-10.06 43.04-21.86 86.24-34.98 128.4z" fill="#ddebff" data-name="Path 2852"/><path d="M253.13 253.77l-1.23-.38c13.11-42.14 24.87-85.31 35-128.32l1.25.3c-10.15 43.03-21.9 86.23-35.02 128.4z" fill="#ddebff" data-name="Path 2853"/></g></g></g></g></svg>