<svg xmlns="http://www.w3.org/2000/svg" viewBox="0 0 1037.6 720"><path fill="#FFF" d="M136.2 675.7c0-1.6-1.1-1.9-2.4-1.9h-2.4v4.1h2.4c1.5 0 2.4-.5 2.4-2.2zM174.3 677.2c-1.9 0-2.8 1.5-2.8 3.3 0 1.6 1.2 2.9 2.8 3 1.8 0 2.8-1.4 2.8-3.2s-.9-3.1-2.8-3.1zM98.6 393.9V501c0 1.7 1.3 3 3 3h458.6V393.9H98.6zm128.9 34.2l1.9-.8v14.3h-1.9v-13.5zm-71 53.2c-17.2 0-31.1-13.9-31.1-31.1 0-17.2 13.9-31.1 31.1-31.1s31.1 13.9 31.1 31.1c0 17.2-13.9 31.1-31.1 31.1zm49.6-40.5l7.2-10.5h-6.5v-1.6h9.1v.8l-7 10.5h6.8v1.6h-9.6v-.8zm2.7 29.4h-2v-12.9h2v12.9zm11.4-.1h-1.9v-5.8c.2-1.1-.6-2.1-1.7-2.3h-.5c-1.3 0-2.4 1.1-2.4 2.4v5.8h-1.9v-9.5h1.9v1.5c.6-1.1 1.8-1.8 3.1-1.7 2.3 0 3.4 1.6 3.4 3.8v5.8zm-1.6-25.3l1.8-4.3-3.7-8.5h2l2.6 6.4 2.5-6.4 1.9.1-5.2 12.7h-1.9zm13.1 25.5h-1.9v-1.6c-.7 1.1-2 1.8-3.3 1.8-2.9 0-4.3-2.2-4.3-4.9s1.6-4.9 4.4-4.9c1.3-.1 2.5.6 3.2 1.7v-6h1.9v13.9zm4.7 0h-1.9v-9.5h1.9v9.5zm-.9-11.2c-.6 0-1.1-.5-1.2-1.1 0-.7.5-1.2 1.2-1.2s1.2.5 1.2 1.2c-.1.6-.6 1.1-1.2 1.1zm-1.4-22.3v4.8h-1.9v-13.9h1.9v8.7l3.7-4.2h2.1l-4 4.4 4.3 5.1h-2.1l-4-4.9zm12.4 33.5h-1.8v-1.2c-.7.9-1.8 1.4-3 1.4-1.7 0-3.2-.9-3.2-2.8 0-3 3.9-3 6.1-3 0-1.5-.2-2.6-2-2.6-1 0-1.9.6-2.2 1.5l-1.5-.7c.7-1.5 2.2-2.4 3.9-2.3 2.2 0 3.7 1.2 3.7 3.5v6.2zm3.6-33.1h-7c0 1.8.9 3.1 2.8 3.1 1.1 0 2-.5 2.5-1.5l1.6.7c-.9 1.5-2.5 2.4-4.2 2.3-2.9 0-4.7-2.1-4.7-5-.2-2.5 1.8-4.7 4.3-4.9h.3c3.2 0 4.4 2.3 4.4 5.3zm7-3.6c-1.9.2-3.1.8-3.1 2.9v5h-1.9V432h1.9v1.7c.6-1.2 1.8-2 3.1-1.9v1.8zM561.2 504h432.5c1.7 0 3-1.3 3-3V393.9H561.2V504zm206.9-43.8h1.7v1.4c.5-1 1.4-1.5 2.5-1.5 1.1-.1 2.2.6 2.7 1.6.6-1 1.7-1.7 2.9-1.6 2.1 0 3.1 1.5 3.1 3.5v5.6h-1.7v-5.5c0-1.3-.6-2-1.9-2-1.1 0-2 .9-2 2V469.3h-1.7v-5.5c0-1.3-.6-2-1.9-2-.9-.2-1.8.5-2 1.4v5.9h-1.7v-8.9zm-6.4-.2c2.7 0 4.4 2 4.4 4.7.2 2.4-1.6 4.4-4 4.6h-.4c-2.7 0-4.4-2-4.4-4.7-.1-2.4 1.7-4.5 4.1-4.6h.3zm-9.6 0c1.7-.1 3.3.9 3.9 2.5l-1.5.6c-.4-1-1.3-1.7-2.4-1.7-1.8 0-2.6 1.6-2.6 3.3s.8 3.1 2.6 3.1c1.2 0 2.2-.8 2.5-1.9l1.4.6c-.5 1.7-2.1 2.9-3.9 2.8-2.7 0-4.3-2-4.3-4.7-.1-2.4 1.7-4.4 4.1-4.6h.2zm-7.2 6.8c.7 0 1.2.5 1.2 1.2s-.5 1.2-1.2 1.2-1.2-.5-1.2-1.2c0-.6.5-1.2 1.2-1.2-.1 0 0 0 0 0zm-7-6.6h1.7v1.6c.5-1.1 1.6-1.8 2.8-1.8v1.6c-1.7.2-2.8.8-2.8 2.8v4.7h-1.7v-8.9zm-6-.2c2.9 0 4 2.1 4 4.8v.1h-6.5c-.2 1.4.9 2.7 2.3 2.9h.3c1 0 1.9-.5 2.3-1.4l1.4.6c-.6 1.5-2.1 2.4-3.7 2.3-2.7 0-4.3-2-4.3-4.7 0-2.5 1.6-4.6 4.2-4.6zm-12.3-4h1.7v8.2l3.4-4h1.9l-3.6 4.1 3.9 4.8h-2l-3.6-4.5v4.5h-1.7V456zm-4.4.4l1.7-.7v13.4h-1.7v-12.7zm-8.1 3.8l2.4 6 2.3-6h1.7l-4.8 12H707l1.6-4-3.4-8h1.9zm-10 8.2l5.1-6.7h-4.6v-1.4h7v.7l-5 6.7h4.8v1.5h-7.3v-.8zm-.9-4.7c0 2-.9 4.4-3.2 4.4-1 0-1.9-.3-2-1.4-.5.9-1.4 1.5-2.4 1.5-1.8 0-2.7-1.3-2.7-3 0-1.9 1.2-4 3.3-4 .8-.1 1.6.4 2 1.1l.1-1h1.6l-.5 4.4v.4c0 .5.2.9.8.9 1.6 0 1.9-2.1 1.9-3.3 0-3.3-2.4-5.1-5.4-5.1-3.2 0-5.9 2.6-5.9 5.8v.4c-.2 3 2 5.6 5 5.8h.7c1.5.1 3-.4 4.2-1.4l1 .5a7.52 7.52 0 01-5.5 2c-3.7.2-6.7-2.7-6.9-6.3v-.6c-.1-4 3.1-7.2 7.1-7.3h.1c3.6 0 6.7 2.3 6.7 6.2zm-15.3-26.3c.5.2 1 .3 1.5.3 1.4 0 1.8-.9 1.8-2.2v-8.6h1.9v8.7c.2 2.3-1 3.7-3.4 3.7-.6 0-1.2-.1-1.8-.3v-1.6zm-1.6 19c.5-.1 1 .3 1.1.9v.2c0 .6-.5 1.1-1.1 1.1-.6 0-1.1-.5-1.1-1.1s.5-1.1 1.1-1.1zm-2.1 14.5c.7 0 1.2-.5 1.2-1.2v-9.5h1.7v9.3c.1 2.1-1 2.8-2.9 2.8v-1.4zm-4.8-39.4c-.9 0-1.7.5-2 1.4l-1.4-.6c.6-1.4 2.1-2.3 3.6-2.2 2 0 3.4 1.1 3.4 3.2v5.8h-1.7V438c-.7.9-1.7 1.3-2.8 1.3-1.4.2-2.7-.9-2.9-2.3v-.3c0-2.8 3.6-2.8 5.6-2.8 0-1.4-.2-2.4-1.8-2.4zm1.8 32.4c0-1.4-.2-2.4-1.8-2.4-.9 0-1.7.5-2 1.4l-1.4-.6c.6-1.4 2.1-2.3 3.6-2.2 2 0 3.4 1.1 3.4 3.2v5.8h-1.7V468c-.7.9-1.7 1.3-2.8 1.3-1.4.2-2.7-.9-2.9-2.3v-.3c0-2.8 3.6-2.8 5.6-2.8zm-8.4-37.5c.5-.1 1 .3 1.1.9v.2c0 .6-.5 1.1-1.1 1.1-.6 0-1.1-.5-1.1-1.1s.5-1.1 1.1-1.1zm-2.1 14.5c.7 0 1.2-.5 1.2-1.2v-9.5h1.7v9.3c.1 2.1-1 2.8-2.9 2.8v-1.4zm3.2 16.6c0 .6-.5 1.1-1.1 1.1-.6 0-1.1-.5-1.1-1.1s.5-1.1 1.1-1.1c.5-.1 1 .3 1.1.9v.2zm-3.2 13.4c.7 0 1.2-.5 1.2-1.2v-9.5h1.7v9.3c.1 2.1-1 2.8-2.9 2.8v-1.4zm-5.2-40.9c2.7 0 4.4 2 4.4 4.7.2 2.4-1.6 4.4-4 4.6h-.4c-2.7 0-4.4-2-4.4-4.7-.1-2.4 1.7-4.5 4.1-4.6h.3zm0 30c2.7 0 4.4 2 4.4 4.7.2 2.4-1.6 4.4-4 4.6h-.4c-2.7 0-4.4-2-4.4-4.7-.1-2.4 1.7-4.5 4.1-4.6h.3zm-10.2-30c2.7 0 4.4 2 4.4 4.7.2 2.4-1.6 4.4-4 4.6h-.4c-2.7 0-4.4-2-4.4-4.7-.1-2.4 1.7-4.5 4.1-4.6h.3zm0 30c2.7 0 4.4 2 4.4 4.7.2 2.4-1.6 4.4-4 4.6h-.4c-2.7 0-4.4-2-4.4-4.7-.1-2.4 1.7-4.5 4.1-4.6h.3zm-13.7-33.1h3.9c2.4 0 4.3 1 4.3 3.7 0 3-2.3 3.7-4.8 3.7h-1.6v4.8h-1.8v-12.2zm0 30h3.9c2.4 0 4.3 1 4.3 3.7 0 3-2.3 3.7-4.8 3.7h-1.6v4.8h-1.8v-12.2zm-35-19.1s2.6-.7 2.9-1.6-.9-2.6-.9-2.6-1.8-1.5-.6-2.3c0 0-1.2-4.1 3.5-4.1s3.5 4.1 3.5 4.1c1.2.8-.6 2.4-.6 2.4s-1.2 1.7-.9 2.6 2.9 1.6 2.9 1.6c4.1.2 3.5 4.7 3.7 4.6h-17s-.6-4.4 3.5-4.7zm17.3 17.8l-11.1 8.9-11.1-8.9h22.2zm-22.4 2.2l11.2 8.9 11.2-8.9v14h-22.4v-14zM187.7 680.5h4.2l-2.1-6.5zM134 679.3h-2.7v4.5h2.9c1.5 0 2.5-.6 2.5-2.3s-1.2-2.2-2.7-2.2zM187.4 594.9c-1.3.1-2.3 1.1-2.4 2.4h4.7c-.1-1.4-.8-2.4-2.3-2.4zM957.6 677.2c-2.1 0-2.8 1.6-2.8 3.5.1 1.7.9 3.3 2.7 3.3 2 0 2.9-1.6 2.9-3.5s-.8-3.3-2.8-3.3z"/><path fill="#FFF" d="M731.9 461.4c-1.3 0-2.4 1.1-2.4 2.4h4.7c-.1-1.4-.8-2.4-2.3-2.4zM197 594.9c-1.3.1-2.3 1.1-2.4 2.4h4.7c-.1-1.4-.8-2.4-2.3-2.4zM875.2 677.1c-1.4.1-2.4 1.1-2.5 2.5h5c.1-1.3-.9-2.4-2.2-2.5h-.3zM240.5 467.6c-.1 1.1.6 1.4 1.6 1.4 1.2 0 2.6-.7 2.6-2.1v-1h-1.2c-1.1 0-3 .2-3 1.7zM761.7 467.9c1.9 0 2.6-1.5 2.6-3.2s-.8-3.2-2.6-3.2-2.6 1.5-2.6 3.3.8 3.1 2.6 3.1zM781.5 677.2c-2 0-2.9 1.6-2.9 3.5s1 3.3 2.9 3.3c2.1 0 2.7-1.6 2.7-3.5 0-1.7-.9-3.3-2.7-3.3zM857.4 677.2c-2.1 0-2.8 1.6-2.8 3.5 0 1.7.8 3.3 2.7 3.3s2.9-1.6 2.9-3.5-.8-3.3-2.8-3.3zM846 677.2c-2.1 0-2.8 1.6-2.8 3.5 0 1.7.8 3.3 2.7 3.3s2.9-1.6 2.9-3.5-.8-3.3-2.8-3.3zM792.9 677.2c-2 0-2.9 1.6-2.9 3.5s.9 3.3 2.9 3.3 2.7-1.6 2.7-3.5c0-1.7-.9-3.3-2.7-3.3zM819.1 677.2c-1.9 0-2.8 1.5-2.8 3.3 0 1.6 1.2 2.9 2.8 3 1.8 0 2.8-1.4 2.8-3.2s-.9-3.1-2.8-3.1zM689.2 462.5c-1.3 0-1.8 1.5-1.8 2.6 0 .9.4 1.8 1.4 1.8 1.3 0 2-1.4 2-2.6s-.5-1.8-1.6-1.8zM832.4 680.5h4.2l-2.1-6.5zM658.5 437.9c1.9 0 2.6-1.5 2.6-3.2s-.8-3.2-2.6-3.2-2.6 1.5-2.6 3.3.8 3.1 2.6 3.1zM648.3 467.9c1.9 0 2.6-1.5 2.6-3.2s-.8-3.2-2.6-3.2-2.6 1.5-2.6 3.3.8 3.1 2.6 3.1zM648.3 437.9c1.9 0 2.6-1.5 2.6-3.2s-.8-3.2-2.6-3.2-2.6 1.5-2.6 3.3.8 3.1 2.6 3.1zM658.5 467.9c1.9 0 2.6-1.5 2.6-3.2s-.8-3.2-2.6-3.2-2.6 1.5-2.6 3.3.8 3.1 2.6 3.1zM295.7 677.2c-2.1 0-2.8 1.6-2.8 3.5.1 1.7.9 3.3 2.7 3.3 2 0 2.9-1.6 2.9-3.5s-.8-3.3-2.8-3.3zM174.3 68.7c-1.2 0-1.6 1.3-1.6 2.3s.4 1.6 1.3 1.6c1.2 0 1.8-1.2 1.8-2.3s-.4-1.6-1.5-1.6zM104 67.8c-1.2 0-2.1.9-2.2 2.1h4.3c.1-1.1-.8-2-1.9-2.1h-.2zM154.6 73.1c1.4 0 2.5-1.1 2.5-2.4v-.3c.1-1.3-.8-2.4-2.1-2.6h-.3c-1.4 0-2.4 1.1-2.4 2.5v.2c0 1.4 1 2.5 2.3 2.6zM184.3 625.6c-1.2 0-2.3 1-2.3 2.2h4.5c.1-1.1-.8-2.1-1.9-2.2h-.3zM265.6 626.6c-1.2 0-1.8 1.4-1.8 2.4 0 .9.4 1.7 1.4 1.7 1.3 0 1.9-1.3 1.9-2.5s-.4-1.6-1.5-1.6zM243.1 631.2c1.4 0 2.6-1.1 2.6-2.6v-.3c.2-1.3-.8-2.6-2.1-2.7h-.4c-1.7 0-2.5 1.3-2.5 2.9-.1 1.4.9 2.6 2.3 2.7h.1zM193.4 625.6c-1.2 0-2.3 1-2.3 2.2h4.5c.1-1.1-.8-2.1-1.9-2.2h-.3zM210 630.5c0 .9.6 1.3 1.4 1.3 1.1.1 2.1-.6 2.2-1.7V629h-1c-1 0-2.6.1-2.6 1.5zM335.9 625.6c-1.8 0-2.5 1.4-2.5 3.1s.8 3 2.5 3 2.5-1.4 2.5-3.1-.8-3-2.5-3z"/><path fill="#FFF" d="M1030.6 0H36v11.2H16.6c-2.5.1-4.4 2-4.5 4.5v87.5c0 2.5 2 4.4 4.5 4.4H36V720h994.6c3.9 0 7-3.1 7-7V7c0-3.9-3.1-7-7-7zM240.4 67h1.2v1.1c.4-.8 1.2-1.3 2.1-1.2 1-.1 1.9.5 2.4 1.4.5-.9 1.4-1.4 2.4-1.4 1.4 0 2.6 1.1 2.6 2.6v4.8h-1.2v-4.6c.1-.9-.5-1.7-1.4-1.8h-.4c-1 0-1.8.8-1.8 1.8v4.7h-1.2v-4.7c.1-.9-.5-1.7-1.4-1.8h-.4c-1 0-1.8.8-1.8 1.8v4.7h-1.2l.1-7.4zm-5.4-.1c2.1-.1 3.9 1.5 3.9 3.6.1 2.1-1.5 3.9-3.6 3.9-2.1.1-3.9-1.5-3.9-3.6v-.2c-.1-2 1.4-3.6 3.4-3.7h.2zm-8.1 0c1.4-.1 2.7.7 3.2 2l-1.1.5c-.3-.9-1.2-1.5-2.2-1.5-1.6 0-2.4 1.4-2.4 2.9s.8 2.7 2.4 2.7c1 0 1.9-.7 2.2-1.7l1 .4c-.5 1.4-1.8 2.3-3.3 2.3-2.2 0-3.5-1.7-3.5-3.8-.1-2 1.4-3.6 3.4-3.7.2-.1.2-.1.3-.1zm-6 5.7c.5-.1.9.3 1 .8s-.3.9-.8 1h-.2c-.5-.1-.9-.5-.8-1 .1-.4.4-.8.8-.8zM207.2 67h1.2v1.1c.3-.8 1.1-1.3 2-1.2 1-.1 1.9.5 2.4 1.4.5-.9 1.4-1.4 2.4-1.4 1.4 0 2.6 1.1 2.7 2.5v4.9h-1.2v-4.6c.1-.9-.5-1.7-1.4-1.8h-.4c-1 0-1.8.8-1.8 1.8v4.7H212v-4.7c.1-.9-.5-1.7-1.4-1.8h-.4c-1 0-1.8.8-1.8 1.8v4.7h-1.2V67zm-3.5 4.4V67h1.2v7.3h-1.2v-1.2c-.4.8-1.3 1.4-2.2 1.3-1.4.1-2.6-.9-2.8-2.3V67h1.2v4.6c-.1.9.6 1.8 1.5 1.9h.4c1 .1 1.9-.7 2-1.7-.1-.2-.1-.3-.1-.4zM197 35.8h2v6.6c.6-1.2 1.9-2 3.3-1.9 2.5 0 3.8 1.8 3.8 4.2v6.4h-2v-6.4c.2-1.2-.6-2.3-1.8-2.5h-.6c-1.4-.1-2.6 1-2.7 2.4v6.5h-2V35.8zm-1.3 27.9l1.2-.5v11.1h-1.2V63.7zm-7.2-23.1c1.4-.1 2.7.6 3.4 1.8v-1.6h2v9.6c0 3.2-2.4 4.6-5.2 4.6-1.9 0-3.8-.6-4.7-2.5l1.6-.7c.6 1.1 1.8 1.7 3.1 1.6 1.9 0 3.2-1 3.2-3v-1.5c-.8 1.2-2.1 2-3.5 2-2.9 0-4.6-2.3-4.6-5.1s1.9-5.2 4.7-5.2zm4.8 22.6v11.1h-1.2V63.7l1.2-.5zm-4.2 2.3c-.4 0-.8-.3-.8-.8 0-.4.3-.8.8-.8s.8.3.8.8c0 .4-.3.8-.8.8zm.6 1.5v7.3h-1.2V67h1.2zm-2.7 6.3v1h-6.1v-.5l4.5-5.8h-4.1v-1h5.7v.5l-4.4 5.8h4.4zm-14.5-32.6h2v1.7c.6-1.2 1.9-2 3.3-1.9 2.5 0 3.7 1.8 3.7 4.2v6.4h-2v-6.4c.2-1.2-.6-2.3-1.8-2.5h-.6c-1.4-.1-2.5 1-2.6 2.4v6.5h-2V40.7zm2 24c3 0 5.6 2 5.6 5.1 0 1.6-.8 3.6-2.6 3.6-.9 0-1.5-.2-1.6-1.2-.4.8-1.2 1.3-2.1 1.3-1.2 0-2.2-.9-2.3-2.1V71c-.1-1.7 1.1-3.1 2.7-3.2.7-.1 1.4.3 1.7.9l.1-.8h1.2l-.4 3.5v.3c0 .5.2.8.7.8 1.3 0 1.6-1.7 1.6-2.7 0-2.8-1.9-4.2-4.6-4.2-2.7-.1-4.8 2-4.9 4.7v.3c-.1 2.5 1.8 4.7 4.3 4.8h.4c1.3.1 2.5-.3 3.5-1.1l.9.4c-1.1 1.2-2.8 1.8-4.4 1.7-3.1.1-5.7-2.2-5.8-5.3v-.4c.1-3.4 2.7-6 6-6zm-7.1-13.5V40.7h2v10.5h-2zm.9-15c.7 0 1.3.5 1.3 1.2v.1c0 .7-.6 1.3-1.3 1.3s-1.3-.6-1.3-1.3c0-.7.6-1.3 1.3-1.3zm-1.5 33.7v4.4h-1.2v-4.5c.1-.9-.5-1.8-1.5-1.9h-.4c-1-.1-1.9.7-2 1.7v4.7h-1.2V63.5h1.2v4.7c.4-.9 1.4-1.4 2.3-1.3 1.9 0 2.8 1.2 2.8 3zm-12.2-29.1c0-2.6 2.4-4 4.7-4 2.2-.1 4.2 1.2 5 3.2l-1.7.8c-.5-1.4-1.8-2.3-3.3-2.3-1.3 0-2.6.5-2.6 2.1 0 3.9 8 .7 8 6.5.1 2.7-2.5 4.3-5 4.3-2.4.2-4.7-1.3-5.4-3.7l1.9-.8c.3 1.6 1.8 2.8 3.5 2.8 1.4 0 2.9-.8 2.9-2.4 0-4-8-.8-8-6.5zm-.1 26.1c1 0 2 .5 2.5 1.3V67h1.2v6.8c0 2.2-1.7 3.2-3.6 3.2-1.4.1-2.7-.6-3.3-1.8l.9-.4c.5.8 1.4 1.3 2.4 1.2 1.2.2 2.3-.7 2.5-1.9v-1.4c-.6.9-1.6 1.4-2.6 1.4-1.8 0-3.3-1.5-3.3-3.3v-.2c-.1-1.9 1.4-3.5 3.3-3.6v-.1zm-5.1 3v4.4h-1.2v-4.5c.1-.9-.5-1.8-1.4-1.9h-.4c-1-.1-1.9.7-2 1.8V74.3h-1.2V67h1.2v1.2c.5-.9 1.4-1.4 2.4-1.3 1.8 0 2.6 1.2 2.6 3zm-5.3-27.8c-1.1 0-2.1.7-2.4 1.7l-1.7-.7c.7-1.8 2.4-2.5 4.3-2.5 2.4 0 4 1.3 4 3.8v6.8h-2v-1.3c-.8 1-2 1.5-3.2 1.5-1.9 0-3.4-1-3.4-3.1 0-3.3 4.3-3.3 6.6-3.3 0-1.7-.3-2.9-2.2-2.9zm-3.9 21.8c.4 0 .8.3.8.8 0 .4-.3.8-.8.8-.4 0-.8-.3-.8-.8 0-.4.4-.8.8-.8zm.6 3.1v7.3h-1.2V67h1.2zm-6.9 2.6c.6.3 1.2.5 1.8.6.7.1 1.3.4 1.8.9.2.3.3.7.3 1.1 0 1.6-1.3 2.3-2.7 2.3-1.3.1-2.4-.7-2.8-1.9l.9-.4c.2.8 1 1.4 1.9 1.3.8 0 1.6-.3 1.6-1.2 0-.3-.1-.5-.3-.7-.6-.3-1.2-.5-1.8-.6-.7-.1-1.3-.4-1.8-.9-.2-.3-.3-.7-.3-1.1 0-1.3 1.4-2.1 2.5-2.1s2.2.6 2.6 1.7l-.9.4c-.3-.7-1-1.1-1.8-1.1-.6 0-1.4.3-1.4 1 0 .2.2.5.4.7zm-5.4-28.9h2v1.7c.6-1.2 1.9-2 3.3-1.9 2.5 0 3.7 1.8 3.7 4.2v6.4h-2v-6.4c.2-1.2-.6-2.3-1.8-2.5h-.6c-1.4 0-2.6 1.1-2.6 2.5v6.4h-2V40.7zm2.2 28.8v4.8h-1.2v-.9c-.6.7-1.4 1-2.3 1-1.2.1-2.3-.7-2.4-1.9v-.3c0-2.3 3.1-2.3 4.7-2.3 0-1.3-.2-2.2-1.7-2.2-.8 0-1.6.5-1.8 1.3l-1-.4c.5-1.2 1.7-1.9 2.9-1.8 1.4-.1 2.6.9 2.8 2.3v.4zm-9.2-29c3.5 0 4.7 2.5 4.7 5.7v.2h-7.6c0 1.9 1 3.4 3 3.4 1.2 0 2.2-.7 2.7-1.7l1.7.7c-.8 1.7-2.5 2.7-4.4 2.6-3.2 0-5.1-2.3-5.1-5.5 0-3 1.9-5.4 5-5.4zm-1.4 27.4c-1-.1-1.9.7-2 1.8V74.3H117V67h1.2v1.2c.5-.9 1.4-1.4 2.4-1.3 1.9 0 2.7 1.3 2.7 3v4.4H122v-4.5c.1-.9-.5-1.8-1.4-1.9h-.5zm-8.1 5.6c.9 0 1.6-.5 2-1.3l1.1.5c-.6 1.1-1.7 1.8-3 1.8-1.9 0-3.5-1.5-3.6-3.5v-.4c-.1-1.9 1.3-3.6 3.2-3.7h.2c2.4 0 3.3 1.8 3.3 3.9v.1h-5.5c-.2 1.3.7 2.4 2 2.6h.3zm-1.7-33c3.5 0 4.7 2.5 4.7 5.7v.2h-7.6c0 1.9 1 3.4 3 3.4 1.2 0 2.2-.7 2.7-1.7l1.7.7c-.8 1.7-2.5 2.7-4.4 2.6-3.2 0-5.1-2.3-5.1-5.5 0-3 1.9-5.4 5-5.4zm-3 30.3l-5.5.1c-.2 1.3.7 2.4 2 2.6h.3c.9 0 1.6-.5 2-1.3l1.1.5c-.6 1.1-1.8 1.8-3.1 1.8-1.9 0-3.5-1.5-3.6-3.5v-.4c-.1-1.9 1.3-3.6 3.2-3.7h.2c2.5 0 3.3 1.7 3.4 3.9zM48.9 83c-14.2 0-25.7-11.5-25.7-25.7s11.5-25.7 25.7-25.7 25.7 11.5 25.7 25.7S63.1 83 48.9 83zm42.5-46.1h2.2v6.3h7v-6.3h2.2v14.3h-2.2V45h-7v6.2h-2.2V36.9zm4.3 31c-1-.1-1.9.7-2 1.7v4.7h-1.2V63.5h1.2v4.7c.4-.9 1.4-1.4 2.3-1.3 1.8 0 2.8 1.3 2.8 3v4.4h-1.2v-4.5c.1-.9-.5-1.8-1.5-1.9h-.4zm38.6 617.4h-5v-12.9h4.6c2.3 0 4.1.7 4.1 3.4-1.6.6-2.4 2.3-1.8 3.9.4 1 1.3 1.8 2.3 2 .1 2.6-1.8 3.6-4.2 3.6zm8.4 0h-1.8v-9.5h1.8v9.5zm-1-11.2c-.6 0-1.1-.5-1.1-1.1 0-.6.5-1.1 1.1-1.1.6 0 1.1.5 1.2 1.1 0 .6-.5 1.1-1.2 1.1zm5.7 11.2h-1.8v-13.5l1.8-.8v14.3zm4.7 0h-1.8v-13.5l1.8-.8v14.3zm1.7-56.3v6.4h-22.4v-14.1l11.2 8.9 11.2-8.9v7.7zm-11.1-1l-11.1-8.8h22.2l-11.1 8.8zm-3.3-34.2s-2.1-1.8-.7-2.7c0 0-1.2-4.8 4.1-4.8s4 4.8 4 4.8c1.3.9-.7 2.7-.7 2.7s-1.4 2-1 3 3.4 1.8 3.4 1.8c4.7.3 4 5.5 4 5.5H133s-.7-5.1 4-5.4c0 0 3-.8 3.4-1.9s-1-3-1-3zm17.3 91.5h-1.8v-9.5h1.8v9.5zm-.9-11.2c-.6 0-1.1-.5-1.1-1.1 0-.6.5-1.1 1.1-1.1s1.1.5 1.1 1.1c0 .6-.5 1.1-1.1 1.1zm11.9 11h-1.8v-5.8c0-1.4-.7-2.3-2.1-2.3-1.4 0-2.4 1.2-2.4 2.6v5.6h-1.8v-9.5h1.8v1.5c.6-1.1 1.8-1.8 3-1.7 2.3 0 3.3 1.6 3.3 3.8v5.8zm11.2-.4c.1 2.8-2.1 4.1-4.6 4.1-1.8 0-3.5-.5-4.3-2.3l1.5-.7c.6 1 1.7 1.6 2.8 1.5 1.4.2 2.7-.8 2.9-2.2v-1.9c-.7 1.1-1.9 1.8-3.2 1.8-2.6 0-4.2-2.1-4.2-4.6s1.7-4.7 4.2-4.7c1.3-.1 2.5.6 3.1 1.7v-1.5h1.8v8.8zm-3.6-60.4c2.1 0 3.1 1.4 3.1 3.4v5.2h-1.7v-5.1c.1-1-.6-1.9-1.6-2h-.4c-1.1-.1-2 .8-2.1 1.9v5.3H171v-12.3h1.7v5.3c.5-1.2 1.5-1.8 2.6-1.7zm-2-26.9v5.3h-1.9v-12.2h1.9v5.3h5.9v-5.3h1.9v12.2h-1.9v-5.3h-5.9zm6.9 31.2c-.2-2.2 1.5-4.1 3.7-4.3h.3c2.8 0 3.9 2 3.9 4.6v.1h-6.2c0 1.5.8 2.7 2.5 2.7.9 0 1.8-.5 2.2-1.3l1.5.6c-.7 1.3-2.1 2.1-3.6 2-2.7 0-4.3-1.9-4.3-4.4zm7.3-27.3c1 0 1.9-.5 2.3-1.4l1.4.6c-.6 1.5-2.1 2.4-3.7 2.3-2.7 0-4.3-2-4.3-4.7 0-2.5 1.6-4.6 4.2-4.6 2.9 0 4 2.1 4 4.8v.1h-6.5c-.2 1.4.9 2.7 2.3 2.9h.3zm5.9 84l-1-3.3h-5.2l-1.1 3.3h-1.9l4.3-12.9h2.6l4.3 12.9h-2zm.1-52.3c-2.6 0-4.1-1.9-4.1-4.4-.2-2.2 1.5-4.1 3.7-4.3h.3c2.8 0 3.9 2 3.9 4.6v.1h-6.2c0 1.5.8 2.7 2.5 2.7.9 0 1.8-.5 2.2-1.3l1.4.6c-.8 1.3-2.2 2.1-3.7 2zm3.6-31.7c1 0 1.9-.5 2.3-1.4l1.4.6c-.6 1.5-2.1 2.4-3.7 2.3-2.7 0-4.3-2-4.3-4.7 0-2.5 1.6-4.6 4.2-4.6 2.9 0 4 2.1 4 4.8v.1h-6.5c-.2 1.4.9 2.7 2.3 2.9h.3zm8.7 84h-1.7v-1.6c-.7 1.1-2 1.8-3.3 1.8-2.8 0-4.2-2.2-4.2-4.9s1.5-4.9 4.3-4.9c1.3-.1 2.5.6 3.1 1.7v-6h1.8v13.9zm.7-52.5h-1.6v-5.1c.1-1-.6-1.9-1.5-2h-.4c-1.1-.1-2.1.7-2.1 1.8v5.3h-1.7v-8.4h1.7v1.3c.5-1 1.6-1.6 2.7-1.5 2.1 0 3 1.4 3 3.4l-.1 5.2zm-1.8-35.4v5.3H203v-8.9h1.7v1.4c.5-1 1.6-1.7 2.8-1.6 2.1 0 3.1 1.5 3.1 3.6v5.5h-1.7v-5.4c0-1.4-.6-2.2-2-2.2-1.1-.1-2.1.8-2.2 1.9v.4zm11.6-2.4c-.9 0-1.7.5-2 1.4l-1.4-.6c.6-1.4 2.1-2.3 3.6-2.2 2 0 3.4 1.1 3.4 3.2v5.8h-1.8v-1.1c-.6.8-1.6 1.3-2.7 1.3-1.4.2-2.7-.9-2.9-2.3v-.3c0-2.8 3.6-2.8 5.6-2.8 0-1.4-.2-2.4-1.8-2.4zm-1 32.3v5.5h-1.6v-1c-.6.8-1.6 1.2-2.6 1.2-1.5 0-2.8-.8-2.8-2.5 0-2.7 3.5-2.6 5.4-2.6 0-1.3-.2-2.3-1.8-2.3-.9 0-1.7.5-2 1.3l-1.4-.6c.6-1.3 2-2.1 3.5-2 2 0 3.3 1.1 3.3 3zm1.9 58h-1.8v-1.6c-.7 1.1-1.9 1.8-3.2 1.8-2.8 0-4.2-2.2-4.2-4.9s1.5-4.9 4.3-4.9c1.3-.1 2.5.6 3.1 1.7v-6h1.8v13.9zm-.1-54.4l1.3-.6c.3.9 1.2 1.4 2.1 1.4.8 0 1.7-.2 1.7-1.2 0-2-4.8-.5-4.8-3.7 0-1.6 1.6-2.4 3-2.4 1.3-.1 2.6.7 3.2 1.9l-1.2.5c-.3-.7-1.1-1.2-1.9-1.1-.7 0-1.5.3-1.5 1.1 0 2 4.9.4 4.9 3.7 0 1.9-1.6 2.7-3.2 2.7-1.8-.1-3.1-1-3.6-2.3zm7.7 46.4c-1.8.2-3 .8-3 2.9v5H220v-9.5h1.8v1.7c.5-1.2 1.7-2 3-1.9v1.8zm.4-83.6c0-2.2 2-3.4 4-3.4 1.8-.1 3.5 1 4.2 2.7l-1.5.7c-.4-1.2-1.6-1.9-2.8-1.9-1.1 0-2.2.5-2.2 1.8 0 3.3 6.8.6 6.8 5.6.1 2.3-2.1 3.6-4.2 3.6-2.1.2-4.1-1.2-4.6-3.2l1.6-.7c.3 1.4 1.6 2.4 3 2.4 1.2.1 2.4-.8 2.5-2v-.1c0-3.4-6.8-.7-6.8-5.5zm1.1 27.2c.6 0 1 .4 1 1s-.4 1-1 1-1-.4-1-1 .5-1 1-1zm-.8 3.6h1.6v8.4h-1.6v-8.4zm9.4 56.4H228c0 1.8.9 3.1 2.8 3.1 1 0 2-.6 2.4-1.5l1.5.7c-.8 1.5-2.3 2.4-4 2.3-2.9 0-4.6-2.1-4.6-5 0-2.7 1.8-4.9 4.5-4.9 3.1 0 4.3 2.3 4.3 5.2v.1zm-1.4-55.2c-1.1-.1-2.1.7-2.1 1.8v5.3h-1.7v-8.4h1.7v1.3c.5-1 1.6-1.6 2.7-1.5 2.1 0 3 1.4 3 3.4v5.2h-1.6v-5.1c.1-1-.5-1.9-1.5-2h-.5zm3.3-33.6c-.6 0-1.1-.5-1.1-1.1 0-.6.5-1.1 1.1-1.1s1.1.5 1.1 1.1c.1.5-.3 1-.9 1.1h-.2zm.9 1.7v8.9H236v-8.9h1.7zm2.2 91.7c-1.6.1-3.2-.8-3.7-2.4l1.4-.6c.4 1 1.3 1.6 2.3 1.6.9 0 1.9-.3 1.9-1.4 0-2.2-5.4-.6-5.4-4.2 0-1.8 1.8-2.8 3.4-2.8 1.5-.1 2.9.8 3.5 2.1l-1.4.6c-.4-.8-1.2-1.3-2.1-1.3-.7 0-1.7.3-1.7 1.2 0 2.2 5.4.5 5.4 4.2 0 2.1-1.7 3-3.6 3zm4.9-91.9c2.1 0 3.1 1.5 3.1 3.6v5.5h-1.7v-5.4c0-1.4-.6-2.2-2-2.2-1.2 0-2.2.9-2.2 2.1v5.5h-1.7v-8.9h1.7v1.4c.5-1 1.6-1.7 2.8-1.6zm-2.1 30.7c1.1-.1 2.2.5 2.8 1.5v-1.3h1.6v7.8c0 2.5-1.9 3.7-4.2 3.7-1.6 0-3.1-.5-3.8-2l1.3-.6c.5.9 1.5 1.4 2.5 1.3 1.3.2 2.4-.7 2.6-1.9V631c-.6 1-1.7 1.6-2.9 1.6-2.4 0-3.7-1.9-3.7-4.1-.1-2.2 1.5-4 3.6-4.2h.2zm5.9 61.2c-1.6.1-3.2-.8-3.7-2.4l1.4-.6c.4 1 1.3 1.6 2.3 1.6.9 0 1.9-.3 1.9-1.4 0-2.2-5.4-.6-5.4-4.2 0-1.8 1.8-2.8 3.4-2.8 1.5-.1 2.9.8 3.5 2.1l-1.4.6c-.4-.8-1.2-1.3-2.1-1.3-.7 0-1.7.3-1.7 1.2 0 2.2 5.4.5 5.4 4.2 0 2.1-1.8 3-3.6 3zm8.5-52.7h-1.7v-5.1c.1-1-.6-1.9-1.6-2h-.4c-1.1-.1-2 .8-2.1 1.9v5.3h-1.6v-12.3h1.7v5.3c.5-1 1.6-1.6 2.7-1.5 2.1 0 3.1 1.4 3.1 3.4l-.1 5zm1.4-30.7c0 2.6-2 3.8-4.4 3.8-1.6 0-3.3-.5-4-2.2l1.4-.6c.5.9 1.5 1.5 2.6 1.4 1.6 0 2.7-.8 2.7-2.5v-1.3c-.6 1-1.8 1.7-3 1.7-2.4 0-3.9-2-3.9-4.4-.1-2.3 1.6-4.3 3.9-4.4h.1c1.2-.1 2.3.6 2.9 1.6v-1.4h1.7v8.3zm10.7 29.7c-1 0-1.8-.3-2-1.4-.4.9-1.3 1.4-2.3 1.5-1.4 0-2.6-1.1-2.6-2.5v-.4c0-1.8 1.1-3.7 3.1-3.7.8-.1 1.5.3 1.9 1l.1-.9h1.5l-.5 4.1v.3c0 .5.2.9.8.9 1.5 0 1.8-2 1.8-3.1 0-3.1-2.3-4.8-5.2-4.8-3.1-.1-5.6 2.4-5.7 5.4v.4c-.2 2.9 2 5.3 4.9 5.5h.6c1.5.1 2.9-.4 4-1.3l1 .5c-2.8 2.6-7.1 2.5-9.8-.3-1.1-1.2-1.8-2.7-1.9-4.3 0-3.8 3-6.9 6.8-6.9h.1c3.5 0 6.4 2.2 6.4 5.8.1 2-.8 4.2-3 4.2zm-3.6-38.2c2.1 0 3.2 1.5 3.2 3.6v5.5h-1.7v-5.4c.2-1.1-.6-2-1.6-2.2h-.5c-1.1-.1-2.1.8-2.2 1.9v5.7h-1.7v-13.1h1.7v5.6c.5-1.1 1.6-1.7 2.8-1.6zm14.7 31.6l-4.8 6.3h4.7v1.4h-7v-.7l4.8-6.3h-4.4v-1.3h6.7v.6zm9.3 60.1h-8.3v-12.9h8v1.6h-6.1v3.9h5v1.6h-5v4.2h6.4v1.6zm-6.9-62.4c-.6 0-1-.4-1-1s.4-1 1-1 1 .4 1 1-.4 1-1 1zm.9 1.6v8.4H282v-8.4h1.6zm2.6 8.3v-11.9l1.7-.7v12.7h-1.7zm14 52.5h-1.8v-1.6c-.7 1.1-1.9 1.8-3.2 1.8-2.8 0-4.2-2.2-4.2-4.9s1.5-4.9 4.3-4.9c1.3-.1 2.5.6 3.1 1.7v-6h1.8v13.9zm-9.8-52.5v-11.9l1.7-.7v12.7h-1.7zm14.6 52.5h-1.9v-9.5h1.9v9.5zm-1-11.2c-.6 0-1.1-.5-1.1-1.1 0-.6.5-1.1 1.1-1.1s1.1.5 1.1 1.1c0 .6-.5 1.1-1.1 1.1zm-2.6-41.3h-1.6v-1.3c-.5 1-1.5 1.5-2.6 1.5-1.6.1-2.9-1.1-3-2.7v-5.8h1.6v5.2c-.1 1 .5 1.9 1.5 2h.4c1.1.1 2-.8 2.1-1.9v-5.2h1.6v8.2zm10.7 52.3c-.4.2-.8.3-1.3.3-1.3.2-2.5-.8-2.7-2.1v-6.1h-1.3v-1.5h1.3v-1.9l1.8-.8v2.7h2.1v1.5h-2.1v5.3c0 .8.3 1.3 1.1 1.3.4 0 .7-.1 1.1-.2v1.5zm4.1-52.3h-1.7v-5.2c.1-.9-.5-1.8-1.4-1.9h-.4c-1 0-1.9.8-1.9 1.8v5.2h-1.6v-5.2c.1-.9-.5-1.8-1.4-1.9h-.4c-1 0-1.9.8-1.9 1.8v5.2h-1.7v-8.4h1.7v1.3c.5-.9 1.4-1.5 2.4-1.4 1.1-.1 2.1.5 2.6 1.5.6-1 1.7-1.6 2.8-1.5 2 0 3 1.4 3 3.3l-.1 5.4zm3.5.1c-.6 0-1.1-.5-1.1-1.2 0-.6.5-1.1 1.1-1.1.6 0 1.1.5 1.1 1.1.1.7-.4 1.2-1.1 1.2zm6.8.1c-2.6 0-4.1-1.8-4.1-4.4-.1-2.3 1.6-4.2 3.9-4.3h.2c1.6-.1 3.1.8 3.7 2.3l-1.4.6c-.4-1-1.3-1.6-2.3-1.6-1.7 0-2.5 1.5-2.5 3.1s.8 2.9 2.5 2.9c1.1 0 2.1-.7 2.4-1.8l1.3.6c-.4 1.6-1.9 2.7-3.7 2.6zm9.3 0c-2.4 0-4.4-1.9-4.4-4.2 0-2.4 1.9-4.4 4.2-4.4s4.4 1.9 4.4 4.2v.1c.1 2.3-1.6 4.2-3.9 4.3h-.3zm18.6-.2h-1.7v-5.2c0-1.2-.6-1.9-1.8-1.9-1 0-1.9.8-1.9 1.8v5.2h-1.6v-5.2c.1-.9-.5-1.8-1.4-1.9h-.4c-1 0-1.9.8-1.9 1.8v5.2H342v-8.4h1.7v1.3c.5-.9 1.4-1.5 2.4-1.4 1.1-.1 2.1.5 2.6 1.5.6-1 1.6-1.6 2.8-1.5 2 0 3 1.4 3 3.3l-.1 5.4zm399.9 52.7c-2.2.2-4.3-1.2-4.9-3.4l1.7-.8c.3 1.5 1.7 2.6 3.2 2.6 1.3.2 2.4-.7 2.6-2v-.2c0-3.6-7.2-.7-7.2-5.9 0-2.3 2.2-3.6 4.3-3.6 2-.1 3.8 1.1 4.5 2.9l-1.6.7c-.5-1.2-1.6-2-2.9-2.1-1.2 0-2.4.5-2.4 1.9 0 3.5 7.3.7 7.3 5.9-.2 2.3-2.2 4.1-4.6 4zm15-.2h-1.8v-5.8c0-1.5-.7-2.3-2.2-2.3-1.2-.1-2.3.9-2.4 2.1V685.2h-1.8v-13.8h1.8v6c.6-1.1 1.8-1.8 3-1.7 2.3 0 3.4 1.6 3.4 3.8v5.8zm4.8 0h-1.8v-9.5h1.8v9.5zm-.9-11.2c-.6 0-1.1-.5-1.1-1.1 0-.6.5-1.1 1.1-1.1s1.1.5 1.1 1.1c0 .6-.5 1.1-1.1 1.1zm8.7 11.5c-1.3-.1-2.5-.7-3.2-1.8v4.8h-1.8v-12.7h1.8v1.6c.7-1.1 1.9-1.7 3.2-1.7 2.8 0 4.2 2.3 4.2 4.9s-1.4 4.9-4.2 4.9zm11.4 0c-1.3 0-2.5-.7-3.2-1.8v4.8h-1.8v-12.7h1.8v1.6c.7-1.1 1.9-1.7 3.2-1.7 2.8 0 4.2 2.3 4.2 4.9s-1.4 4.9-4.2 4.9zm8.1-.3h-1.8v-9.5h1.8v9.5zm-.9-11.2c-.6 0-1.1-.5-1.1-1.1 0-.6.5-1.1 1.1-1.1.6 0 1.1.5 1.1 1.1 0 .6-.5 1.1-1.1 1.1zm11.9 11h-1.8v-5.8c0-1.4-.7-2.3-2.1-2.3-1.4 0-2.4 1.2-2.4 2.6v5.6h-1.8v-9.5h1.8v1.5c.6-1.1 1.8-1.8 3-1.7 2.3 0 3.3 1.6 3.3 3.8v5.8zm11.2-.4c.1 2.8-2.1 4.1-4.6 4.1-1.8 0-3.5-.5-4.3-2.3l1.5-.7c.6 1 1.7 1.6 2.8 1.5 1.4.2 2.7-.8 2.9-2.2v-1.9c-.7 1.1-1.9 1.8-3.2 1.8-2.6 0-4.2-2.1-4.2-4.6s1.7-4.7 4.2-4.7c1.3-.1 2.5.6 3.1 1.7v-1.5h1.8v8.8zm14.5.6l-1-3.3h-5.2l-1.1 3.3h-1.9l4.3-12.9h2.6l4.3 12.9h-2zm12.4 0h-1.8v-1.6c-.7 1.1-1.9 1.8-3.2 1.8-2.8 0-4.2-2.2-4.2-4.9s1.5-4.9 4.3-4.9c1.3-.1 2.5.6 3.1 1.7v-6h1.8v13.9zm11.4 0h-1.8v-1.6c-.7 1.1-1.9 1.8-3.2 1.8-2.8 0-4.2-2.2-4.2-4.9s1.5-4.9 4.3-4.9c1.3-.1 2.5.6 3.1 1.7v-6h1.8v13.9zm7.6-8c-1.8.2-3 .8-3 2.9v5h-1.8v-9.5h1.8v1.7c.5-1.2 1.7-2 3-1.9v1.8zm10.1 3.6h-6.9c0 1.8.9 3.1 2.8 3.1 1 0 2-.6 2.4-1.5l1.5.7c-.8 1.5-2.3 2.4-4 2.3-2.9 0-4.6-2.1-4.6-5 0-2.7 1.8-4.9 4.5-4.9 3.1 0 4.3 2.3 4.3 5.2v.1zm5 4.6c-1.6.1-3.2-.8-3.7-2.4l1.4-.6c.4 1 1.3 1.6 2.3 1.6.9 0 1.9-.3 1.9-1.4 0-2.2-5.4-.6-5.4-4.2 0-1.8 1.8-2.8 3.4-2.8 1.5-.1 2.9.8 3.5 2.1l-1.4.6c-.4-.8-1.2-1.3-2.1-1.3-.7 0-1.7.3-1.7 1.2 0 2.2 5.4.5 5.4 4.2 0 2.1-1.7 3-3.6 3zm8.7 0c-1.6.1-3.2-.8-3.7-2.4l1.4-.6c.4 1 1.3 1.6 2.3 1.6.9 0 1.9-.3 1.9-1.4 0-2.2-5.4-.6-5.4-4.2 0-1.8 1.8-2.8 3.4-2.8 1.5-.1 2.9.8 3.5 2.1l-1.4.6c-.4-.8-1.2-1.3-2.1-1.3-.7 0-1.7.3-1.7 1.2 0 2.2 5.4.5 5.4 4.2 0 2.1-1.8 3-3.6 3zm58.2-.2h-8.3v-12.9h8v1.6h-6.1v3.9h5v1.6h-5v4.2h6.4v1.6zm10.6 0h-1.8v-1.6c-.7 1.1-1.9 1.8-3.2 1.8-2.8 0-4.2-2.2-4.2-4.9s1.5-4.9 4.3-4.9c1.3-.1 2.5.6 3.1 1.7v-6h1.8v13.9zm4.7 0H965v-9.5h1.8v9.5zm-.9-11.2c-.6 0-1.1-.5-1.1-1.1 0-.6.5-1.1 1.1-1.1.6 0 1.1.5 1.1 1.1 0 .6-.5 1.1-1.1 1.1zm8.1 11c-.4.2-.8.3-1.3.3-1.3.2-2.5-.8-2.7-2.1v-6.1h-1.3v-1.5h1.3v-1.9l1.8-.8v2.7h2.1v1.5h-2.1v5.3c0 .8.3 1.3 1.1 1.3.4 0 .7-.1 1.1-.2v1.5zm23.1-120.7h-899v-40c0-1 .9-1.8 1.9-1.8h895.3c1 0 1.8.8 1.8 1.8v40zm.6-63.4c0 2.2-1.8 4-4 4H101.6c-2.2 0-4-1.8-4-4V361.1c0-.7.2-1.3.5-1.9.1-.8.7-1.4 1.5-1.5.6-.4 1.3-.5 2-.5h892.1c.7 0 1.4.2 1.9.5.7.1 1.2.6 1.4 1.3.4.6.6 1.4.6 2.2l.1 139.8zM98.2 336.5V188.7c0-1.3 1-2.5 2.3-2.5h460.8c1.4 0 2.5 1.1 2.5 2.5v147.8c0 1.4-1.1 2.5-2.5 2.5H100.7c-1.4 0-2.5-1.1-2.5-2.5zm903.4-169.9c0 1.5-1.2 2.8-2.7 2.8H100.4c-1.5 0-2.8-1.2-2.8-2.7v-59.1h218.7c2.2 0 4-1.5 4.4-3.6.1-.3.1-.5.1-.8v-.2h678c1.5 0 2.8 1.2 2.8 2.7v60.9z"/><path fill="#FFF" d="M111.9 67.8c-1.2 0-2.1.9-2.2 2.1h4.3c.1-1.1-.8-2-1.9-2.1h-.2zM126 72.3c0 .9.6 1.2 1.4 1.2 1.1.1 2-.7 2.2-1.8v-.9h-1c-1 0-2.6.2-2.6 1.5zM235 73.5c1.7 0 2.4-1.3 2.4-2.9.2-1.4-.8-2.6-2.2-2.8h-.3c-1.7 0-2.4 1.3-2.4 2.9s.9 2.8 2.5 2.8zM671.9 468c1.2 0 2.3-.6 2.3-2v-1h-1.1c-1 0-2.8.2-2.8 1.6 0 1 .7 1.4 1.6 1.4zM671.9 438c1.2 0 2.3-.6 2.3-2v-1h-1.1c-1 0-2.8.2-2.8 1.6 0 1 .7 1.4 1.6 1.4zM212.7 677.2c-2.1 0-2.8 1.6-2.8 3.5 0 1.7.8 3.3 2.7 3.3s2.9-1.6 2.9-3.5-.8-3.3-2.8-3.3zM215.7 601.5c1.1.1 2.2-.7 2.3-1.8v-1.2h-1.1c-1 0-2.8.2-2.8 1.6 0 .8.6 1.4 1.4 1.4h.2zM201.3 677.2c-2.1 0-2.8 1.6-2.8 3.5 0 1.7.8 3.3 2.7 3.3s2.9-1.6 2.9-3.5-.8-3.3-2.8-3.3zM227 462.1c-2.1 0-2.8 1.6-2.8 3.5 0 1.7.8 3.3 2.7 3.3 2.1 0 3-1.6 3-3.5s-.9-3.3-2.9-3.3zM640.9 460.6c0-1.6-.9-2.2-2.4-2.2h-2.1v4.5h2.1c1.1.2 2.2-.6 2.4-1.7v-.6zM640.9 430.6c0-1.6-.9-2.2-2.4-2.2h-2.1v4.5h2.1c1.1.2 2.2-.6 2.4-1.7v-.6zM230.5 677.1c-1.4.1-2.4 1.1-2.5 2.5h5c.1-1.3-.9-2.4-2.2-2.5h-.3zM254.3 595.1c-1.8 0-2.6 1.4-2.6 3.1-.1 1.4 1 2.7 2.4 2.8h.1c1.5 0 2.7-1.3 2.7-2.8v-.2c.2-1.4-.9-2.7-2.3-2.9h-.3zM245.7 433.4c-1.4 0-2.6 1.1-2.6 2.5h5.1c.1-1.3-.9-2.4-2.2-2.5h-.3z"/><path fill="#F1F1F3" d="M100.4 168.4h898.4c1 0 1.8-.8 1.8-1.8v-60.8c0-1-.8-1.8-1.8-1.8H320.7c-.4 2.1-2.3 3.6-4.4 3.6H98.6v59c0 1 .8 1.8 1.8 1.8zm779.1-45.8c0-.6.4-1 1-1h95c.5 0 1 .4 1 .9v24c0 .5-.4 1-.9 1h-95.1c-.5 0-1-.4-1-.9v-24zm-161.3 0c0-.6.4-1 1-1h95c.5 0 1 .4 1 .9v24c0 .5-.4 1-.9 1h-95.1c-.5 0-1-.4-1-.9v-24zm-476.3 20.3h-1.8v-9h1.8v9zm35.6-2.3l1.7.7-2.2 3.7-1.1-.5 1.6-3.9zm-11.4-10.9h1.8v5.7c.6-1 1.7-1.7 2.9-1.6 2.2 0 3.3 1.5 3.3 3.6v5.5h-1.8v-5.5c.2-1.1-.6-2-1.6-2.2h-.5c-1.2-.1-2.2.8-2.3 2v5.7h-1.8v-13.2zm-7.4 4.1c1.2-.1 2.4.6 3 1.6V134h1.8v8.4c-.1 2.6-2.1 3.8-4.6 3.8-1.7 0-3.4-.5-4.1-2.2l1.4-.6c.6.9 1.6 1.5 2.7 1.4 1.7 0 2.8-.8 2.8-2.6v-1.3c-.7 1-1.8 1.7-3.1 1.7-2.5 0-4-2-4-4.4-.1-2.3 1.6-4.2 3.9-4.4h.2zm-14.1.1h1.8v1.4c.6-1 1.7-1.7 2.9-1.6 2.2 0 3.2 1.5 3.2 3.6v5.5h-1.8v-5.4c.2-1.1-.6-2-1.6-2.2h-.5c-1.2 0-2.2.9-2.2 2.1V142.9h-1.8v-9zM241 130c.6 0 1.1.5 1.1 1.1.1.5-.3 1-.9 1.1h-.2c-.6 0-1.1-.5-1.1-1.1 0-.6.5-1.1 1.1-1.1zm-12 3.9c0-2.2 2.1-3.4 4.1-3.4 1.9-.1 3.7 1 4.4 2.8l-1.5.7c-.4-1.2-1.6-2-2.9-2-1.1 0-2.3.5-2.3 1.8 0 3.4 7 .6 7 5.6.1 2.3-2.2 3.7-4.3 3.7-2.3 0-4-.9-4.7-3.2l1.6-.7c.3 1.5 1.6 2.5 3.1 2.4 1.2.1 2.4-.8 2.5-2v-.1c0-3.4-7-.7-7-5.6zm-9.2 1.2c-.9 0-1.7.6-2.1 1.4l-1.5-.6c.7-1.4 2.1-2.3 3.7-2.2 2.1 0 3.5 1.1 3.5 3.3v5.9h-1.8v-1.1c-.6.9-1.6 1.4-2.7 1.3-1.7 0-3-.9-3-2.7 0-2.9 3.7-2.8 5.8-2.8 0-1.4-.2-2.5-1.9-2.5zm-13.8-1.2h1.8v1.4c.6-1 1.7-1.7 2.9-1.6 2.2 0 3.2 1.5 3.2 3.6v5.5h-1.8v-5.4c.2-1.1-.6-2-1.6-2.2h-.5c-1.2 0-2.2.9-2.2 2.1V142.9H206v-9zm-6.1-.1c3 0 4.1 2.2 4.1 4.9v.1h-6.7c-.2 1.4.8 2.7 2.2 2.9h.5c1 0 1.9-.5 2.4-1.4l1.5.6c-.8 1.4-2.3 2.3-3.9 2.2-2.4.1-4.4-1.8-4.5-4.2v-.5c-.2-2.4 1.6-4.4 4-4.6h.4zm-9.9 0c3 0 4.1 2.2 4.1 4.9v.1h-6.7c-.2 1.4.8 2.7 2.2 2.9h.5c1 0 1.9-.5 2.4-1.4l1.5.6c-.8 1.4-2.3 2.3-3.9 2.2-2.4.1-4.4-1.8-4.5-4.2v-.5c-.2-2.4 1.6-4.4 4-4.6h.4zm-16.4-3.2h1.9v5.4h6.1v-5.4h1.9v12.3h-1.9v-5.3h-6.1v5.3h-1.9v-12.3zm-10 3.2c2.5-.1 4.5 1.8 4.6 4.3v.4c-.1 2.5-2.2 4.6-4.7 4.6-2.4.1-4.4-1.8-4.5-4.2v-.5c-.1-2.4 1.8-4.5 4.2-4.6h.4zm-8.6-3.7l1.8-.8v13.6H155v-12.8zm-4.5 0l1.8-.8v13.6h-1.8v-12.8zm-6.2 3.7c3 0 4.1 2.2 4.1 4.9v.1h-6.7c-.2 1.4.8 2.7 2.2 2.9h.5c1 0 1.9-.5 2.4-1.4l1.5.6c-.8 1.4-2.3 2.3-3.9 2.2-2.4.1-4.4-1.8-4.5-4.2v-.5c-.2-2.4 1.6-4.4 4-4.6h.4zm-16.5-3.2h1.9v5.4h6.1v-5.4h1.9v12.3h-1.9v-5.3h-6.1v5.3h-1.9v-12.3z"/><path fill="#F1F1F3" d="M144.3 135.1c-1.3 0-2.4 1.1-2.5 2.4h4.9c-.1-1.5-.8-2.4-2.4-2.4zM217.6 140.3c0 .8.6 1.4 1.4 1.4h.2c1.2.1 2.3-.7 2.4-1.9v-1.1h-1.1c-1.1 0-2.9.2-2.9 1.6zM199.9 135.1c-1.3 0-2.4 1.1-2.5 2.4h4.9c-.1-1.5-.8-2.4-2.4-2.4zM190.1 135.1c-1.3-.1-2.4 1-2.5 2.3v.1h4.9c-.1-1.5-.8-2.4-2.4-2.4zM163.5 141.6c1.9 0 2.7-1.5 2.7-3.3s-.9-3.2-2.7-3.2c-2 0-2.7 1.5-2.7 3.3s.8 3.2 2.7 3.2zM259 141.2c1.6 0 2.8-1.3 2.8-2.8v-.3c.2-1.4-.8-2.7-2.2-2.9h-.5c-1.8 0-2.7 1.4-2.7 3.1-.1 1.5 1 2.8 2.6 2.9z"/><path fill="silver" d="M998.8 103h-678v.2c0 .3 0 .5-.1.8h678.1c1 0 1.8.8 1.8 1.8v60.8c0 1-.8 1.8-1.8 1.8H100.4c-1 0-1.8-.8-1.8-1.8v-59h-1v59c0 1.5 1.2 2.8 2.7 2.8h898.5c1.5 0 2.8-1.2 2.8-2.7v-60.9c0-1.5-1.2-2.8-2.7-2.8h-.1z"/><path fill="#0C084E" d="M129.7 137.6h6.1v5.3h1.9v-12.3h-1.9v5.4h-6.1v-5.4h-1.9v12.3h1.9zM144.4 143.1c1.6.1 3.1-.8 3.9-2.2l-1.5-.6c-.5.9-1.4 1.4-2.4 1.4-1.4.1-2.6-1-2.7-2.4v-.5h6.7v-.1c0-2.7-1.1-4.9-4.1-4.9-2.4-.1-4.4 1.8-4.4 4.2v.4c-.2 2.4 1.6 4.5 4 4.7h.5zm-.1-8c1.6 0 2.3.9 2.4 2.4h-4.9c.1-1.3 1.2-2.4 2.5-2.4zM152.3 129.3l-1.8.8v12.8h1.8zM156.8 129.3l-1.8.8v12.8h1.8zM163.5 143.1c2.5 0 4.6-2.1 4.7-4.6 0-2.5-2-4.6-4.5-4.7-2.5 0-4.6 2-4.7 4.6-.2 2.4 1.6 4.5 4 4.7h.5zm0-8c1.8 0 2.7 1.5 2.7 3.2s-.8 3.3-2.7 3.3-2.8-1.4-2.7-3.2.7-3.3 2.7-3.3zM175.5 137.6h6.1v5.3h1.9v-12.3h-1.9v5.4h-6.1v-5.4h-1.9v12.3h1.9zM190.1 143.1c1.6.1 3.1-.8 3.9-2.2l-1.5-.6c-.5.9-1.4 1.4-2.4 1.4-1.4.1-2.6-1-2.7-2.4v-.5h6.7v-.1c0-2.7-1.1-4.9-4.1-4.9-2.4-.1-4.4 1.8-4.4 4.2v.4c-.2 2.4 1.6 4.5 4 4.7h.5zm0-8c1.6 0 2.3.9 2.4 2.4h-4.9c0-1.3 1.1-2.4 2.4-2.4h.1zM200 143.1c1.6.1 3.1-.8 3.9-2.2l-1.5-.6c-.5.9-1.4 1.4-2.4 1.4-1.4.1-2.6-1-2.7-2.4v-.5h6.7v-.1c0-2.7-1.1-4.9-4.1-4.9-2.4-.1-4.4 1.8-4.4 4.2v.4c-.2 2.4 1.6 4.5 4 4.7h.5zm-.1-8c1.6 0 2.3.9 2.4 2.4h-4.9c.1-1.3 1.2-2.4 2.5-2.4zM207.8 137.5c-.1-1.2.8-2.2 2-2.3h.2c1.1-.1 2 .7 2.1 1.7v5.9h1.8v-5.5c0-2.1-1-3.6-3.2-3.6-1.2-.1-2.3.6-2.9 1.6v-1.4H206v9h1.8v-5.4zM215.9 140.4c0 1.8 1.3 2.7 3 2.7 1.1.1 2.1-.4 2.7-1.3v1.1h1.8V137c0-2.2-1.4-3.3-3.5-3.3-1.6-.1-3 .8-3.7 2.2l1.5.6c.4-.8 1.2-1.4 2.1-1.4 1.7 0 1.9 1.1 1.9 2.5-2.1 0-5.8-.1-5.8 2.8zm5.7-.7c-.1 1.2-1.1 2.1-2.3 2h-.1c-.8.1-1.5-.5-1.6-1.2v-.2c0-1.4 1.8-1.6 2.9-1.6h1.1v1zM233.5 141.6c-1.5.1-2.8-.9-3.1-2.4l-1.6.7c.7 2.3 2.4 3.2 4.7 3.2 2.1 0 4.4-1.4 4.3-3.7 0-5-7-2.2-7-5.6 0-1.3 1.2-1.8 2.3-1.8 1.3 0 2.5.8 2.9 2l1.5-.7c-.7-1.8-2.5-2.9-4.4-2.8-2 0-4.1 1.2-4.1 3.4 0 4.9 7 2.2 7 5.6-.1 1.3-1.2 2.2-2.5 2.1.1 0 0 0 0 0zM241 132.2c.5.1 1-.3 1.1-.9v-.2c0-.6-.5-1.1-1.1-1.1s-1.1.5-1.1 1.1c0 .6.5 1.1 1.1 1.1zM240.1 133.9h1.8v9h-1.8zM246.4 137.5c-.1-1.2.8-2.2 2-2.3h.2c1.1-.1 2 .7 2.1 1.7v5.9h1.8v-5.5c0-2.1-1-3.6-3.2-3.6-1.2-.1-2.3.6-2.9 1.6v-1.4h-1.8v9h1.8v-5.4zM258.6 142.6c1.3 0 2.4-.7 3.1-1.7v1.3c0 1.8-1.1 2.6-2.8 2.6-1.1.1-2.1-.5-2.7-1.4l-1.4.6c.7 1.7 2.4 2.2 4.1 2.2 2.5 0 4.5-1.2 4.6-3.8V134h-1.8v1.4c-.6-1-1.8-1.7-3-1.6-2.3 0-4.1 1.9-4.1 4.2v.2c0 2.4 1.5 4.4 4 4.4zm.5-7.4c1.4-.1 2.6 1 2.7 2.4v.5c.2 1.5-1 2.9-2.5 3.1h-.3c-1.5-.1-2.7-1.3-2.6-2.8v-.1c0-1.7.9-3.1 2.7-3.1zM267.9 137.5c-.1-1.2.8-2.2 2-2.3h.3c1.1-.1 2 .7 2.1 1.7v6h1.8v-5.5c0-2.1-1.1-3.6-3.3-3.6-1.2-.1-2.3.6-2.9 1.6v-5.7h-1.8v13.2h1.8v-5.4zM279.2 141.3l-1.7-.7-1.6 3.9 1.1.5z"/><path fill="#EDF3FF" d="M100.7 339h460.6c1.4 0 2.5-1.1 2.5-2.5V188.7c0-1.4-1.1-2.5-2.5-2.5H100.7c-1.3 0-2.5 1-2.5 2.3v148c0 1.4 1.1 2.5 2.5 2.5zm167.7-113.5h-1.8v-9h1.8v9zm159.4 0h-1.7v-9h1.7v9zm74.2 37.3c-2.4 0-4.5-1.6-5.2-3.9-.3-1.1-.5-2.3-.4-3.5 0-3.5 1.7-6.6 5.6-6.6 4.2 0 5.5 3.7 5.5 7.3 0 3.6-1.6 6.7-5.5 6.7zm21.6-43.9c0-1.7 1.7-2.6 3.3-2.6 1.4 0 2.7.7 3.4 2l-1.3.6c-.4-.8-1.2-1.2-2.1-1.2-.7 0-1.6.3-1.6 1.2 0 2.1 5.2.4 5.2 4 0 1.9-1.7 2.7-3.5 2.7-1.6.1-3.1-.8-3.6-2.3l1.4-.6c.3.9 1.2 1.5 2.2 1.5.9 0 1.8-.3 1.8-1.3 0-2.1-5.2-.6-5.2-4zm-6.7-2.4h1.3v-1.8l1.8-.8v2.5h2v1.4h-2v5c0 .7.3 1.2 1.1 1.2.3 0 .7-.1 1-.2v1.4c-.4.3-.8.4-1.3.4-1.7 0-2.6-.8-2.6-2.5v-5.2h-1.3v-1.4zm-2.6-3.9c.6 0 1.1.5 1.1 1.1s-.5 1.1-1.1 1.1c-.6 0-1.1-.5-1.1-1.1 0-.6.5-1.1 1.1-1.1zm.9 3.9v9h-1.8v-9h1.8zm0 32.3c4.2 0 5.5 3.7 5.5 7.3s-1.6 6.7-5.5 6.7c-2.4 0-4.5-1.6-5.2-3.9-.3-1.1-.5-2.3-.4-3.5 0-3.5 1.7-6.6 5.6-6.6zm-9.3-32.5c1.2-.1 2.4.6 3 1.6v-5.6h1.8v13.2h-1.8V224c-.7 1-1.9 1.6-3.1 1.6-2.7 0-4-2.1-4-4.6s1.5-4.7 4.1-4.7zm-9.7 0c3 0 4.1 2.2 4.1 4.9v.1h-6.7c-.2 1.4.8 2.7 2.2 2.9h.5c1 0 1.9-.5 2.4-1.4l1.5.6c-.7 1.5-2.3 2.3-3.9 2.2-2.4.1-4.4-1.8-4.5-4.2v-.5c-.2-2.4 1.6-4.4 4-4.6h.4zm-3 43.7c.7 0 1.4.6 1.4 1.3-.1.8-.6 1.3-1.4 1.4-.8 0-1.4-.6-1.4-1.3v-.1a1.324 1.324 0 011.4-1.3zm-7.3-43.5h1.8v1.7c.5-1.1 1.7-1.8 2.9-1.8v1.7c-1.8 0-2.9.6-2.9 2.6v4.8h-1.8v-9zm4 39.6c0 3.5-1.7 6.7-5.5 6.7-2.4 0-4.5-1.6-5.2-3.9-.3-1.1-.5-2.3-.4-3.5 0-3.5 1.7-6.6 5.6-6.6 4.2 0 5.5 3.7 5.5 7.3zm-11.2-43.2c2.3-.1 4.4 1.3 5.2 3.4l-1.6.7c-.5-1.5-1.9-2.5-3.5-2.5-2.8 0-4 2.4-4 4.9s1.3 4.7 4 4.7c1.6-.1 3.1-1.1 3.6-2.7l1.5.7c-.8 2.1-2.8 3.5-5.1 3.5-3.9 0-6-2.6-6-6.4 0-3.4 2.3-6.3 5.9-6.3zM468.1 256c1.7 0 3.9.1 4.4-2.1h-4.4v-1.4h4.4c-.4-2.3-2.6-2.1-4.4-2.1V249h8.8v1.4h-3.5c.7.5 1.1 1.3 1.3 2.1h2.2v1.4h-2.2c-.3 1.6-1.5 2.8-3 3.2l3.9 5.5h-2.5l-3.3-5.1h-1.7V256zm-4.3-39.7c3 0 4.1 2.2 4.1 4.9v.1h-6.7c-.2 1.4.8 2.7 2.2 2.9h.5c1 0 1.9-.5 2.4-1.4l1.5.6c-.7 1.5-2.3 2.3-3.9 2.2-2.4.1-4.4-1.8-4.5-4.2v-.5c-.2-2.4 1.6-4.4 4-4.6h.4zm-8.2-3.6l1.8-.8v13.6h-1.8v-12.8zm-11.1-.4h1.8v5.7c.7-1 1.8-1.7 3.1-1.7 2.7 0 4.1 2.2 4.1 4.7s-1.4 4.6-4.1 4.6c-1.2.1-2.4-.5-3.1-1.6v1.5h-1.8v-13.2zm-6.2 5.3c-.9 0-1.7.6-2.1 1.4l-1.5-.6c.7-1.4 2.1-2.3 3.7-2.2 2.1 0 3.5 1.1 3.5 3.3v5.9h-1.8v-1c-.7.8-1.7 1.2-2.7 1.2-1.7 0-3-.9-3-2.7 0-2.9 3.7-2.8 5.8-2.8 0-1.4-.2-2.5-1.9-2.5zm-7.7-4.9l1.8-.8v13.6h-1.8v-12.8zm-3.7-.1c.6 0 1.1.5 1.1 1.1.1.5-.3 1-.9 1.1h-.2c-.6 0-1.1-.5-1.1-1.1s.5-1.1 1.1-1.1zm-7.1 5c-.9 0-1.7.6-2.1 1.4l-1.5-.6c.7-1.4 2.1-2.3 3.7-2.2 2.1 0 3.5 1.1 3.5 3.3v5.9h-1.8v-1c-.7.8-1.7 1.2-2.7 1.2-1.7 0-3-.9-3-2.7 0-2.9 3.7-2.8 5.8-2.8 0-1.4-.2-2.5-1.9-2.5zm-11.5-1.1l2.4 7.2 2.4-7.2h1.9l-3.2 9h-2.2l-3.2-9h1.9zm-9.2-3.3h2.5l4.1 12.3h-1.9l-1-3.1h-5l-1 3.1H395l4.1-12.3zm-108.7 5.7c0-1.7 1.7-2.6 3.3-2.6 1.4 0 2.7.7 3.4 2l-1.3.6c-.4-.8-1.2-1.2-2.1-1.2-.7 0-1.6.3-1.6 1.2 0 2.1 5.2.4 5.2 4 0 1.9-1.7 2.7-3.5 2.7-1.6.1-3.1-.8-3.6-2.3l1.4-.6c.3.9 1.2 1.5 2.2 1.5.9 0 1.8-.3 1.8-1.3 0-2.1-5.2-.6-5.2-4zm-5.7-2.6c3 0 4.1 2.2 4.1 4.9v.1h-6.7c-.2 1.4.8 2.7 2.2 2.9h.5c1 0 1.9-.5 2.4-1.4l1.5.6c-.7 1.5-2.3 2.3-3.9 2.2-2.4.1-4.4-1.8-4.5-4.2v-.5c-.2-2.4 1.6-4.4 4-4.6h.4zm-9.6 0c1.7-.1 3.4.9 4 2.5l-1.5.7c-.4-1-1.4-1.7-2.5-1.7-1.9 0-2.7 1.7-2.7 3.3s.8 3.1 2.7 3.1c1.2 0 2.2-.8 2.5-1.9l1.4.6c-.6 1.7-2.2 2.8-4 2.7-2.8 0-4.4-2-4.4-4.7-.1-2.4 1.8-4.5 4.2-4.6h.3zm-7.6-3.7c.6 0 1.1.5 1.1 1.1 0 .6-.5 1.1-1.1 1.1s-1.1-.5-1.1-1.1c0-.6.5-1.1 1.1-1.1zm-7.4 3.7c2.5-.1 4.5 1.8 4.6 4.3v.4c0 2.5-2 4.6-4.5 4.6h-.2c-2.4.1-4.4-1.8-4.5-4.2v-.5c-.1-2.4 1.8-4.5 4.2-4.6h.4zm-12.3.2l2.4 7.2 2.4-7.2h1.9l-3.2 9h-2.2l-3.2-9h1.9zm-11.4 0h1.8v1.4c.6-1 1.7-1.7 2.9-1.6 2.2 0 3.2 1.5 3.2 3.6v5.5h-1.8v-5.5c.2-1.1-.6-2-1.6-2.2h-.5c-1.3 0-2.2 1.1-2.2 2.3v5.5h-1.8v-9zm-4.7-3.3h1.9v12.3h-1.9v-12.3zm-11 3.2c1.2-.1 2.4.6 3 1.6v-1.4h1.8v8.4c-.1 2.6-2.1 3.8-4.6 3.8-1.7 0-3.4-.5-4.1-2.2l1.4-.6c.6.9 1.6 1.5 2.7 1.4 1.7 0 2.8-.8 2.8-2.6v-1.3c-.7 1-1.8 1.7-3.1 1.7-2.5 0-4-2-4-4.4-.1-2.3 1.6-4.2 3.9-4.4h.2zm-14.1.1h1.8v1.4c.6-1 1.7-1.7 2.9-1.6 2.2 0 3.2 1.5 3.2 3.6v5.5h-1.8v-5.5c.2-1.1-.6-2-1.6-2.2h-.5c-1.3 0-2.2 1.1-2.2 2.3v5.5h-1.8v-9zm4.7 30.8c4.2 0 5.5 3.7 5.5 7.3 0 3.6-1.6 6.7-5.5 6.7-2.4 0-4.5-1.6-5.2-3.9-.3-1.1-.5-2.3-.4-3.5 0-3.5 1.7-6.6 5.6-6.6zm-8.3-34.7c.6 0 1.1.5 1.1 1.1s-.5 1.1-1.1 1.1c-.6 0-1.1-.5-1.1-1.1 0-.6.5-1.1 1.1-1.1zm.9 3.9v9h-1.8v-9h1.8zm-.2 38.1c0 3.5-1.7 6.7-5.5 6.7-2.4 0-4.5-1.6-5.2-3.9-.3-1.1-.5-2.3-.4-3.5 0-3.5 1.7-6.6 5.6-6.6 4.2 0 5.5 3.7 5.5 7.3zm-9.1-38.3c1.2-.1 2.4.6 3 1.6v-5.6h1.8v13.2h-1.8V224c-.7 1-1.9 1.6-3.1 1.6-2.7 0-4-2.1-4-4.6s1.5-4.7 4.1-4.7zm-3.9 43.5c-.1.8-.6 1.3-1.4 1.4-.8 0-1.4-.6-1.4-1.3v-.1c0-.7.6-1.3 1.3-1.3h.1c.7 0 1.4.6 1.4 1.3zm-10.2-43.3h1.8v1.4c.6-1 1.7-1.7 2.9-1.6 2.2 0 3.2 1.5 3.2 3.6v5.5h-1.8v-5.5c.2-1.1-.6-2-1.6-2.2h-.5c-1.3 0-2.2 1.1-2.2 2.3v5.5h-1.8v-9zm5.5 38.1c0 3.5-1.6 6.7-5.5 6.7-2.4 0-4.5-1.6-5.2-3.9-.3-1.1-.5-2.3-.4-3.5 0-3.5 1.7-6.6 5.6-6.6 4.2 0 5.5 3.7 5.5 7.3zm-11.7-37c-.9 0-1.7.6-2.1 1.4l-1.5-.6c.7-1.4 2.1-2.3 3.7-2.2 2.1 0 3.5 1.1 3.5 3.3v5.9h-1.8v-1c-.7.8-1.7 1.2-2.7 1.2-1.7 0-3-.9-3-2.7 0-2.9 3.7-2.8 5.8-2.8 0-1.4-.2-2.5-1.9-2.5zm-10.4-1.1h1.3v-1.8l1.8-.8v2.5h2v1.4h-2v5c0 .7.3 1.2 1.1 1.2.3 0 .7-.1 1-.2v1.4c-.4.3-.8.4-1.3.4-1.7 0-2.6-.8-2.6-2.5v-5.2h-1.3v-1.4zm3.4 30.8c4.2 0 5.5 3.7 5.5 7.3s-1.6 6.7-5.5 6.7c-2.4 0-4.5-1.6-5.2-3.9-.3-1.1-.5-2.3-.4-3.5 0-3.5 1.7-6.6 5.6-6.6zM156 218.9c0-1.7 1.7-2.6 3.3-2.6 1.4 0 2.7.7 3.4 2l-1.3.6c-.4-.8-1.2-1.2-2.1-1.2-.7 0-1.6.3-1.6 1.2 0 2.1 5.2.4 5.2 4-.1 1.9-1.7 2.7-3.5 2.7-1.6.1-3.1-.8-3.6-2.3l1.4-.6c.3.9 1.2 1.5 2.2 1.5.9 0 1.8-.3 1.8-1.3 0-2.1-5.2-.6-5.2-4zm-6.7-2.4h1.3v-1.8l1.8-.8v2.5h2v1.4h-2v5c0 .7.3 1.2 1.1 1.2.3 0 .7-.1 1-.2v1.4c-.4.3-.8.4-1.3.4-1.7 0-2.6-.8-2.6-2.5v-5.2h-1.3v-1.4zm4.9 30.8c4.2 0 5.5 3.7 5.5 7.3s-1.7 6.7-5.5 6.7c-2.4 0-4.5-1.6-5.2-3.9-.3-1.1-.5-2.3-.4-3.5 0-3.5 1.7-6.6 5.6-6.6zm-14.5-30.8h1.8v5.6c-.1 1 .6 2 1.6 2.1h.5c1.2.1 2.2-.8 2.3-2v-5.7h1.8v9h-1.8v-1.4c-.6 1-1.7 1.6-2.9 1.5-1.7.1-3.2-1.1-3.3-2.8v-6.3zm7.1 42.8l-2.4 4.1-1.2-.6 1.8-4.3 1.8.8zm-6.2-11.8v13.6h-2.1v-11.5l-2.9 1.9v-1.9l3.1-2.1h1.9zm-9.2-34.5c3.3-.1 6 2.5 6.1 5.7v.6c.2 3.2-2.2 6-5.4 6.3h-.6c-3.3.1-6.1-2.5-6.2-5.8v-.6c-.2-3.3 2.3-6 5.6-6.2h.5zm-6.2 41.5c1.7 0 3.9.1 4.4-2.1h-4.4V251h4.4c-.4-2.3-2.6-2.1-4.4-2.1v-1.4h8.8v1.4h-3.5c.7.5 1.1 1.3 1.3 2.1h2.2v1.4h-2.2c-.3 1.5-1.4 2.8-2.9 3.2l3.9 5.5h-2.5L127 256h-1.8v-1.5zm-.7 31.9c0-1.2.9-2.1 2.1-2.1H243c1.1 0 2.1.9 2.1 2v34.4c0 1.1-.9 2.1-2 2.1H126.6c-1.1 0-2.1-.9-2.1-2v-34.4z"/><path fill="#EDF3FF" d="M515.2 261.1c3.2 0 3.3-3.3 3.3-5.6s-.7-4.9-3.4-4.9c-3.1 0-3.4 3.3-3.4 5.6s.7 4.9 3.5 4.9zM502 250.6c-3.1 0-3.4 3.3-3.4 5.6s.7 4.9 3.5 4.9c3.2 0 3.3-3.3 3.3-5.6s-.7-4.9-3.4-4.9zM167.3 259.5c3.2 0 3.3-3.3 3.3-5.6s-.7-4.9-3.4-4.9c-3.1 0-3.4 3.3-3.4 5.6s.8 4.9 3.5 4.9zM131.5 224.1c2.8 0 4.1-2.3 4.1-4.9s-1.4-4.7-4.1-4.7c-2.9 0-4.1 2.2-4.1 4.8s1.5 4.8 4.1 4.8zM221 223.7c1.6 0 2.8-1.3 2.8-2.8v-.3c.2-1.4-.8-2.7-2.2-2.9h-.5c-1.8 0-2.7 1.4-2.7 3.1-.2 1.4.8 2.7 2.2 2.9h.4zM194.9 224.2c2 0 2.8-1.5 2.8-3.3s-.8-3.2-2.7-3.2-2.7 1.6-2.7 3.3.8 3.2 2.6 3.2zM436.2 222.9c0 1 .6 1.4 1.6 1.4 1.2.1 2.3-.7 2.4-1.9v-1.1h-1.1c-1.1 0-2.9.2-2.9 1.6zM284.8 217.7c-1.3-.1-2.4 1-2.5 2.3v.1h4.9c-.1-1.5-.8-2.4-2.4-2.4zM484.4 261.1c3.2 0 3.3-3.3 3.3-5.6s-.7-4.9-3.4-4.9c-3.1 0-3.4 3.3-3.4 5.6s.7 4.9 3.5 4.9zM463.8 217.7c-1.3 0-2.4 1.1-2.5 2.4h4.9c-.1-1.5-.8-2.4-2.4-2.4zM417.6 222.9c0 .8.6 1.4 1.4 1.4h.2c1.2.1 2.3-.7 2.4-1.9v-1.1h-1.1c-1.1 0-2.9.2-2.9 1.6zM154.2 259.5c3.2 0 3.3-3.3 3.3-5.6s-.7-4.9-3.4-4.9c-3.1 0-3.4 3.3-3.4 5.6s.7 4.9 3.5 4.9zM496.2 217.7c-1.3 0-2.4 1.1-2.5 2.4h4.9c-.1-1.5-.8-2.4-2.4-2.4zM260 224.2c1.9 0 2.7-1.5 2.7-3.3s-.9-3.2-2.7-3.2c-2 0-2.7 1.5-2.7 3.3s.8 3.2 2.7 3.2zM172.2 222.9c0 1 .6 1.4 1.6 1.4 1.2.1 2.3-.7 2.4-1.9v-1.1h-1.1c-1.1 0-2.9.2-2.9 1.6zM194.7 254.6c0 2.3.7 4.9 3.5 4.9 3.2 0 3.3-3.3 3.3-5.6s-.7-4.9-3.4-4.9c-3.1 0-3.4 3.3-3.4 5.6zM180.5 259.5c3.2 0 3.3-3.3 3.3-5.6s-.7-4.9-3.4-4.9c-3.1 0-3.4 3.3-3.4 5.6s.7 4.9 3.5 4.9zM449.1 224.2c2 0 2.6-1.5 2.6-3.3 0-1.6-.8-3.2-2.6-3.2-2 0-2.8 1.5-2.8 3.3-.3 1.5.7 2.9 2.2 3.2h.6zM506.2 224.2c2 0 2.8-1.5 2.8-3.3s-.8-3.2-2.7-3.2-2.7 1.6-2.7 3.3.8 3.2 2.6 3.2zM211.4 259.5c3.2 0 3.3-3.3 3.3-5.6s-.7-4.9-3.4-4.9c-3.1 0-3.4 3.3-3.4 5.6s.7 4.9 3.5 4.9zM400.3 214.7l-2 6.2h4z"/><path fill="#0C084E" d="M131.5 225.6c3.2.1 5.9-2.5 6-5.7v-.6c0-3.4-2.7-6.1-6-6.2-3.4 0-6.1 2.7-6.2 6.1-.2 3.3 2.3 6.2 5.6 6.4h.6zm0-11.1c2.7 0 4.1 2.2 4.1 4.7s-1.3 4.9-4.1 4.9c-2.6 0-4.2-2.2-4.1-4.8s1.2-4.8 4.1-4.8zM143 225.6c1.2.1 2.3-.5 2.9-1.5v1.4h1.8v-9h-1.8v5.4c.1 1.2-.8 2.2-2 2.3h-.3c-1 .1-2-.6-2.1-1.6v-6.1h-1.8v5.7c-.2 1.7 1 3.2 2.7 3.4h.6zM150.6 223.1c0 1.7.9 2.5 2.6 2.5.5 0 .9-.1 1.3-.4v-1.4c-.3.1-.7.2-1 .2-.8 0-1.1-.5-1.1-1.2v-5h2v-1.4h-2v-2.5l-1.8.8v1.8h-1.3v1.4h1.3v5.2zM159.4 224.2c-1 0-1.9-.6-2.2-1.5l-1.4.6c.5 1.5 2 2.4 3.6 2.3 1.8 0 3.4-.8 3.5-2.7 0-3.6-5.2-1.9-5.2-4 0-.9.9-1.2 1.6-1.2.9 0 1.7.4 2.1 1.2l1.3-.6c-.7-1.3-2-2-3.4-2-1.6 0-3.3.9-3.3 2.6 0 3.4 5.2 1.9 5.2 4 0 1-.9 1.3-1.8 1.3zM165.2 223.1c0 1.7.9 2.5 2.6 2.5.5 0 .9-.1 1.3-.4v-1.4c-.3.1-.7.2-1 .2-.8 0-1.1-.5-1.1-1.2v-5h2v-1.4h-2v-2.5l-1.8.8v1.8h-1.3v1.4h1.3v5.2zM170.4 222.9c0 1.8 1.3 2.7 3 2.7 1 0 2-.4 2.7-1.2v1h1.8v-5.9c0-2.2-1.4-3.3-3.5-3.3-1.6-.1-3 .8-3.7 2.2l1.5.6c.4-.8 1.2-1.4 2.1-1.4 1.7 0 1.9 1.1 1.9 2.5-2.1 0-5.8-.1-5.8 2.8zm5.8-.6c-.1 1.2-1.1 2.1-2.3 2h-.1c-1 0-1.6-.4-1.6-1.4 0-1.4 1.8-1.6 2.9-1.6h1.1v1zM182.3 220.1c-.1-1.3.9-2.3 2.1-2.4h.1c1.1-.1 2 .7 2.1 1.7v6h1.8v-5.5c0-2.1-1-3.6-3.2-3.6-1.2-.1-2.3.6-2.9 1.6v-1.4h-1.8v9h1.8v-5.4zM194.5 225.6c1.2 0 2.4-.6 3.1-1.6v1.5h1.8v-13.2h-1.8v5.6c-.6-1-1.8-1.7-3-1.6-2.6 0-4.1 2.2-4.1 4.7s1.3 4.6 4 4.6zm.5-7.9c1.9 0 2.7 1.4 2.7 3.2s-.8 3.3-2.8 3.3c-1.8 0-2.6-1.5-2.6-3.2s.7-3.3 2.7-3.3zM203 214.8c.6 0 1.1-.5 1.1-1.1s-.5-1.1-1.1-1.1c-.6 0-1.1.5-1.1 1.1 0 .6.5 1.1 1.1 1.1zM202.1 216.5h1.8v9h-1.8zM208.4 220.1c-.1-1.3.9-2.3 2.1-2.4h.1c1.1-.1 2 .7 2.1 1.7v6h1.8v-5.5c0-2.1-1-3.6-3.2-3.6-1.2-.1-2.3.6-2.9 1.6v-1.4h-1.8v9h1.8v-5.4zM220.6 225.2c1.3 0 2.4-.7 3.1-1.7v1.3c0 1.8-1.1 2.6-2.8 2.6-1.1.1-2.1-.5-2.7-1.4l-1.4.6c.7 1.7 2.4 2.2 4.1 2.2 2.5 0 4.5-1.2 4.6-3.8v-8.4h-1.8v1.4c-.6-1-1.8-1.7-3-1.6-2.3 0-4.1 1.9-4.1 4.2v.2c0 2.4 1.5 4.4 4 4.4zm.5-7.5c1.4-.1 2.6 1 2.7 2.4v.5c.2 1.5-1 2.9-2.5 3.1h-.3c-1.4 0-2.6-1.1-2.6-2.5v-.4c0-1.7.9-3.1 2.7-3.1zM231.7 213.2h1.9v12.3h-1.9zM238.2 220.1c-.1-1.3.9-2.3 2.1-2.4h.1c1.1-.1 2 .7 2.1 1.7v6h1.8v-5.5c0-2.1-1-3.6-3.2-3.6-1.2-.1-2.3.6-2.9 1.6v-1.4h-1.8v9h1.8v-5.4zM251.3 225.5l3.2-9h-1.9l-2.4 7.2-2.4-7.2h-1.9l3.2 9zM260 225.6c2.5.1 4.6-1.9 4.7-4.4v-.2c0-2.5-2-4.6-4.5-4.7-2.5 0-4.6 2-4.7 4.6-.2 2.4 1.6 4.5 4 4.7h.5zm0-7.9c1.8 0 2.7 1.5 2.7 3.2s-.8 3.3-2.7 3.3-2.7-1.4-2.7-3.2.7-3.3 2.7-3.3zM267.5 214.8c.6 0 1.1-.5 1.1-1.1 0-.6-.5-1.1-1.1-1.1s-1.1.5-1.1 1.1c0 .6.5 1.1 1.1 1.1zM266.6 216.5h1.8v9h-1.8zM275 225.6c1.8.1 3.4-1 4-2.7l-1.4-.6c-.3 1.1-1.3 1.9-2.5 1.9-1.9 0-2.7-1.4-2.7-3.1s.8-3.3 2.7-3.3c1.1 0 2.1.7 2.5 1.7l1.5-.7c-.6-1.6-2.3-2.6-4-2.5-2.4-.1-4.4 1.8-4.5 4.3v.3c0 2.7 1.6 4.7 4.4 4.7zM284.8 225.6c1.6.1 3.2-.7 3.9-2.2l-1.5-.6c-.5.9-1.4 1.4-2.4 1.4-1.4.1-2.6-1-2.7-2.4v-.5h6.7v-.1c0-2.7-1.1-4.9-4.1-4.9-2.4-.1-4.4 1.8-4.4 4.2v.4c-.2 2.4 1.6 4.5 4 4.7h.5zm0-7.9c1.6 0 2.3.9 2.4 2.4h-4.9c0-1.3 1.1-2.4 2.4-2.4h.1zM293.8 224.2c-1 0-1.9-.6-2.2-1.5l-1.4.6c.5 1.5 2 2.4 3.6 2.3 1.8 0 3.5-.8 3.5-2.7 0-3.6-5.2-1.9-5.2-4 0-.9.9-1.2 1.6-1.2.9 0 1.7.4 2.1 1.2l1.3-.6c-.7-1.3-2-2-3.4-2-1.6 0-3.3.9-3.3 2.6 0 3.4 5.2 1.9 5.2 4 0 1-.9 1.3-1.8 1.3zM397.8 222.4h5l1 3.1h1.9l-4.1-12.3h-2.5l-4.1 12.3h1.8l1-3.1zm2.5-7.7l2 6.2h-4l2-6.2zM411.8 225.5l3.2-9h-1.9l-2.4 7.2-2.4-7.2h-1.9l3.2 9zM415.9 222.9c0 1.8 1.3 2.7 3 2.7 1 0 2-.4 2.7-1.2v1h1.8v-5.9c0-2.2-1.4-3.3-3.5-3.3-1.6-.1-3 .8-3.7 2.2l1.5.6c.4-.8 1.2-1.4 2.1-1.4 1.7 0 1.9 1.1 1.9 2.5-2.1 0-5.8-.1-5.8 2.8zm5.7-.6c-.1 1.2-1.1 2.1-2.3 2h-.1c-.8.1-1.5-.5-1.6-1.2v-.2c0-1.4 1.8-1.6 2.9-1.6h1.1v1zM426.1 216.5h1.7v9h-1.7zM426.9 214.8c.5.1 1-.3 1.1-.9v-.2c0-.6-.5-1.1-1.1-1.1s-1.1.5-1.1 1.1c0 .6.5 1.1 1.1 1.1zM432.4 211.9l-1.8.8v12.8h1.8zM434.4 222.9c0 1.8 1.3 2.7 3 2.7 1 0 2-.4 2.7-1.2v1h1.8v-5.9c0-2.2-1.4-3.3-3.5-3.3-1.6-.1-3 .8-3.7 2.2l1.5.6c.4-.8 1.2-1.4 2.1-1.4 1.7 0 1.9 1.1 1.9 2.5-2.1 0-5.8-.1-5.8 2.8zm5.8-1.6v1c-.1 1.2-1.1 2.1-2.3 2h-.1c-1 0-1.6-.4-1.6-1.4 0-1.4 1.8-1.6 2.9-1.6h1.1zM446.3 224c.7 1.1 1.9 1.7 3.1 1.6 2.7 0 4.1-2.1 4.1-4.6s-1.4-4.7-4.1-4.7c-1.3 0-2.4.7-3.1 1.7v-5.7h-1.8v13.2h1.8V224zm2.8-6.3c1.8 0 2.6 1.6 2.6 3.2 0 1.8-.6 3.3-2.6 3.3-1.5.1-2.8-1.1-2.8-2.6v-.6c0-1.8.8-3.3 2.8-3.3zM457.4 211.9l-1.8.8v12.8h1.8zM463.9 225.6c1.6.1 3.2-.7 3.9-2.2l-1.5-.6c-.5.9-1.4 1.4-2.4 1.4-1.4.1-2.6-1-2.7-2.4v-.5h6.7v-.1c0-2.7-1.1-4.9-4.1-4.9-2.4-.1-4.4 1.8-4.4 4.2v.4c-.2 2.4 1.6 4.5 4 4.7h.5zm-.1-7.9c1.6 0 2.3.9 2.4 2.4h-4.9c.1-1.3 1.2-2.4 2.5-2.4zM478.8 225.6c2.3 0 4.3-1.4 5.1-3.5l-1.5-.7c-.5 1.6-2 2.6-3.6 2.7-2.7 0-4-2.2-4-4.7s1.2-4.9 4-4.9c1.6 0 3 1 3.5 2.5l1.6-.7c-.8-2.1-2.9-3.5-5.2-3.4-3.6 0-5.9 2.9-5.9 6.3 0 3.8 2.1 6.4 6 6.4zM487.7 220.7c0-2 1.1-2.6 2.9-2.6v-1.7c-1.2 0-2.4.7-2.9 1.8v-1.7h-1.8v9h1.8v-4.8zM496.3 225.6c1.6.1 3.2-.7 3.9-2.2l-1.5-.6c-.5.9-1.4 1.4-2.4 1.4-1.4.1-2.6-1-2.7-2.4v-.5h6.7v-.1c0-2.7-1.1-4.9-4.1-4.9-2.4-.1-4.4 1.8-4.4 4.2v.4c-.2 2.4 1.6 4.5 4 4.7h.5zm-.1-7.9c1.6 0 2.3.9 2.4 2.4h-4.9c.1-1.3 1.2-2.4 2.5-2.4zM505.8 225.6c1.2 0 2.4-.6 3.1-1.6v1.5h1.8v-13.2h-1.8v5.6c-.6-1-1.8-1.7-3-1.6-2.6 0-4.1 2.2-4.1 4.7s1.3 4.6 4 4.6zm.5-7.9c1.9 0 2.7 1.4 2.7 3.2s-.8 3.3-2.8 3.3c-1.8 0-2.6-1.5-2.6-3.2s.7-3.3 2.7-3.3zM513.4 216.5h1.8v9h-1.8zM514.3 214.8c.6 0 1.1-.5 1.1-1.1s-.5-1.1-1.1-1.1c-.6 0-1.1.5-1.1 1.1 0 .6.5 1.1 1.1 1.1zM518.2 223.1c0 1.7.9 2.5 2.6 2.5.5 0 .9-.1 1.3-.4v-1.4c-.3.1-.7.2-1 .2-.8 0-1.1-.5-1.1-1.2v-5h2v-1.4h-2v-2.5l-1.8.8v1.8h-1.3v1.4h1.3v5.2zM527 224.2c-1 0-1.9-.6-2.2-1.5l-1.4.6c.5 1.5 2 2.4 3.6 2.3 1.8 0 3.5-.8 3.5-2.7 0-3.6-5.2-1.9-5.2-4 0-.9.9-1.2 1.6-1.2.9 0 1.7.4 2.1 1.2l1.3-.6c-.7-1.3-2-2-3.4-2-1.6 0-3.3.9-3.3 2.6 0 3.4 5.2 1.9 5.2 4 0 1-.9 1.3-1.8 1.3z"/><path fill="#0C7EE2" d="M130.3 261.1h2.5l-3.9-5.5c1.5-.4 2.6-1.7 2.9-3.2h2.2V251h-2.2c-.2-.8-.6-1.6-1.3-2.1h3.5v-1.4h-8.8v1.4c1.8 0 4-.2 4.4 2.1h-4.4v1.4h4.4c-.5 2.2-2.7 2.1-4.4 2.1v1.5h1.8l3.3 5.1zM135.6 251.5l2.9-1.9v11.5h2.1v-13.6h-1.9l-3.1 2.1zM143.2 262.8l1.2.6 2.4-4.1-1.8-.8zM154.2 261.3c3.8 0 5.4-3.2 5.5-6.7s-1.3-7.3-5.5-7.3c-3.9 0-5.6 3.1-5.6 6.6-.1 1.2.1 2.4.4 3.5.7 2.3 2.8 3.9 5.2 3.9zm-.1-12.3c2.7 0 3.4 2.7 3.4 4.9s-.1 5.6-3.3 5.6c-2.8 0-3.5-2.6-3.5-4.9s.3-5.6 3.4-5.6zM162.1 257.4c.7 2.3 2.8 3.9 5.2 3.9 3.9 0 5.5-3.2 5.5-6.7s-1.3-7.3-5.5-7.3c-3.9 0-5.6 3.1-5.6 6.6-.1 1.2.1 2.4.4 3.5zm5.1-8.4c2.7 0 3.4 2.7 3.4 4.9s-.1 5.6-3.3 5.6c-2.7 0-3.4-2.6-3.5-4.9s.3-5.6 3.4-5.6zM174.9 253.9c-.1 1.2.1 2.4.4 3.5.7 2.3 2.8 3.9 5.2 3.9 3.9 0 5.5-3.2 5.5-6.7s-1.3-7.3-5.5-7.3c-3.9 0-5.6 3.1-5.6 6.6zm5.5-4.9c2.7 0 3.4 2.7 3.4 4.9s-.1 5.6-3.3 5.6c-2.8 0-3.4-2.6-3.5-4.9s.3-5.6 3.4-5.6zM187.9 259.8c0 .8.6 1.4 1.3 1.4h.1c.8-.1 1.3-.6 1.4-1.4 0-.7-.7-1.3-1.4-1.3-.7-.1-1.3.5-1.4 1.2v.1zM192.6 253.9c-.1 1.2.1 2.4.4 3.5.7 2.3 2.8 3.9 5.2 3.9 3.8 0 5.5-3.2 5.5-6.7s-1.3-7.3-5.5-7.3c-3.9 0-5.6 3.1-5.6 6.6zm8.9 0c0 2.3-.1 5.6-3.3 5.6-2.8 0-3.5-2.6-3.5-4.9s.3-5.6 3.4-5.6c2.7 0 3.4 2.7 3.4 4.9zM211.3 261.3c3.9 0 5.5-3.2 5.5-6.7s-1.3-7.3-5.5-7.3c-3.9 0-5.6 3.1-5.6 6.6-.1 1.2.1 2.4.4 3.5.7 2.3 2.8 3.9 5.2 3.9zm0-12.3c2.7 0 3.4 2.7 3.4 4.9s-.1 5.6-3.3 5.6c-2.8 0-3.5-2.6-3.5-4.9s.3-5.6 3.4-5.6z"/><path fill="#49B456" d="M473.1 262.6h2.5l-3.9-5.5c1.5-.4 2.7-1.6 3-3.2h2.2v-1.4h-2.2c-.2-.8-.6-1.6-1.3-2.1h3.5V249h-8.8v1.4c1.8 0 4-.2 4.4 2.1h-4.4v1.4h4.4c-.5 2.2-2.7 2.1-4.4 2.1v1.5h1.7l3.3 5.1zM478.8 255.4c-.1 1.2.1 2.4.4 3.5.7 2.3 2.8 3.9 5.2 3.9 3.8 0 5.5-3.2 5.5-6.7s-1.3-7.3-5.5-7.3c-3.9 0-5.6 3.1-5.6 6.6zm5.5-4.8c2.7 0 3.4 2.7 3.4 4.9s-.1 5.6-3.3 5.6c-2.8 0-3.5-2.7-3.5-4.9s.3-5.6 3.4-5.6zM493.2 262.7c.8-.1 1.3-.6 1.4-1.4 0-.7-.7-1.3-1.4-1.3-.7-.1-1.3.5-1.4 1.2v.1c0 .8.6 1.4 1.4 1.4zM502 248.8c-3.9 0-5.6 3.1-5.6 6.6-.1 1.2.1 2.4.4 3.5.7 2.3 2.8 3.9 5.2 3.9 3.9 0 5.5-3.2 5.5-6.7s-1.3-7.3-5.5-7.3zm.1 12.3c-2.8 0-3.5-2.7-3.5-4.9s.3-5.6 3.4-5.6c2.7 0 3.4 2.7 3.4 4.9s-.1 5.6-3.3 5.6zM510 258.9c.7 2.3 2.8 3.9 5.2 3.9 3.9 0 5.5-3.2 5.5-6.7s-1.3-7.3-5.5-7.3c-3.9 0-5.6 3.1-5.6 6.6-.1 1.2.1 2.4.4 3.5zm5.1-8.3c2.7 0 3.4 2.7 3.4 4.9s-.1 5.6-3.3 5.6c-2.8 0-3.4-2.7-3.5-4.9s.3-5.6 3.4-5.6z"/><path fill="#2785E2" d="M126.6 322.8H243c1.1 0 2.1-.9 2.1-2v-34.4c0-1.1-.9-2.1-2-2.1H126.6c-1.2 0-2.1.9-2.1 2.1v34.3c0 1.1.9 2.1 2 2.1h.1zm82.2-24.1l2.1 7.1 2.1-7.1h1.6l2 7.1 2.1-7.1h1.8l-3 9.4h-2l-1.7-6.6-2 6.6h-2l-3-9.4h2zm-7.8 0c2.7-.1 4.9 2 5 4.7.1 2.7-2 4.9-4.7 5-2.7.1-4.9-2-5-4.7v-.2c-.1-2.5 1.8-4.7 4.3-4.8h.4zm-17.2-3.3h2.5l5.9 9.9v-9.9h1.9v12.8h-2.2l-6.3-10.4v10.4h-1.8v-12.8zm-12.3 3.4l2.6 6.4 2.4-6.4h1.9l-5.1 12.6h-1.8l1.7-4.2-3.7-8.4h2zm-7.4 1.3c-1 0-1.8.6-2.2 1.5l-1.5-.7c.7-1.5 2.2-2.4 3.9-2.3 2.1 0 3.7 1.2 3.7 3.4v6.1h-1.9v-1.2c-.6 1-1.7 1.6-2.9 1.5-1.7 0-3.1-.9-3.1-2.8 0-3 3.9-2.9 6-2.9 0-1.5-.2-2.6-2-2.6zm-14.1-4.7h4.2c2.6 0 4.6 1.1 4.6 3.9 0 3.2-2.5 3.9-5.2 3.9H152v5h-2v-12.8z"/><path fill="#2785E2" d="M161.9 305.6c0 1 .7 1.4 1.7 1.4 1.2.1 2.4-.8 2.5-2v-1.1h-1.2c-1.1 0-3 .2-3 1.7zM201 306.9c2 0 2.8-1.6 2.8-3.4s-.9-3.3-2.8-3.3-2.8 1.6-2.8 3.4.8 3.3 2.8 3.3zM156.9 299.3c0-1.7-1-2.3-2.6-2.3H152v4.7h2.3c1.6 0 2.6-.7 2.6-2.4z"/><path fill="#F6F6F6" d="M152 303.2h1.6c2.7 0 5.2-.7 5.2-3.9 0-2.8-2-3.9-4.6-3.9H150v12.8h2v-5zm0-6.2h2.3c1.6 0 2.6.6 2.6 2.3s-1 2.4-2.6 2.4H152V297zM160.1 305.6c0 1.9 1.4 2.8 3.1 2.8 1.2.1 2.3-.5 2.9-1.5v1.2h1.9V302c0-2.2-1.6-3.4-3.7-3.4-1.7-.1-3.2.8-3.9 2.3l1.5.7c.4-.9 1.2-1.5 2.2-1.5 1.8 0 2 1.1 2 2.6-2.1 0-6-.1-6 2.9zm6-.7c-.1 1.3-1.2 2.2-2.4 2.1h-.1c-1 0-1.7-.4-1.7-1.4 0-1.5 1.9-1.7 3-1.7h1.2v1zM171.5 311.4h1.8l5.1-12.6h-1.9l-2.4 6.4-2.6-6.4h-2l3.7 8.4zM185.6 297.8l6.3 10.4h2.2v-12.8h-1.9v9.9l-5.9-9.9h-2.5v12.8h1.8zM201 308.4c2.7 0 4.9-2.2 4.9-4.9s-2.2-4.9-4.9-4.9-4.9 2.2-4.9 4.9 2.2 4.9 4.9 4.9zm0-8.2c1.9 0 2.8 1.5 2.8 3.3s-.8 3.4-2.8 3.4-2.8-1.5-2.8-3.3.8-3.4 2.8-3.4zM211.8 308.1l2-6.6 1.7 6.6h2l3-9.4h-1.8l-2.1 7.1-2-7.1H213l-2.1 7.1-2.1-7.1h-2l3 9.4z"/><path fill="#ECECEC" d="M997.1 359.3v34.6h-.4V501c0 1.7-1.3 3-3 3H101.6c-1.7 0-3-1.3-3-3V393.9h-.5v-34.5-.2c-.3.6-.5 1.3-.5 1.9V501c0 2.2 1.8 4 4 4h892.1c2.2 0 4-1.8 4-4V361.1c0-.8-.2-1.5-.6-2.2v.4zM995.4 357.6h.2c-.6-.3-1.3-.5-1.9-.5H101.6c-.7 0-1.4.2-2 .5h895.8z"/><path fill="#52B45F" d="M156.5 419.1c-17.2 0-31.1 13.9-31.1 31.1s13.9 31.1 31.1 31.1 31.1-13.9 31.1-31.1c0-17.2-13.9-31.1-31.1-31.1zm10.6 17.4l-14.4 21.9h14v4.3h-21.3v-2.1l14.8-21.9h-13.3v-4.3h20.2v2.1z"/><path fill="#FFF" d="M146.9 438.7h13.3l-14.8 21.9v2.1h21.3v-4.3h-14l14.4-21.9v-2.1h-20.2z"/><path fill="#F1F2F3" d="M210.9 374.2c-1.3-.1-2.4.9-2.5 2.2v.2h4.9c-.1-1.5-.8-2.4-2.4-2.4zM257.4 380.7c1.9 0 2.7-1.5 2.7-3.3s-.9-3.2-2.7-3.2c-2 0-2.7 1.5-2.7 3.3s.8 3.2 2.7 3.2zM632.4 382.5c2 0 2.8-1.5 2.8-3.3s-.8-3.2-2.7-3.2-2.7 1.6-2.7 3.3.8 3.2 2.6 3.2zM224.3 379.4c0 1 .7 1.4 1.6 1.4 1.2.1 2.3-.7 2.4-1.9v-1.1h-1.1c-1.1 0-2.9.2-2.9 1.6zM310.3 374.2c-1.5-.1-2.3 1-2.5 2.4h4.9c-.1-1.5-.8-2.4-2.4-2.4zM142.4 380.7c1.9 0 2.7-1.5 2.7-3.3s-.9-3.2-2.7-3.2c-2 0-2.7 1.5-2.7 3.3s.8 3.2 2.7 3.2zM202.9 375.7c0-2.9-1.4-4.5-4.4-4.5h-1.8v9.2h1.8c3.1 0 4.4-1.8 4.4-4.7zM670.1 381.2c0 .8.6 1.4 1.4 1.4h.2c1.2.1 2.3-.7 2.4-1.9v-1.1H673c-1.1 0-2.9.2-2.9 1.6zM166.9 379.4c0 1 .6 1.4 1.6 1.4 1.2.1 2.3-.7 2.4-1.9v-1.1h-1.1c-1.1 0-2.9.2-2.9 1.6zM612 376c-1.4 0-2.5 1-2.5 2.4h4.9c-.1-1.5-.8-2.4-2.4-2.4z"/><path fill="#F1F2F3" d="M98.1 393.9h462.1v-34.1h1v34.1h435.9v-34.6-.4c-.2-.7-.7-1.2-1.4-1.3H99.6c-.8.1-1.4.7-1.5 1.5V393.9zm582.2-10.1h-1.8v-9h1.8v9zm2.8-12.8l1.8-.8v13.6h-1.8V371zm-3.7-.1c.6 0 1.1.5 1.1 1.1s-.5 1.1-1.1 1.1c-.6 0-1.1-.5-1.1-1.1 0-.6.5-1.1 1.1-1.1zm-7.1 5c-.9 0-1.7.6-2.1 1.4l-1.5-.6c.7-1.4 2.1-2.3 3.7-2.2 2.1 0 3.5 1.1 3.5 3.3v5.9h-1.8v-1.1c-.6.9-1.6 1.4-2.7 1.3-1.7 0-3-.9-3-2.7 0-2.9 3.7-2.8 5.8-2.8 0-1.4-.2-2.5-1.9-2.5zm-19.1-1.2h1.8v1.4c.5-1 1.5-1.5 2.6-1.5 1.2-.1 2.3.6 2.8 1.7.6-1.1 1.8-1.7 3-1.7 2.1 0 3.2 1.5 3.2 3.5v5.6h-1.8v-5.6c0-1.3-.6-2-1.9-2-1.1 0-2 .9-2 2V383.7h-1.8v-5.6c0-1.3-.6-2-1.9-2-1.1-.1-2.1.7-2.2 1.8V383.7h-1.8v-9zm-10.1-3.3h7.8v1.5H645v3.8h4.8v1.5H645v4h6.2v1.5h-8.1v-12.3zm-11 3.2c1.2-.1 2.4.6 3 1.6v-5.6h1.8v13.2h-1.8v-1.5c-.7 1-1.9 1.6-3.1 1.6-2.7 0-4-2.1-4-4.6s1.5-4.7 4.1-4.7zm-14 .2h1.8v1.4c.6-1 1.7-1.7 2.9-1.6 2.2 0 3.2 1.5 3.2 3.6v5.5h-1.8v-5.5c.2-1.1-.6-2-1.6-2.2h-.5c-1.3 0-2.2 1.1-2.2 2.3v5.5h-1.8v-9zm-6.1-.2c3 0 4.1 2.2 4.1 4.9v.1h-6.7c-.2 1.4.8 2.7 2.2 2.9h.5c1 0 1.9-.5 2.4-1.4l1.5.6c-.8 1.4-2.3 2.3-3.9 2.2-2.4.1-4.4-1.8-4.5-4.2v-.5c-.2-2.4 1.6-4.4 4-4.6h.4zm-14.9.1c0-2.2 2.1-3.4 4.1-3.4 1.9-.1 3.7 1 4.4 2.8l-1.5.7c-.4-1.2-1.6-2-2.9-2-1.1 0-2.3.5-2.3 1.8 0 3.4 7 .6 7 5.6.1 2.4-2.1 3.7-4.3 3.7s-4-.9-4.7-3.2l1.6-.7c.3 1.5 1.6 2.5 3.1 2.4 1.2.1 2.4-.8 2.5-2v-.1c0-3.4-7-.7-7-5.6zM234.5 382h-1.8v-9h1.8v9zm81.9-9h1.8v1.7c.5-1.1 1.7-1.8 2.9-1.8v1.7c-1.8-.1-2.9.6-2.9 2.6v4.8h-1.8v-9zm-6.1-.2c3 0 4.1 2.2 4.1 4.9v.1h-6.7c-.2 1.4.8 2.7 2.2 2.9h.5c1 0 1.9-.5 2.4-1.4l1.5.6c-.8 1.4-2.3 2.3-3.9 2.2-2.4.1-4.4-1.8-4.5-4.2v-.5c-.2-2.4 1.6-4.4 4-4.6h.4zm-12.8-4.1h1.8v8.3l3.6-4h2l-3.8 4.1 4.1 4.9h-2.1l-3.8-4.6v4.5h-1.8v-13.2zm-4.5.4l1.8-.8v13.6H293v-12.8zm-8.4 3.9l2.5 6.1 2.3-6.1h1.8l-4.9 12.1h-1.8l1.7-4-3.5-8.1h1.9zm-12 8.2l6.8-10h-6.2v-1.5h8.7v.8l-6.7 9.9h6.6v1.6h-9.2v-.8zm-9.5-8.2h1.3c0-2.2.1-4.3 2.9-4.3.4 0 .9.1 1.3.2l-.6 1.3c-.2 0-.4-.1-.6-.1-1 0-1.3.7-1.3 1.6v1.3h2.1v1.4h-2.1v7.6h-1.8v-7.6h-1.2V373zm-5.6-.2c2.5-.1 4.5 1.8 4.6 4.3v.4c0 2.6-2.1 4.6-4.7 4.6-2.4.1-4.4-1.8-4.5-4.2v-.5c-.1-2.4 1.8-4.5 4.2-4.6h.4zm-16.2 2.6c0-1.7 1.7-2.6 3.3-2.6 1.4 0 2.7.7 3.4 2l-1.3.6c-.4-.8-1.2-1.2-2.1-1.2-.7 0-1.6.3-1.6 1.2 0 2.1 5.2.4 5.2 4-.1 1.9-1.7 2.7-3.5 2.7-1.6.1-3.1-.8-3.6-2.3l1.4-.6c.3.9 1.2 1.5 2.2 1.5.9 0 1.8-.3 1.8-1.3 0-2.1-5.2-.6-5.2-4zm-4-6.3l1.8-.8v13.6h-1.8v-12.8zm-3.7 0c.6 0 1.1.5 1.1 1.1s-.5 1.1-1.1 1.1c-.6 0-1.1-.5-1.1-1.1 0-.6.5-1.1 1.1-1.1zm-7.1 5c-.9 0-1.7.6-2.1 1.4l-1.5-.6c.7-1.4 2.1-2.3 3.7-2.2 2.1 0 3.5 1.1 3.5 3.3v5.9h-1.8v-1.1c-.6.9-1.6 1.4-2.7 1.3-1.7 0-3-.9-3-2.7 0-2.9 3.7-2.8 5.8-2.8 0-1.4-.2-2.5-1.9-2.5zm-10.4-1.1h1.3v-1.8l1.8-.8v2.5h2v1.4h-2v5c0 .7.3 1.2 1.1 1.2.3 0 .7-.1 1-.2v1.4c-.4.3-.9.4-1.4.4-1.7 0-2.6-.8-2.6-2.5v-5.2h-1.2V373zm-5.3-.2c3 0 4.1 2.2 4.1 4.9v.1h-6.7c-.2 1.4.8 2.7 2.2 2.9h.5c1 0 1.9-.5 2.4-1.4l1.5.6c-.7 1.5-2.3 2.3-3.9 2.2-2.4.1-4.4-1.8-4.5-4.2v-.5c-.2-2.4 1.6-4.4 4-4.6h.4zm-16-3.1h3.9c4 0 6.3 2.2 6.3 6.2s-2.5 6.1-6.4 6.1h-3.8v-12.3zm-10.7 3.3h1.3v-1.8l1.8-.8v2.5h2v1.4h-2v5c0 .7.3 1.2 1.1 1.2.3 0 .7-.1 1-.2v1.4c-.4.3-.8.4-1.3.4-1.7 0-2.6-.8-2.6-2.5v-5.2h-1.3V373zm-5-.2c1.7-.1 3.4.9 4 2.5l-1.5.7c-.4-1-1.4-1.7-2.5-1.7-1.9 0-2.7 1.7-2.7 3.3s.8 3.1 2.7 3.1c1.2 0 2.2-.8 2.5-1.9l1.4.6c-.5 1.7-2.2 2.9-4 2.7-2.8 0-4.4-2-4.4-4.7-.1-2.4 1.8-4.5 4.2-4.6h.3zm-10.1 1.3c-.9 0-1.7.6-2.1 1.4l-1.5-.6c.7-1.4 2.1-2.3 3.7-2.2 2.1 0 3.5 1.1 3.5 3.3v5.9h-1.8v-1.1c-.6.9-1.6 1.4-2.7 1.3-1.7 0-3-.9-3-2.7 0-2.9 3.7-2.8 5.8-2.8 0-1.4-.2-2.5-1.9-2.5zm-10.4-1.1h1.3v-1.8l1.8-.8v2.5h2v1.4h-2v5c0 .7.3 1.2 1.1 1.2.3 0 .7-.1 1-.2v1.4c-.4.3-.8.4-1.3.4-1.7 0-2.6-.8-2.6-2.5v-5.2h-1.3V373zm-9.6 0h1.8v1.4c.6-1 1.7-1.7 2.9-1.6 2.2 0 3.2 1.5 3.2 3.6v5.5h-1.8v-5.5c.2-1.1-.6-2-1.6-2.2h-.5c-1.3 0-2.2 1.1-2.2 2.3v5.5H149v-9zm-6.5-.2c2.5-.1 4.5 1.8 4.6 4.3v.4c0 2.5-2 4.6-4.5 4.6h-.2c-2.4.1-4.4-1.8-4.5-4.2v-.5c-.1-2.4 1.8-4.5 4.2-4.6h.4zm-11.3-3.4c2.3-.1 4.4 1.3 5.2 3.4l-1.6.7c-.5-1.5-1.9-2.5-3.5-2.5-2.8 0-4 2.4-4 4.9s1.3 4.7 4 4.7c1.6-.1 3.1-1.1 3.6-2.7l1.5.7c-.8 2.2-2.8 3.6-5.1 3.5-3.9 0-6-2.6-6-6.4 0-3.4 2.3-6.3 5.9-6.3z"/><path fill="#0C084E" d="M131.3 382.1c2.3.1 4.3-1.3 5.1-3.5l-1.5-.7c-.5 1.6-2 2.6-3.6 2.7-2.7 0-4-2.2-4-4.7s1.2-4.9 4-4.9c1.6 0 3 1 3.5 2.5l1.6-.7c-.8-2.1-2.9-3.5-5.2-3.4-3.6 0-5.9 2.9-5.9 6.3 0 3.8 2.1 6.4 6 6.4zM142.4 382.1c2.5.1 4.6-1.9 4.7-4.4v-.2c0-2.5-2-4.6-4.5-4.6s-4.6 2-4.7 4.5c-.2 2.4 1.6 4.5 4 4.7h.5zm0-7.9c1.8 0 2.7 1.5 2.7 3.2s-.8 3.3-2.7 3.3-2.7-1.4-2.7-3.2.7-3.3 2.7-3.3zM150.8 376.6c-.1-1.3.9-2.3 2.1-2.4h.1c1.1-.1 2 .7 2.1 1.7v6h1.8v-5.5c0-2.1-1-3.6-3.2-3.6-1.2-.1-2.3.6-2.9 1.6V373H149v9h1.8v-5.4zM159.9 379.6c0 1.7.9 2.5 2.6 2.5.5 0 .9-.1 1.3-.4v-1.4c-.3.1-.7.2-1 .2-.8 0-1.1-.5-1.1-1.2v-5h2v-1.4h-2v-2.5l-1.8.8v1.8h-1.3v1.4h1.3v5.2zM165.1 379.4c0 1.8 1.3 2.7 3 2.7 1.1.1 2.1-.4 2.7-1.3v1.1h1.8V376c0-2.2-1.4-3.3-3.5-3.3-1.6-.1-3 .8-3.7 2.2l1.5.6c.4-.8 1.2-1.4 2.1-1.4 1.7 0 1.9 1.1 1.9 2.5-2.1 0-5.8-.1-5.8 2.8zm5.8-.6c-.1 1.2-1.1 2.1-2.3 2h-.1c-1 0-1.6-.4-1.6-1.4 0-1.4 1.8-1.6 2.9-1.6h1.1v1zM179 382.1c1.8.2 3.5-1 4-2.7l-1.4-.6c-.3 1.1-1.3 1.9-2.5 1.9-1.9 0-2.7-1.4-2.7-3.1s.8-3.3 2.7-3.3c1.1 0 2.1.7 2.5 1.7l1.5-.7c-.6-1.6-2.3-2.6-4-2.5-2.4-.1-4.4 1.8-4.5 4.3v.3c0 2.7 1.6 4.7 4.4 4.7zM185.4 379.6c0 1.7.9 2.5 2.6 2.5.5 0 .9-.1 1.3-.4v-1.4c-.3.1-.7.2-1 .2-.8 0-1.1-.5-1.1-1.2v-5h2v-1.4h-2v-2.5l-1.8.8v1.8h-1.3v1.4h1.3v5.2zM205 375.9c0-4-2.3-6.2-6.3-6.2h-3.9V382h3.8c3.9 0 6.3-2.2 6.4-6.1zm-8.3 4.5v-9.2h1.8c3 0 4.4 1.6 4.4 4.5s-1.3 4.7-4.4 4.7h-1.8zM210.9 382.1c1.6.1 3.2-.7 3.9-2.2l-1.5-.6c-.5.9-1.4 1.4-2.4 1.4-1.4.1-2.6-1-2.7-2.4v-.5h6.7v-.1c0-2.7-1.1-4.9-4.1-4.9-2.4-.1-4.4 1.8-4.4 4.2v.4c-.2 2.4 1.6 4.5 4 4.7h.5zm0-7.9c1.6 0 2.3.9 2.4 2.4h-4.9c0-1.3 1-2.4 2.3-2.4h.2zM217.3 379.6c0 1.7.9 2.5 2.6 2.5.5 0 1-.1 1.4-.4v-1.4c-.3.1-.7.2-1 .2-.8 0-1.1-.5-1.1-1.2v-5h2v-1.4h-2v-2.5l-1.8.8v1.8h-1.3v1.4h1.2v5.2zM222.6 379.4c0 1.8 1.3 2.7 3 2.7 1.1.1 2.1-.4 2.7-1.3v1.1h1.8V376c0-2.2-1.4-3.3-3.5-3.3-1.6-.1-3 .8-3.7 2.2l1.5.6c.4-.8 1.2-1.4 2.1-1.4 1.7 0 1.9 1.1 1.9 2.5-2.1 0-5.8-.1-5.8 2.8zm5.7-.6c-.1 1.2-1.1 2.1-2.3 2h-.1c-.9 0-1.6-.4-1.6-1.4 0-1.4 1.8-1.6 2.9-1.6h1.1v1zM232.7 373h1.8v9h-1.8zM233.6 371.3c.6 0 1.1-.5 1.1-1.1s-.5-1.1-1.1-1.1c-.6 0-1.1.5-1.1 1.1 0 .6.5 1.1 1.1 1.1zM239.1 368.3l-1.8.8v12.8h1.8zM244.7 380.7c-1 0-1.9-.6-2.2-1.5l-1.4.6c.5 1.5 2 2.4 3.6 2.3 1.8 0 3.4-.8 3.5-2.7 0-3.6-5.2-1.9-5.2-4 0-.9.9-1.2 1.6-1.2.9 0 1.7.4 2.1 1.2l1.3-.6c-.7-1.3-2-2-3.4-2-1.6 0-3.3.9-3.3 2.6 0 3.4 5.2 1.9 5.2 4 0 1-.9 1.3-1.8 1.3zM257.4 382.1c2.6 0 4.7-2 4.7-4.6 0-2.5-2-4.6-4.5-4.6s-4.6 2-4.7 4.5c-.2 2.4 1.6 4.5 4 4.7h.5zm0-7.9c1.8 0 2.7 1.5 2.7 3.2s-.8 3.3-2.7 3.3-2.8-1.4-2.7-3.2.7-3.3 2.7-3.3zM264.3 382h1.8v-7.6h2.1V373h-2.1v-1.3c0-.9.3-1.6 1.3-1.6.2 0 .4.1.6.1l.6-1.3c-.4-.1-.9-.2-1.3-.2-2.8 0-2.9 2.1-2.9 4.3h-1.3v1.4h1.2v7.6zM281.8 380.4h-6.6l6.7-9.9v-.8h-8.7v1.5h6.2l-6.8 10v.8h9.2zM284.5 385.1h1.8l4.9-12.1h-1.8l-2.3 6.1-2.5-6.1h-1.9l3.5 8.1zM294.8 368.3l-1.8.8v12.8h1.8zM299.3 377.4l3.8 4.6h2.1l-4.1-4.9 3.8-4.1h-2l-3.6 4v-8.3h-1.8v13.2h1.8zM310.4 382.1c1.6.1 3.1-.8 3.9-2.2l-1.5-.6c-.5.9-1.4 1.4-2.4 1.4-1.4.1-2.6-1-2.7-2.4v-.5h6.7v-.1c0-2.7-1.1-4.9-4.1-4.9-2.4-.1-4.4 1.8-4.4 4.2v.4c-.2 2.4 1.6 4.5 4 4.7h.5zm-.1-7.9c1.6 0 2.3.9 2.4 2.4h-4.9c.2-1.4 1-2.5 2.5-2.4zM318.2 377.2c0-2 1.1-2.7 2.9-2.6v-1.7c-1.2 0-2.4.7-2.9 1.8V373h-1.8v9h1.8v-4.8zM215.7 440h-6.8l7-10.5v-.8h-9.1v1.6h6.5l-7.2 10.5v.8h9.6zM223.8 432l-2.5 6.4-2.6-6.4h-2l3.7 8.5-1.8 4.3h1.9l5.2-12.7zM229.4 427.3l-1.9.8v13.5h1.9zM235.9 436.6l4-4.4h-2.1l-3.7 4.2v-8.7h-1.9v13.9h1.9v-4.8l4 4.9h2.1zM245.7 431.9c-2.5 0-4.6 2-4.6 4.6v.3c0 2.9 1.8 5 4.7 5 1.7.1 3.3-.8 4.2-2.3l-1.6-.7c-.5 1-1.4 1.5-2.5 1.5-1.9 0-2.8-1.3-2.8-3.1h7v-.1c0-2.9-1.2-5.2-4.4-5.2zm-2.6 4c0-1.4 1.2-2.5 2.6-2.5 1.3-.1 2.4.9 2.5 2.2v.3h-5.1zM254 433.7V432h-1.9v9.5h1.9v-5c0-2.1 1.2-2.7 3.1-2.9v-1.8c-1.3-.1-2.5.7-3.1 1.9z"/><path fill="#8D8F92" d="M206.8 457.3h2v12.9h-2zM216.8 460.5c-1.3-.1-2.5.6-3.1 1.7v-1.5h-1.9v9.5h1.9v-5.6c-.1-1.3.9-2.5 2.2-2.6h.2c1.1-.1 2.1.7 2.2 1.8v6.3h1.9v-5.8c0-2.2-1.1-3.8-3.4-3.8zM229.8 462.4c-.7-1.1-1.9-1.8-3.2-1.7-2.8 0-4.4 2.3-4.4 4.9s1.4 4.9 4.3 4.9c1.3 0 2.6-.7 3.3-1.8v1.6h1.9v-13.9h-1.9v6zm-2.9 6.5c-1.9 0-2.7-1.6-2.7-3.3 0-1.9.7-3.5 2.8-3.5s2.9 1.4 2.9 3.3-.9 3.5-3 3.5zM234.5 460.8h1.9v9.5h-1.9zM235.5 456.9c-.6 0-1.2.4-1.2 1.1 0 .7.5 1.2 1.2 1.2s1.2-.5 1.2-1.2c0-.6-.5-1.1-1.2-1.1zM242.8 460.6c-1.7-.1-3.2.8-3.9 2.3l1.5.7c.3-.9 1.2-1.5 2.2-1.5 1.8 0 2 1.1 2 2.6-2.2 0-6.1 0-6.1 3 0 1.9 1.5 2.8 3.2 2.8 1.2 0 2.3-.5 3-1.4v1.2h1.8v-6.2c0-2.3-1.5-3.5-3.7-3.5zm1.9 6.3c0 1.4-1.4 2.1-2.6 2.1-1 0-1.7-.3-1.6-1.4 0-1.5 1.9-1.7 3-1.7h1.2v1z"/><path fill="#09094C" d="M636.4 434.3h1.6c2.5 0 4.8-.7 4.8-3.7 0-2.7-1.9-3.7-4.3-3.7h-3.9v12.2h1.8v-4.8zm0-5.9h2.1c1.5 0 2.4.6 2.4 2.2.1 1.1-.7 2.2-1.8 2.3h-2.7v-4.5zM648.3 439.3c2.4.1 4.4-1.8 4.4-4.2v-.4c0-2.7-1.7-4.7-4.4-4.7-2.4 0-4.4 1.9-4.4 4.3v.3c0 2.7 1.7 4.7 4.4 4.7zm0-7.8c1.8 0 2.6 1.5 2.6 3.2s-.7 3.2-2.6 3.2-2.6-1.4-2.6-3.1.7-3.3 2.6-3.3zM658.5 439.3c2.4.1 4.4-1.8 4.4-4.2v-.4c0-2.7-1.7-4.7-4.4-4.7-2.4 0-4.4 1.9-4.4 4.3v.3c0 2.7 1.7 4.7 4.4 4.7zm0-7.8c1.8 0 2.6 1.5 2.6 3.2s-.7 3.2-2.6 3.2-2.6-1.4-2.6-3.1.7-3.3 2.6-3.3zM665.8 428.6c.6 0 1.1-.5 1.1-1.1.1-.5-.3-1-.9-1.1h-.2c-.6 0-1.1.5-1.1 1.1s.5 1.1 1.1 1.1zM666.6 439.5v-9.3h-1.7v9.4c.1.6-.4 1.2-1.1 1.3h-.1v1.4c1.9 0 3-.7 2.9-2.8zM668.6 436.7c0 1.4 1.1 2.6 2.6 2.6h.3c1.1 0 2.1-.4 2.8-1.3v1.1h1.7v-5.8c0-2.1-1.4-3.2-3.4-3.2-1.5-.1-3 .8-3.6 2.2l1.4.6c.3-.9 1.1-1.4 2-1.4 1.6 0 1.8 1 1.8 2.4-2 0-5.6 0-5.6 2.8zm4.5-1.7h1.1v1c0 1.4-1.1 2-2.3 2-.9 0-1.6-.4-1.6-1.4 0-1.4 1.8-1.6 2.8-1.6zM686.1 435.6v-8.7h-1.9v8.6c0 1.3-.4 2.2-1.8 2.2-.5 0-1-.1-1.5-.3v1.6c.6.2 1.2.3 1.8.3 2.4 0 3.6-1.4 3.4-3.7z"/><path fill="#2785E2" d="M636.4 464.3h1.6c2.5 0 4.8-.7 4.8-3.7 0-2.7-1.9-3.7-4.3-3.7h-3.9v12.2h1.8v-4.8zm0-5.9h2.1c1.5 0 2.4.6 2.4 2.2.1 1.1-.7 2.2-1.8 2.3h-2.7v-4.5zM648.3 469.3c2.4.1 4.4-1.8 4.4-4.2v-.4c0-2.7-1.7-4.7-4.4-4.7-2.4 0-4.4 1.9-4.4 4.3v.3c0 2.7 1.7 4.7 4.4 4.7zm0-7.8c1.8 0 2.6 1.5 2.6 3.2s-.7 3.2-2.6 3.2-2.6-1.4-2.6-3.1.7-3.3 2.6-3.3zM658.5 469.3c2.4.1 4.4-1.8 4.4-4.2v-.4c0-2.7-1.7-4.7-4.4-4.7-2.4 0-4.4 1.9-4.4 4.3v.3c0 2.7 1.7 4.7 4.4 4.7zm0-7.8c1.8 0 2.6 1.5 2.6 3.2s-.7 3.2-2.6 3.2-2.6-1.4-2.6-3.1.7-3.3 2.6-3.3zM665.8 456.4c-.6 0-1.1.5-1.1 1.1s.5 1.1 1.1 1.1c.6 0 1.1-.5 1.1-1.1.1-.5-.3-1-.9-1.1h-.2zM666.6 469.5v-9.3h-1.7v9.4c.1.6-.4 1.2-1.1 1.3h-.1v1.4c1.9 0 3-.7 2.9-2.8zM671.5 469.3c1.1 0 2.1-.4 2.8-1.3v1.1h1.7v-5.8c0-2.1-1.4-3.2-3.4-3.2-1.5-.1-3 .8-3.6 2.2l1.4.6c.3-.9 1.1-1.4 2-1.4 1.6 0 1.8 1 1.8 2.4-2 0-5.6 0-5.6 2.8 0 1.4 1.1 2.6 2.6 2.6h.3zm1.6-4.3h1.1v1c0 1.4-1.1 2-2.3 2-.9 0-1.6-.4-1.6-1.4 0-1.4 1.8-1.6 2.8-1.6zM680.1 469.5v-9.3h-1.7v9.4c.1.6-.4 1.2-1.1 1.3h-.1v1.4c1.9 0 3-.7 2.9-2.8zM679.3 458.6c.6 0 1.1-.5 1.1-1.1.1-.5-.3-1-.9-1.1h-.2c-.6 0-1.1.5-1.1 1.1s.5 1.1 1.1 1.1zM682.3 464.8c-.2 3.7 2.7 6.7 6.3 6.9h.6c2 .1 4-.6 5.5-2l-1-.5c-1.2 1-2.7 1.5-4.2 1.4-3 .2-5.5-2.1-5.7-5.1v-.7c-.2-3.2 2.3-6 5.5-6.2h.4c3 0 5.4 1.8 5.4 5.1 0 1.2-.3 3.3-1.9 3.3-.6 0-.8-.4-.8-.9v-.4l.5-4.4h-1.6l-.1 1c-.4-.7-1.2-1.2-2-1.1-2.1 0-3.3 2.1-3.3 4 0 1.7.9 3 2.7 3 1 0 1.9-.6 2.4-1.5.1 1.1 1 1.4 2 1.4 2.3 0 3.2-2.4 3.2-4.4 0-3.9-3.1-6.2-6.7-6.2-4 0-7.2 3.2-7.2 7.2v.1zm6.5 2.1c-1 0-1.4-.9-1.4-1.8 0-1.1.5-2.6 1.8-2.6 1.1 0 1.6.7 1.6 1.8s-.7 2.6-2 2.6zM704.4 467.7h-4.8l5-6.7v-.7h-7v1.4h4.6l-5.1 6.7v.8h7.3zM707 472.2h1.7l4.8-12h-1.7l-2.3 6-2.4-6h-1.9l3.4 8zM716.9 455.7l-1.7.7v12.7h1.7zM721.3 464.6l3.6 4.5h2l-3.9-4.8 3.6-4.1h-1.9l-3.4 4V456h-1.7v13.1h1.7zM732 469.3c1.6.1 3.1-.8 3.7-2.3l-1.4-.6c-.4.9-1.3 1.4-2.3 1.4-1.4 0-2.6-1.1-2.6-2.6v-.3h6.5v-.1c0-2.7-1.1-4.8-4-4.8-2.6 0-4.2 2.1-4.2 4.6 0 2.7 1.6 4.7 4.3 4.7zm-.1-7.9c1.5 0 2.2 1 2.3 2.4h-4.7c0-1.3 1.1-2.4 2.4-2.4zM739.6 464.4c0-2 1.1-2.6 2.8-2.8V460c-1.2 0-2.3.7-2.8 1.8v-1.6h-1.7v8.9h1.7v-4.7z"/><circle fill="#2785E2" cx="744.9" cy="468" r="1.2"/><path fill="#2785E2" d="M752.1 469.3c1.8.1 3.4-1.1 3.9-2.8l-1.4-.6c-.3 1.1-1.3 1.9-2.5 1.9-1.8 0-2.6-1.4-2.6-3.1s.8-3.3 2.6-3.3c1.1 0 2 .7 2.4 1.7l1.5-.6c-.6-1.6-2.2-2.6-3.9-2.5-2.4 0-4.3 2-4.3 4.4v.2c0 2.7 1.6 4.7 4.3 4.7zM761.7 469.3c2.4.1 4.4-1.8 4.4-4.2v-.4c0-2.7-1.7-4.7-4.4-4.7-2.4 0-4.4 1.9-4.4 4.3v.3c0 2.7 1.7 4.7 4.4 4.7zm0-7.8c1.8 0 2.6 1.5 2.6 3.2s-.7 3.2-2.6 3.2-2.6-1.4-2.6-3.1.7-3.3 2.6-3.3zM769.8 463.7c-.1-.9.6-1.8 1.5-1.9h.5c1.3 0 1.9.7 1.9 2v5.5h1.7v-5.4c-.1-1.1.7-2.1 1.8-2.2h.2c1.3 0 1.9.7 1.9 2v5.5h1.7v-5.6c0-2-1-3.5-3.1-3.5-1.2-.1-2.3.6-2.9 1.6-.5-1-1.6-1.7-2.7-1.6-1.1 0-2 .5-2.5 1.5v-1.4h-1.7v8.9h1.7v-5.4z"/><path fill="#09094C" d="M613.1 442.5c-.2.1.4-4.4-3.7-4.6 0 0-2.6-.7-2.9-1.6s.9-2.6.9-2.6 1.8-1.6.6-2.4c0 0 1.2-4.1-3.5-4.1s-3.5 4.1-3.5 4.1c-1.2.8.6 2.3.6 2.3s1.2 1.7.9 2.6-2.9 1.6-2.9 1.6c-4.1.3-3.5 4.7-3.5 4.7h17z"/><path fill="#2785E2" d="M616.9 455.6h-22.2l11.1 8.9z"/><path fill="#2785E2" d="M616.9 468.3v-10.5l-11.2 8.9-11.2-8.9v14h22.4z"/><path fill="#0C084E" d="M601.6 382.4c-1.5.1-2.8-.9-3.1-2.4l-1.6.7c.7 2.3 2.4 3.2 4.7 3.2s4.4-1.3 4.3-3.7c0-5-7-2.2-7-5.6 0-1.3 1.2-1.8 2.3-1.8 1.3 0 2.5.8 2.9 2l1.5-.7c-.7-1.8-2.5-2.9-4.4-2.8-2 0-4.1 1.2-4.1 3.4 0 4.9 7 2.2 7 5.6-.1 1.3-1.2 2.2-2.5 2.1.1 0 0 0 0 0zM612.1 383.9c1.6.1 3.1-.8 3.9-2.2l-1.5-.6c-.5.9-1.4 1.4-2.4 1.4-1.4.1-2.6-1-2.7-2.4v-.5h6.7v-.1c0-2.7-1.1-4.9-4.1-4.9-2.4-.1-4.4 1.8-4.4 4.2v.4c-.2 2.4 1.6 4.5 4 4.7h.5zm-.1-7.9c1.6 0 2.3.9 2.4 2.4h-4.9c0-1.4 1.1-2.4 2.5-2.4zM619.9 378.4c-.1-1.3.9-2.3 2.1-2.4h.1c1.1-.1 2 .7 2.1 1.7v6h1.8v-5.5c0-2.1-1-3.6-3.2-3.6-1.2-.1-2.3.6-2.9 1.6v-1.4h-1.8v9h1.8v-5.4zM632 383.9c1.2 0 2.4-.6 3.1-1.6v1.5h1.8v-13.2h-1.8v5.6c-.6-1-1.8-1.7-3-1.6-2.6 0-4.1 2.2-4.1 4.7s1.3 4.6 4 4.6zm.5-7.9c1.9 0 2.7 1.4 2.7 3.2s-.8 3.3-2.8 3.3c-1.8 0-2.6-1.5-2.6-3.2s.7-3.3 2.7-3.3zM651.2 382.2H645v-4h4.8v-1.5H645v-3.8h5.9v-1.5h-7.8v12.3h8.1zM655 378.3c-.1-1.1.7-2.1 1.8-2.2h.4c1.3 0 1.9.7 1.9 2v5.6h1.8v-5.4c-.1-1.1.7-2.1 1.8-2.2h.2c1.3 0 1.9.7 1.9 2v5.6h1.8v-5.6c0-2-1.1-3.5-3.2-3.5-1.2 0-2.4.6-3 1.7-.5-1.1-1.6-1.8-2.8-1.7-1.1 0-2.1.5-2.6 1.5v-1.4h-1.8v9h1.8v-5.4zM668.4 381.2c0 1.8 1.3 2.7 3 2.7 1.1.1 2.1-.4 2.7-1.3v1.1h1.8v-5.9c0-2.2-1.4-3.3-3.5-3.3-1.6-.1-3 .8-3.7 2.2l1.5.6c.4-.8 1.2-1.4 2.1-1.4 1.7 0 1.9 1.1 1.9 2.5-2.1 0-5.8-.1-5.8 2.8zm5.7-.6c-.1 1.2-1.1 2.1-2.3 2h-.1c-.8.1-1.5-.5-1.6-1.2v-.2c0-1.4 1.8-1.6 2.9-1.6h1.1v1zM678.5 374.8h1.8v9h-1.8zM679.4 373.1c.6 0 1.1-.5 1.1-1.1s-.5-1.1-1.1-1.1c-.6 0-1.1.5-1.1 1.1 0 .6.5 1.1 1.1 1.1zM684.9 370.2l-1.8.8v12.8h1.8z"/><path fill="#DFDFEF" d="M719.2 147.5h95c.5 0 1-.4 1-.9v-24c0-.5-.4-1-.9-1h-95.1c-.6 0-1 .4-1 1v23.9c0 .5.4 1 .9 1h.1zM880.5 147.5h95c.5 0 1-.4 1-.9v-24c0-.5-.4-1-.9-1h-95.1c-.6 0-1 .4-1 1v23.9c0 .5.4 1 .9 1h.1z"/><path fill="#F1F2F3" d="M230.1 538.9h-1.8v9.2h1.8c3.1 0 4.4-1.8 4.4-4.7s-1.4-4.5-4.4-4.5z"/><path fill="#F1F2F3" d="M995.3 522.6H100c-1 0-1.9.8-1.9 1.8v40h899v-40c0-1-.8-1.8-1.8-1.8zm-856.9 27.1h-1.9v-9.8l-3.9 9.8h-.8l-4.1-9.8v9.8H126v-12.3h2.6l3.6 9.2 3.6-9.2h2.6v12.3zm5.5 3.1h-1.8l1.7-4-3.5-8.1h1.9l2.5 6.1 2.3-6.1h1.8l-4.9 12.1zm17.9-3.1l-1-3.1h-5l-1 3.1H153l4.1-12.3h2.5l4.1 12.3h-1.9zm7.6-1.2c1.2 0 2.2-.8 2.5-1.9l1.4.6c-.6 1.7-2.2 2.8-4 2.7-2.8 0-4.4-2-4.4-4.7-.1-2.4 1.8-4.5 4.2-4.6h.3c1.7-.1 3.4.9 4 2.5l-1.5.7c-.4-1-1.4-1.7-2.5-1.7-1.9 0-2.7 1.7-2.7 3.3s.8 3.1 2.7 3.1zm9.8 0c1.2 0 2.2-.8 2.5-1.9l1.4.6c-.6 1.7-2.2 2.8-4 2.7-2.8 0-4.4-2-4.4-4.7-.1-2.4 1.8-4.5 4.2-4.6h.3c1.7-.1 3.4.9 4 2.5l-1.5.7c-.4-1-1.4-1.7-2.5-1.7-1.9 0-2.7 1.7-2.7 3.3s.8 3.1 2.7 3.1zm9.9 1.4c-2.4.1-4.4-1.8-4.5-4.2v-.5c0-2.5 2.1-4.6 4.6-4.5 2.5 0 4.6 2.1 4.6 4.6 0 2.5-2.1 4.6-4.7 4.6.1 0 0 0 0 0zm14.5-.1h-1.8v-1.4c-.6 1-1.7 1.6-2.9 1.5-1.7.1-3.2-1.1-3.3-2.8v-6.3h1.8v5.6c-.1 1 .6 2 1.6 2.1h.5c1.2.1 2.2-.8 2.3-2v-5.7h1.8v9zm10.4-.2h-1.8v-5.5c.2-1.1-.6-2-1.6-2.2h-.5c-1.3 0-2.2 1.1-2.2 2.3v5.5h-1.8v-9h1.8v1.4c.6-1 1.7-1.7 2.9-1.6 2.2 0 3.2 1.5 3.2 3.6v5.5zm6.9-.2c-.4.3-.8.4-1.3.4-1.7 0-2.6-.8-2.6-2.5v-5.2h-1.3v-1.4h1.3v-1.8l1.8-.8v2.5h2v1.4h-2v5c0 .7.3 1.2 1.1 1.2.3 0 .7-.1 1-.2v1.4zm9.3.3h-3.8v-12.3h3.9c4 0 6.3 2.2 6.3 6.2s-2.5 6.1-6.4 6.1zm16.4-4.1h-6.7c-.2 1.4.8 2.7 2.2 2.9h.5c1 0 1.9-.5 2.4-1.4l1.5.6c-1.3 2.1-4.1 2.8-6.2 1.6-1.4-.8-2.3-2.4-2.2-4.1-.2-2.4 1.6-4.4 4-4.6h.4c3 0 4.1 2.2 4.1 5zm6.2 3.8c-.4.3-.8.4-1.3.4-1.7 0-2.6-.8-2.6-2.5v-5.2h-1.3v-1.4h1.3v-1.8l1.8-.8v2.5h2v1.4h-2v5c0 .7.3 1.2 1.1 1.2.3 0 .7-.1 1-.2v1.4zm8.9.3h-1.8v-1.1c-.6.9-1.6 1.4-2.7 1.3-1.7 0-3-.9-3-2.7 0-2.9 3.7-2.8 5.8-2.8 0-1.4-.2-2.5-1.9-2.5-.9 0-1.7.6-2.1 1.4l-1.5-.6c.7-1.4 2.1-2.3 3.7-2.2 2.1 0 3.5 1.1 3.5 3.3v5.9zm4.4 0h-1.8v-9h1.8v9zm-.9-10.7c-.6 0-1.1-.5-1.1-1.1 0-.6.5-1.1 1.1-1.1s1.1.5 1.1 1.1c0 .6-.5 1.1-1.1 1.1zm5.5 10.7h-1.8v-12.8l1.8-.8v13.6zm5.6.2c-1.6.1-3.1-.8-3.6-2.3l1.4-.6c.3.9 1.2 1.5 2.2 1.5.9 0 1.8-.3 1.8-1.3 0-2.1-5.2-.6-5.2-4 0-1.7 1.7-2.6 3.3-2.6 1.4 0 2.7.7 3.4 2l-1.3.6c-.4-.8-1.2-1.2-2.1-1.2-.7 0-1.6.3-1.6 1.2 0 2.1 5.2.4 5.2 4 0 1.8-1.7 2.7-3.5 2.7z"/><path fill="#F1F2F3" d="M242.5 541.9c-1.4 0-2.5 1-2.5 2.4h4.9c-.1-1.5-.8-2.4-2.4-2.4zM255.9 547.1c0 .8.6 1.4 1.4 1.4h.2c1.2.1 2.3-.7 2.4-1.9v-1.1h-1.1c-1.1 0-2.9.2-2.9 1.6zM189.1 541.9c-2 0-2.7 1.5-2.7 3.3s.8 3.2 2.7 3.2 2.7-1.5 2.7-3.3-.9-3.2-2.7-3.2zM156.3 545.1h4l-2-6.2z"/><path fill="#0C084E" d="M132.2 546.6l-3.6-9.2H126v12.3h1.7v-9.8l4.1 9.8h.8l3.9-9.8v9.8h1.9v-12.3h-2.6zM144.7 546.8l-2.5-6.1h-1.9l3.5 8.1-1.7 4h1.8l4.9-12.1H147zM157.1 537.4l-4.1 12.3h1.8l1-3.1h5l1 3.1h1.9l-4.1-12.3h-2.5zm-.8 7.7l2-6.2 2 6.2h-4zM169.4 542.1c1.1 0 2.1.7 2.5 1.7l1.5-.7c-.6-1.6-2.3-2.6-4-2.5-2.4-.1-4.4 1.8-4.5 4.3v.3c0 2.7 1.6 4.7 4.4 4.7 1.8.1 3.4-1 4-2.7l-1.4-.6c-.3 1.1-1.3 1.9-2.5 1.9-1.9 0-2.7-1.4-2.7-3.1s.8-3.3 2.7-3.3zM179.2 542.1c1.1 0 2.1.7 2.5 1.7l1.5-.7c-.6-1.6-2.3-2.6-4-2.5-2.4-.1-4.4 1.8-4.5 4.3v.3c0 2.7 1.6 4.7 4.4 4.7 1.8.1 3.4-1 4-2.7l-1.4-.6c-.3 1.1-1.3 1.9-2.5 1.9-1.9 0-2.7-1.4-2.7-3.1s.8-3.3 2.7-3.3zM189.2 540.6c-2.4-.1-4.5 1.8-4.6 4.2v.4c-.2 2.4 1.6 4.5 4 4.7h.5c2.5 0 4.6-2 4.7-4.5v-.1c.1-2.4-1.7-4.6-4.2-4.7h-.4zm-.1 7.8c-1.9 0-2.7-1.4-2.7-3.2s.7-3.3 2.7-3.3c1.8 0 2.7 1.5 2.7 3.2s-.8 3.3-2.7 3.3zM201.8 546.2c.1 1.2-.8 2.2-2 2.3h-.3c-1 .1-2-.6-2.1-1.6v-6.1h-1.8v5.7c-.2 1.7 1 3.2 2.7 3.4h.6c1.2.1 2.3-.5 2.9-1.5v1.4h1.8v-9h-1.8v5.4zM210.8 540.5c-1.2-.1-2.3.6-2.9 1.6v-1.4h-1.8v9h1.8v-5.4c-.1-1.3.9-2.3 2.1-2.4h.1c1.1-.1 2 .7 2.1 1.7v6h1.8v-5.5c0-2.1-1-3.6-3.2-3.6zM218.8 547v-5h2v-1.4h-2v-2.5l-1.8.8v1.8h-1.3v1.4h1.3v5.2c0 1.7.9 2.5 2.6 2.5.5 0 .9-.1 1.3-.4V548c-.3.1-.7.2-1 .2-.8 0-1.1-.5-1.1-1.2zM230.3 537.4h-3.9v12.3h3.8c3.9 0 6.3-2.2 6.4-6.1s-2.3-6.2-6.3-6.2zm-.2 10.7h-1.8v-9.2h1.8c3 0 4.4 1.6 4.4 4.5s-1.3 4.7-4.4 4.7zM242.5 540.6c-2.4-.1-4.4 1.8-4.4 4.2v.4c-.1 2.5 1.8 4.6 4.3 4.7 1.7.1 3.2-.8 4.1-2.2l-1.5-.6c-.5.9-1.4 1.4-2.4 1.4-1.4.1-2.6-1-2.7-2.4v-.5h6.7v-.1c0-2.7-1.1-4.9-4.1-4.9zm-2.5 3.7c0-1.4 1.1-2.4 2.5-2.4 1.6 0 2.3.9 2.4 2.4H240zM250.7 547v-5h2v-1.4h-2v-2.5l-1.8.8v1.8h-1.3v1.4h1.3v5.2c0 1.7.9 2.5 2.6 2.5.5 0 .9-.1 1.3-.4V548c-.3.1-.7.2-1 .2-.8 0-1.1-.5-1.1-1.2zM258.2 540.5c-1.6-.1-3 .8-3.7 2.2l1.5.6c.4-.8 1.2-1.4 2.1-1.4 1.7 0 1.9 1.1 1.9 2.5-2.1 0-5.8-.1-5.8 2.8 0 1.8 1.3 2.7 3 2.7 1.1.1 2.1-.4 2.7-1.3v1.1h1.8v-5.9c0-2.2-1.4-3.3-3.5-3.3zm1.7 6c-.1 1.2-1.1 2.1-2.3 2h-.1c-.8.1-1.5-.5-1.6-1.2v-.2c0-1.4 1.8-1.6 2.9-1.6h1.1v1zM264.3 540.7h1.8v9h-1.8zM265.2 536.8c-.6 0-1.1.5-1.1 1.1 0 .6.5 1.1 1.1 1.1s1.1-.5 1.1-1.1c0-.6-.5-1.1-1.1-1.1zM268.9 549.7h1.8v-13.6l-1.8.8zM274.6 543.2c0-.9.9-1.2 1.6-1.2.9 0 1.7.4 2.1 1.2l1.3-.6c-.7-1.3-2-2-3.4-2-1.6 0-3.3.9-3.3 2.6 0 3.4 5.2 1.9 5.2 4 0 1-.9 1.3-1.8 1.3-1 0-1.9-.6-2.2-1.5l-1.4.6c.5 1.5 2 2.4 3.6 2.3 1.8 0 3.5-.9 3.5-2.7 0-3.6-5.2-1.9-5.2-4z"/><path fill="#09094C" d="M136 678.6c1.2-.4 2.1-1.5 2-2.8 0-2.7-1.8-3.4-4.1-3.4h-4.6v12.9h5c2.4 0 4.3-1 4.2-3.6.2-1.5-.9-2.9-2.5-3.1zm-4.7-.7h.1v-4.1h2.4c1.3 0 2.4.3 2.4 1.9s-.9 2.2-2.4 2.2h-2.5zm2.9 5.9h-2.9v-4.5h2.7c1.5 0 2.7.5 2.7 2.2s-1 2.3-2.5 2.3zM141.7 671.9c-.6 0-1.1.5-1.1 1.1 0 .6.5 1.1 1.1 1.1.6 0 1.2-.4 1.2-1.1-.1-.6-.6-1.1-1.2-1.1zM140.9 675.8h1.8v9.5h-1.8zM145.6 685.3h1.8V671l-1.8.8zM150.3 685.3h1.8V671l-1.8.8zM154.9 675.8h1.8v9.5h-1.8zM155.8 671.9c-.6 0-1.1.5-1.1 1.1 0 .6.5 1.1 1.1 1.1.6 0 1.1-.5 1.1-1.1 0-.6-.5-1.1-1.1-1.1zM164.4 675.5c-1.2-.1-2.4.6-3 1.7v-1.5h-1.8v9.5h1.8v-5.6c-.1-1.4 1-2.5 2.4-2.6 1.4 0 2.1.9 2.1 2.3v5.8h1.8v-5.8c0-2.2-1-3.8-3.3-3.8zM177.1 677.4c-.6-1.1-1.8-1.8-3.1-1.7-2.5 0-4.2 2.2-4.2 4.7s1.6 4.6 4.2 4.6c1.3 0 2.5-.7 3.2-1.8v1.4c.1 1.4-1 2.6-2.4 2.7h-.5c-1.1.1-2.2-.5-2.8-1.5l-1.5.7c.8 1.8 2.5 2.3 4.3 2.3 2.5 0 4.7-1.3 4.6-4.1v-8.8h-1.8v1.5zm-2.8 6.1c-1.6-.1-2.8-1.4-2.8-3 0-1.8.9-3.3 2.8-3.3s2.8 1.3 2.8 3.1-1 3.2-2.8 3.2zM188.5 672.4l-4.3 12.9h1.9l1.1-3.3h5.2l1 3.3h2l-4.3-12.9h-2.6zm-.8 8.1l2.1-6.5 2.1 6.5h-4.2zM204 677.4c-.6-1.1-1.8-1.8-3.1-1.7-2.8 0-4.3 2.3-4.3 4.9s1.4 4.9 4.2 4.9c1.3 0 2.6-.7 3.3-1.8v1.6h1.7v-13.9H204v6zm-2.8 6.6c-1.9 0-2.7-1.6-2.7-3.3 0-1.9.7-3.5 2.8-3.5s2.8 1.4 2.8 3.3-.9 3.5-2.9 3.5zM215.4 677.4c-.6-1.1-1.8-1.8-3.1-1.7-2.8 0-4.3 2.3-4.3 4.9s1.4 4.9 4.2 4.9c1.3 0 2.5-.7 3.2-1.8v1.6h1.8v-13.9h-1.8v6zm-2.8 6.6c-1.9 0-2.7-1.6-2.7-3.3 0-1.9.7-3.5 2.8-3.5s2.8 1.4 2.8 3.3-.9 3.5-2.9 3.5zM221.8 677.4v-1.7H220v9.5h1.8v-5c0-2.1 1.2-2.7 3-2.9v-1.8c-1.3-.1-2.5.7-3 1.9zM230.6 675.6c-2.7 0-4.5 2.2-4.5 4.9 0 2.9 1.7 5 4.6 5 1.7.1 3.2-.8 4-2.3l-1.5-.7c-.4.9-1.4 1.5-2.4 1.5-1.9 0-2.8-1.3-2.8-3.1h6.9v-.1c0-2.9-1.2-5.2-4.3-5.2zm-2.6 4c.1-1.4 1.1-2.4 2.5-2.5 1.3-.1 2.4.9 2.5 2.2v.3h-5zM238.1 678.3c0-.9 1-1.2 1.7-1.2.9 0 1.7.5 2.1 1.3l1.4-.6c-.6-1.3-2-2.2-3.5-2.1-1.6 0-3.4 1-3.4 2.8 0 3.6 5.4 2 5.4 4.2 0 1.1-1 1.4-1.9 1.4-1 0-1.9-.6-2.3-1.6l-1.4.6c.5 1.6 2.1 2.5 3.7 2.4 1.9 0 3.6-.9 3.6-3 0-3.7-5.4-2-5.4-4.2zM246.8 678.3c0-.9 1-1.2 1.7-1.2.9 0 1.7.5 2.1 1.3l1.4-.6c-.6-1.3-2-2.2-3.5-2.1-1.6 0-3.4 1-3.4 2.8 0 3.6 5.4 2 5.4 4.2 0 1.1-1 1.4-1.9 1.4-1 0-1.9-.6-2.3-1.6l-1.4.6c.5 1.6 2.1 2.5 3.7 2.4 1.8 0 3.6-.9 3.6-3 0-3.7-5.4-2-5.4-4.2z"/><path fill="#2785E2" d="M283.2 679.5h5v-1.6h-5V674h6.1v-1.6h-8v12.9h8.3v-1.6h-6.4zM298.4 677.4c-.6-1.1-1.8-1.8-3.1-1.7-2.8 0-4.3 2.3-4.3 4.9s1.4 4.9 4.2 4.9c1.3 0 2.5-.7 3.2-1.8v1.6h1.8v-13.9h-1.8v6zm-2.8 6.6c-1.8 0-2.6-1.6-2.7-3.3 0-1.9.7-3.5 2.8-3.5s2.8 1.4 2.8 3.3-.9 3.5-2.9 3.5zM304 671.9c-.6 0-1.1.5-1.1 1.1 0 .6.5 1.1 1.1 1.1s1.1-.5 1.1-1.1c0-.6-.5-1.1-1.1-1.1zM303.1 675.8h1.9v9.5h-1.9zM309.9 682.5v-5.3h2.1v-1.5h-2.1V673l-1.8.8v1.9h-1.3v1.5h1.3v5.5c-.2 1.3.8 2.5 2.1 2.7h.6c.5 0 .9-.1 1.3-.3v-1.5c-.4.1-.7.2-1.1.2-.8 0-1.1-.5-1.1-1.3z"/><path fill="#09094C" d="M751.6 675.6c0-1.4 1.2-1.9 2.4-1.9 1.3.1 2.4.9 2.9 2.1l1.6-.7c-.7-1.8-2.5-3-4.5-2.9-2.1 0-4.3 1.3-4.3 3.6 0 5.2 7.2 2.3 7.2 5.9-.1 1.3-1.1 2.3-2.4 2.2h-.2c-1.5 0-2.9-1.1-3.2-2.6l-1.7.8c.6 2.2 2.7 3.6 4.9 3.4 2.4.1 4.4-1.7 4.6-4 0-5.2-7.3-2.4-7.3-5.9zM765.9 675.7c-1.2-.1-2.4.6-3 1.7v-6h-1.8v13.8h1.8v-5.6c-.1-1.2.9-2.3 2.1-2.4h.3c1.5 0 2.2.8 2.2 2.3v5.8h1.8v-5.8c0-2.2-1.1-3.8-3.4-3.8zM781.9 675.8c-1.3 0-2.5.6-3.2 1.7v-1.6h-1.8v12.7h1.8v-4.8c.7 1.1 1.9 1.7 3.2 1.8 2.8 0 4.2-2.3 4.2-4.9s-1.4-4.9-4.2-4.9zm-.4 8.2c-1.9 0-2.9-1.5-2.9-3.3s.9-3.5 2.9-3.5c1.8 0 2.7 1.6 2.7 3.3 0 1.9-.6 3.5-2.7 3.5zM793.3 675.8c-1.3 0-2.5.6-3.2 1.7v-1.6h-1.8v12.7h1.8v-4.8c.7 1.1 1.9 1.8 3.2 1.8 2.8 0 4.2-2.3 4.2-4.9s-1.4-4.9-4.2-4.9zm-.4 8.2c-2 0-2.9-1.5-2.9-3.3s.9-3.5 2.9-3.5c1.8 0 2.7 1.6 2.7 3.3 0 1.9-.6 3.5-2.7 3.5zM799.6 675.8h1.8v9.5h-1.8zM800.5 671.9c-.6 0-1.1.5-1.1 1.1 0 .6.5 1.1 1.1 1.1s1.1-.5 1.1-1.1c0-.6-.5-1.1-1.1-1.1zM809.1 675.5c-1.2-.1-2.4.6-3 1.7v-1.5h-1.8v9.5h1.8v-5.6c-.1-1.4 1-2.5 2.4-2.6 1.4 0 2.1.9 2.1 2.3v5.8h1.8v-5.8c0-2.2-1-3.8-3.3-3.8zM821.8 677.4c-.6-1.1-1.8-1.8-3.1-1.7-2.5 0-4.2 2.2-4.2 4.7s1.6 4.6 4.2 4.6c1.3 0 2.5-.7 3.2-1.8v1.4c.1 1.4-1 2.6-2.4 2.7h-.5c-1.1.1-2.2-.5-2.8-1.5l-1.5.7c.8 1.8 2.5 2.3 4.3 2.3 2.5 0 4.7-1.3 4.6-4.1v-8.8h-1.8v1.5zm-2.7 6.1c-1.6-.1-2.8-1.4-2.8-3 0-1.8.9-3.3 2.8-3.3s2.8 1.3 2.8 3.1-1 3.2-2.8 3.2zM833.2 672.4l-4.3 12.9h1.9l1.1-3.3h5.2l1 3.3h2l-4.3-12.9h-2.6zm-.8 8.1l2.1-6.5 2.1 6.5h-4.2zM848.7 677.4c-.6-1.1-1.8-1.8-3.1-1.7-2.8 0-4.3 2.3-4.3 4.9s1.4 4.9 4.2 4.9c1.3 0 2.5-.7 3.2-1.8v1.6h1.8v-13.9h-1.8v6zm-2.8 6.6c-1.9 0-2.7-1.6-2.7-3.3 0-1.9.7-3.5 2.8-3.5s2.8 1.4 2.8 3.3-.9 3.5-2.9 3.5zM860.1 677.4c-.6-1.1-1.8-1.8-3.1-1.7-2.8 0-4.3 2.3-4.3 4.9s1.4 4.9 4.2 4.9c1.3 0 2.5-.7 3.2-1.8v1.6h1.8v-13.9h-1.8v6zm-2.8 6.6c-1.9 0-2.7-1.6-2.7-3.3 0-1.9.7-3.5 2.8-3.5s2.8 1.4 2.8 3.3-.9 3.5-2.9 3.5zM866.5 677.4v-1.7h-1.8v9.5h1.8v-5c0-2.1 1.2-2.7 3-2.9v-1.8c-1.3-.1-2.5.7-3 1.9zM875.3 675.6c-2.7 0-4.5 2.2-4.5 4.9 0 2.9 1.7 5 4.6 5 1.7.1 3.2-.8 4-2.3l-1.5-.7c-.4.9-1.4 1.5-2.4 1.5-1.9 0-2.8-1.3-2.8-3.1h6.9v-.1c0-2.9-1.2-5.2-4.3-5.2zm-2.6 4c.1-1.4 1.1-2.4 2.5-2.5 1.3-.1 2.4.9 2.5 2.2v.3h-5zM882.8 678.3c0-.9 1-1.2 1.7-1.2.9 0 1.7.5 2.1 1.3l1.4-.6c-.6-1.3-2-2.2-3.5-2.1-1.6 0-3.4 1-3.4 2.8 0 3.6 5.4 2 5.4 4.2 0 1.1-1 1.4-1.9 1.4-1 0-1.9-.6-2.3-1.6l-1.4.6c.5 1.6 2.1 2.5 3.7 2.4 1.9 0 3.6-.9 3.6-3 0-3.7-5.4-2-5.4-4.2zM891.5 678.3c0-.9 1-1.2 1.7-1.2.9 0 1.7.5 2.1 1.3l1.4-.6c-.6-1.3-2-2.2-3.5-2.1-1.6 0-3.4 1-3.4 2.8 0 3.6 5.4 2 5.4 4.2 0 1.1-1 1.4-1.9 1.4-1 0-1.9-.6-2.3-1.6l-1.4.6c.5 1.6 2.1 2.5 3.7 2.4 1.8 0 3.6-.9 3.6-3 0-3.7-5.4-2-5.4-4.2z"/><path fill="#2785E2" d="M945.1 679.5h5v-1.6h-5V674h6.1v-1.6h-8v12.9h8.3v-1.6h-6.4zM960.3 677.4c-.6-1.1-1.8-1.8-3.1-1.7-2.8 0-4.3 2.3-4.3 4.9s1.4 4.9 4.2 4.9c1.3 0 2.5-.7 3.2-1.8v1.6h1.8v-13.9h-1.8v6zm-2.8 6.6c-1.8 0-2.6-1.6-2.7-3.3 0-1.9.7-3.5 2.8-3.5s2.8 1.4 2.8 3.3-.9 3.5-2.9 3.5zM965.9 671.9c-.6 0-1.1.5-1.1 1.1 0 .6.5 1.1 1.1 1.1.6 0 1.1-.5 1.1-1.1 0-.6-.5-1.1-1.1-1.1zM965 675.8h1.8v9.5H965zM971.8 682.5v-5.3h2.1v-1.5h-2.1V673l-1.8.8v1.9h-1.3v1.5h1.3v5.5c-.2 1.3.8 2.5 2.1 2.7h.6c.5 0 .9-.1 1.3-.3v-1.5c-.4.1-.7.2-1.1.2-.8 0-1.1-.5-1.1-1.3z"/><path fill="#09094C" d="M181.1 602.7v-12.2h-1.9v5.3h-5.9v-5.3h-1.9v12.2h1.9v-5.3h5.9v5.3zM191.4 598.3c0-2.7-1.1-4.8-4-4.8-2.6 0-4.2 2.1-4.2 4.6 0 2.7 1.6 4.7 4.3 4.7 1.6.1 3.1-.8 3.7-2.3l-1.4-.6c-.4.9-1.3 1.4-2.3 1.4-1.4 0-2.6-1.1-2.6-2.6v-.3h6.5v-.1zm-6.4-1c.1-1.3 1.1-2.3 2.4-2.4 1.5 0 2.2 1 2.3 2.4H185zM201 598.3c0-2.7-1.1-4.8-4-4.8-2.6 0-4.2 2.1-4.2 4.6 0 2.7 1.6 4.7 4.3 4.7 1.6.1 3.1-.8 3.7-2.3l-1.4-.6c-.4.9-1.3 1.4-2.3 1.4-1.4 0-2.6-1.1-2.6-2.6v-.3h6.5v-.1zm-6.4-1c.1-1.3 1.1-2.3 2.4-2.4 1.5 0 2.2 1 2.3 2.4h-4.7zM208.9 597.3v5.4h1.7v-5.5c0-2.1-1-3.6-3.1-3.6-1.2-.1-2.3.6-2.8 1.6v-1.4H203v8.9h1.7v-5.3c-.1-1.1.7-2.2 1.8-2.3h.4c1.4 0 2 .8 2 2.2zM212.5 600.2c0 1.4 1.1 2.6 2.6 2.6h.3c1.1 0 2.1-.5 2.7-1.3v1.1h1.8v-5.8c0-2.1-1.4-3.2-3.4-3.2-1.5-.1-3 .8-3.6 2.2l1.4.6c.3-.9 1.1-1.4 2-1.4 1.6 0 1.8 1 1.8 2.4-2 0-5.6 0-5.6 2.8zm4.4-1.7h1.1v1c0 1.1-1 2-2.1 2h-.2c-.8.1-1.5-.5-1.6-1.2v-.2c0-1.4 1.8-1.6 2.8-1.6zM229.5 601.3c-1.4 0-2.7-1-3-2.4l-1.6.7c.5 2 2.5 3.4 4.6 3.2 2.1 0 4.3-1.3 4.2-3.6 0-5-6.8-2.3-6.8-5.6 0-1.3 1.1-1.8 2.2-1.8 1.2 0 2.4.7 2.8 1.9l1.5-.7c-.7-1.7-2.4-2.8-4.2-2.7-2 0-4 1.2-4 3.4 0 4.8 6.8 2.1 6.8 5.5-.1 1.3-1.2 2.2-2.5 2.1.1 0 0 0 0 0zM236 593.8h1.7v8.9H236zM236.8 589.9c-.6 0-1.1.5-1.1 1.1 0 .6.5 1.1 1.1 1.1.5.1 1-.3 1.1-.9v-.2c0-.6-.5-1.1-1.1-1.1zM240.3 593.8v8.9h1.7v-5.3c-.1-1.2.8-2.2 2-2.3h.2c1.4 0 2 .8 2 2.2v5.4h1.7v-5.5c0-2.1-1-3.6-3.1-3.6-1.2-.1-2.3.6-2.8 1.6v-1.4h-1.7zM256.8 595.2c-.6-1-1.7-1.7-2.9-1.6-2.3.1-4.1 2-4 4.3v.1c0 2.4 1.5 4.4 3.9 4.4 1.2 0 2.4-.7 3-1.7v1.3c0 1.7-1.1 2.5-2.7 2.5-1.1.1-2.1-.5-2.6-1.4l-1.4.6c.7 1.7 2.4 2.2 4 2.2 2.4 0 4.4-1.2 4.4-3.8v-8.3h-1.7v1.4zm-2.6 5.8c-1.4-.1-2.6-1.3-2.5-2.7v-.1c0-1.7.8-3.1 2.6-3.1 1.4 0 2.6 1.1 2.6 2.6v.3c.1 1.5-1 2.9-2.5 3h-.2zM261.1 589.6v13.1h1.7v-5.3c-.1-1.1.7-2.2 1.8-2.3h.4c1.1-.1 2 .7 2.1 1.7v5.9h1.7v-5.5c0-2.1-1.1-3.6-3.2-3.6-1.2-.1-2.3.6-2.8 1.6v-5.6h-1.7z"/><path fill="#2785E2" d="M142.7 628l11.1-8.8h-22.2z"/><path fill="#2785E2" d="M131.4 621.3v14.1h22.4V621.3l-11.2 8.9z"/><path fill="#09094C" d="M137 598.7c-4.7.3-4 5.4-4 5.4h19.5s.7-5.2-4-5.5c0 0-3-.8-3.4-1.8s1-3 1-3 2-1.8.7-2.7c0 0 1.3-4.8-4-4.8s-4.1 4.8-4.1 4.8c-1.4.9.7 2.7.7 2.7s1.4 1.9 1 3-3.4 1.9-3.4 1.9z"/><path fill="#282828" d="M16.6 107.6c-2.5 0-4.5-1.9-4.5-4.4V15.7c.1-2.5 2-4.4 4.5-4.5H36V0H6.5C2.9 0 0 3 0 6.6v707c0 3.2 2.3 5.9 5.4 6.4.4.1.7.1 1.1.1H36V107.6H16.6zm1.6 265.9c-3.4 0-6.1-2.7-6.1-6.1 0-3.4 2.7-6.1 6.1-6.1s6.1 2.7 6.1 6.1-2.7 6.1-6.1 6.1zm0-39.7c-3.4 0-6.1-2.7-6.1-6.1 0-3.4 2.7-6.1 6.1-6.1s6.1 2.7 6.1 6.1-2.7 6.1-6.1 6.1zm0-39.7c-3.4 0-6.1-2.7-6.1-6.1 0-3.4 2.7-6.1 6.1-6.1s6.1 2.7 6.1 6.1c0 3.4-2.7 6.1-6.1 6.1zm0-39.6c-3.4 0-6.1-2.7-6.1-6.1 0-3.4 2.7-6.1 6.1-6.1s6.1 2.7 6.1 6.1c0 3.4-2.7 6.1-6.1 6.1zm0-38.3c-3.4 0-6.1-2.7-6.1-6.1 0-3.4 2.7-6.1 6.1-6.1s6.1 2.7 6.1 6.1c0 3.4-2.7 6.1-6.1 6.1zm0-39.7c-3.4 0-6.1-2.7-6.1-6.1 0-3.4 2.7-6.1 6.1-6.1s6.1 2.7 6.1 6.1c0 3.4-2.7 6.1-6.1 6.1zm0-39.7c-3.4 0-6.1-2.7-6.1-6.1 0-3.4 2.7-6.1 6.1-6.1s6.1 2.7 6.1 6.1c0 3.4-2.7 6.1-6.1 6.1z"/><circle fill="#FFF" cx="18.2" cy="130.7" r="6.1"/><circle fill="#FFF" cx="18.2" cy="170.4" r="6.1"/><circle fill="#FFF" cx="18.2" cy="210.1" r="6.1"/><circle fill="#FFF" cx="18.2" cy="248.4" r="6.1"/><circle fill="#FFF" cx="18.2" cy="288" r="6.1"/><circle fill="#FFF" cx="18.2" cy="327.7" r="6.1"/><circle fill="#FFF" cx="18.2" cy="367.4" r="6.1"/><path fill="#FFF" d="M143.5 49.8c1.4 0 2.8-.8 2.8-2.3v-1.2H145c-1.2 0-3.3.2-3.3 1.9 0 1.2.8 1.6 1.8 1.6zM110.2 42.1c-1.5 0-2.8 1.3-2.8 2.8h5.5c-.1-1.7-1-2.8-2.7-2.8zM121.5 42.1c-1.5 0-2.8 1.3-2.8 2.8h5.5c-.1-1.7-1-2.8-2.7-2.8zM188.8 49.1c2 0 3.1-1.6 3.1-3.6s-1-3.4-3.1-3.4-3.1 1.7-3.1 3.6c0 1.8 1.3 3.3 3.1 3.4z"/><path d="M93.6 45h7v6.2h2.2V36.9h-2.2v6.3h-7v-6.3h-2.2v14.3h2.2zM110.4 51.4c1.9.1 3.6-.9 4.4-2.6l-1.7-.7c-.5 1-1.5 1.7-2.7 1.7-2 0-3-1.5-3-3.4h7.6v-.2c0-3.2-1.2-5.7-4.7-5.7-3.1 0-5 2.4-5 5.4 0 3.2 1.9 5.5 5.1 5.5zm-.2-9.3c1.7 0 2.6 1.1 2.7 2.8h-5.5c0-1.5 1.3-2.8 2.8-2.8zM121.6 51.4c1.9.1 3.6-.9 4.4-2.6l-1.7-.7c-.5 1-1.5 1.7-2.7 1.7-2 0-3-1.5-3-3.4h7.6v-.2c0-3.2-1.2-5.7-4.7-5.7-3.1 0-5 2.4-5 5.4 0 3.2 1.9 5.5 5.1 5.5zm-.1-9.3c1.7 0 2.6 1.1 2.7 2.8h-5.5c0-1.5 1.3-2.8 2.8-2.8zM130.5 44.9c-.1-1.4 1-2.6 2.4-2.7h.2c1.2-.1 2.3.7 2.4 1.9v7h2v-6.4c0-2.4-1.2-4.2-3.7-4.2-1.4-.1-2.7.7-3.3 1.9v-1.7h-2v10.4h2v-6.2zM139.7 48.3c0 2.1 1.5 3.1 3.4 3.1 1.2 0 2.4-.5 3.2-1.5v1.3h2v-6.8c0-2.5-1.6-3.8-4-3.8-1.9 0-3.6.7-4.3 2.5l1.7.7c.3-1 1.3-1.7 2.4-1.7 1.9 0 2.2 1.2 2.2 2.9-2.3 0-6.6 0-6.6 3.3zm5.3-2h1.3v1.2c0 1.5-1.4 2.3-2.8 2.3-1 0-1.8-.4-1.8-1.6 0-1.7 2.1-1.9 3.3-1.9zM159.7 49.7c-1.7 0-3.2-1.2-3.5-2.8l-1.9.8c.7 2.4 3 3.9 5.4 3.7 2.5 0 5.1-1.6 5-4.3 0-5.8-8-2.6-8-6.5 0-1.6 1.3-2.1 2.6-2.1 1.5 0 2.8.9 3.3 2.3l1.7-.8c-.8-2-2.8-3.3-5-3.2-2.3 0-4.7 1.4-4.7 4 0 5.7 8 2.5 8 6.5 0 1.6-1.5 2.4-2.9 2.4z"/><circle cx="168.3" cy="37.5" r="1.3"/><path d="M167.4 40.7h2v10.5h-2zM174.5 44.9c-.1-1.4.9-2.6 2.3-2.7h.3c1.2-.1 2.3.7 2.4 1.9v7h2v-6.4c0-2.4-1.2-4.2-3.7-4.2-1.4-.1-2.7.7-3.3 1.9v-1.7h-2v10.4h2v-6.2zM188.4 50.9c1.4 0 2.7-.8 3.5-2v1.5c0 2-1.3 3-3.2 3-1.3.1-2.5-.5-3.1-1.6l-1.6.7c.9 1.9 2.8 2.5 4.7 2.5 2.8 0 5.2-1.4 5.2-4.6v-9.6h-2v1.6c-.7-1.2-2-1.9-3.4-1.8-2.8 0-4.7 2.4-4.7 5.2s1.7 5.1 4.6 5.1zm.4-8.8c2.1 0 3.1 1.5 3.1 3.4s-1.1 3.6-3.1 3.6c-1.8-.1-3.1-1.6-3.1-3.4 0-1.9 1-3.6 3.1-3.6zM199 44.9c-.1-1.4 1-2.6 2.4-2.7h.3c1.2-.1 2.3.7 2.4 1.9v7h2v-6.4c0-2.4-1.3-4.2-3.8-4.2-1.4-.1-2.7.7-3.3 1.9v-6.6h-2v15.3h2v-6.2z"/><path fill="#EDF3FF" d="M51.7 64.8c-.9.6-2 .9-3.1.9 1.1 0 2.2-.3 3.1-.9zM52.5 69.5c0 .3.1.5.4.5-.2 0-.4-.3-.4-.5zM52 71c.2.1.4 0 .5-.2-.1.1-.3.2-.5.2zM51.6 70.5c-.1.2 0 .4.2.5-.1-.1-.2-.3-.2-.5zM57 54.5c-.2 3.9-1.6 7.7-4 10.8 0 .2-.1.4-.2.6l.1-.1c0-.2.1-.3.2-.5 2.4-3.1 3.8-6.9 3.9-10.8l-1.1-.5-.7-.2 1.8.7zM45.1 70.5c-.3 0-.5.2-.5.4v.1c0-.3.2-.5.5-.5.2.1.4.2.5.5 0-.3-.2-.5-.5-.5zM44.7 69.5v-.3.3h-.3H44.7z"/><path fill="#EDF3FF" d="M52.6 50.9c.5.4.8 1 1 1.6.1.3.2.7.5.9.7 2.6.1 6.9-.9 10.1-.4.5-1 .9-1.5 1.2v.2h.1c0 .7.1 1.3.1 1.9.1.8.1 1.4.2 1.9v.8c.1.1.2.1.3.1v-.2h-.2c0-.2-.1-.5-.1-.8-.1-.6-.2-1.3-.2-1.9-.1-.7-.1-1.3-.1-2 .5-.3 1.1-.7 1.5-1.2.9-3.2 1.6-7.5.9-10.1-.3-.2-.4-.6-.5-.9-.3-.6-.6-1.1-1.1-1.6-.1-.4-.6-.5-1-.3 0 0-.1 0-.1.1.1-.1.2-.1.3-.1.3 0 .6.1.8.3zM48.3 66.4h.2c-.1 0-.1 0-.1-.1-1.3 0-2.5-.6-3.3-1.5l-.2-.2s-.1 0-.1-.1l.2.2v.1c.9 1 2.1 1.5 3.3 1.6zM56.7 70.7c.2 1.3.1 2.6.3 3.8 0 .2.1.4.1.6s.1.3.1.4c.2.7.6 1.3 1.1 1.9-.5-.5-.8-1.1-1-1.8 0-.1-.1-.3-.1-.4s-.1-.4-.1-.6c-.2-1.3-.1-2.6-.4-3.9zM50.5 71.2c-.1.2.1.5.4.5-.2 0-.4-.3-.4-.5zM46.8 51.4c1.1.3 2.2.3 3.3-.1-1 .3-2.1.3-3.1 0-1.1-.4-2.2-1.3-3.4-1.3l-1.8.3v.1c.5-.1 1.1-.2 1.6-.3 1.2.1 2.3.9 3.4 1.3zM44 69.6c-.7.2-1.3.3-1.8.5l.1.1c.5-.2 1-.3 1.5-.4.1-.1.1-.2.2-.2zM44.3 70.5c-.3 0-.5-.2-.5-.4 0 .2.2.5.5.4.3.1.5-.2.5-.4 0 .2-.2.4-.5.4zM50.9 71.7c.2.1.4 0 .5-.2-.1.1-.3.2-.5.2z"/><path fill="#EDF3FF" d="M48.9 31.6c-14.2 0-25.7 11.5-25.7 25.7S34.7 83 48.9 83s25.7-11.5 25.7-25.7-11.5-25.7-25.7-25.7zm10.7 49v-.4l-.6.3c-6.5 3.1-13.9 3.1-20.4 0-.3-.1-.5-.3-.8-.4l.3-.6-.2.2-.3.6c-1-.5-1.9-1.1-2.8-1.7.1-1.1.3-2.3.6-3.4.1-.7.5-1.4 1.1-1.9.8-1 1.8-1.8 3-2.3-.1 1-.1 2 .2 2.9 0 .3.1.5.1.7.1.7.1 1.3-.1 2 .2-.7.3-1.4.2-2.2 0-.2-.1-.5-.1-.7-.3-.9-.3-1.9-.2-2.9.2 0 .3-.1.5-.2h.1c-.1-2.6-.3-5.3-.8-7.9-1.1-3.7-3.3-18 6.7-20.7.8-.5 1.8-.8 2.8-.9 1.1 0 2.3.3 3.2.9 9.6 2.9 7.5 16.9 6.4 20.7-.7 2.3.1 6.5.7 9.2-.7-.5-1.4-.9-2.2-1.3-.4-.1-.8-.2-1.2-.4-.4-.2-.9-.3-1.3-.4-.3-.1-.6-.1-.9-.2v-.1c.1-.2-.1-.5-.4-.5-.1-.1-.3 0-.4.1h.2c.2 0 .4.3.4.5v.1c-.1.2-.3.3-.5.3.3 0 .5-.1.5-.2.2.1.3.1.5.1l.3-.1c.5.1.9.3 1.3.4.4.1.8.2 1.2.4v.1h.1c.8.3 1.5.7 2.2 1.2.6.4 1.1.9 1.5 1.4.8.5 1.4 1.4 1.6 2.4.3 1 .4 2.1.5 3.1-1 .7-2 1.3-3 1.8z"/><path fill="#EDF3FF" d="M47.5 73.4c.2-.1.4-.3.3-.6.1.2-.1.5-.3.6zM50.8 70.8h.2-.2zM46.3 71.7h-.2c-.2.1-.4.4-.3.6v-.2c0-.2.2-.4.5-.4zM47.2 72.5c-.2.1-.3.2-.3.4 0-.2.1-.3.3-.4zM59.5 79.2s0 .1 0 0c.1-.3.1-.5 0-.7 0-.1-.1-.1-.1-.2v.1c.1.3.1.5.1.8zM49.9 72.5c-.2 0-.4-.2-.4-.4-.1.2.1.5.4.4.3.1.5 0 .5-.3v-.1c0 .3-.2.4-.5.4zM48.9 72.3h-.3.3c.2 0 .4.3.3.5s-.2.3-.4.4c.2.1.5-.1.5-.4s-.2-.5-.4-.5z"/><path fill="#302C22" d="M40.5 70.5c.2 0 .2-.1.3-.1h.1c.1 0 .1-.1.2-.1s.1-.1.2-.1.1-.1.2-.1h.3c0-.1.1-.1.2-.1l.2.1c.6-.2 1.2-.3 1.8-.5.1-.1.2-.1.3-.1h.1c.1 0 .2 0 .3-.1v-.2c.2-1.4.3-2.8.3-4.2v-.1l-.2-.2c-.2-.1-.5-.2-.7-.4-2-1.8-3.4-4.3-3.8-7 0-2.3.4-4.6 1.3-6.8h.2v-.1l1.8-.3c1.2 0 2.3.9 3.4 1.3 1 .3 2.1.3 3.1 0 .4-.1.8-.3 1.1-.5l.4-.2c.3-.3.9-.2 1.1.1 0 0 0 .1.1.1.4.5.7 1 1 1.6.1.3.2.7.5.9.7 2.6 0 6.9-.9 10.1-.4.5-1 .9-1.5 1.2 0 .7 0 1.3.1 2 0 .6.1 1.3.2 1.9 0 .3.1.6.1.8h.2c.1-.1.1-.2.2-.2.1-.1.3-.2.4-.1.3 0 .5.3.4.5v.1c.3.1.6.1.9.2.4.1.9.2 1.3.4s.8.3 1.2.4c.8.4 1.5.8 2.2 1.2-.6-2.7-1.4-6.9-.7-9.2 1.1-3.8 3.2-17.8-6.4-20.7-.9-.6-2.1-.9-3.2-.9-1 .1-2 .4-2.8.9-10 2.7-7.8 17-6.7 20.8.4 2.6.7 5.2.8 7.9.1 0 .1-.1.2-.1l.2-.1zm14.8-16.7l2.1.7c0 3.5-2 8.9-4.5 11.4v-.1l-.1.1c.1-.2.2-.4.2-.6 2.4-3.1 3.8-6.9 4-10.8l-1.8-.7.7.2-.6-.2z"/><path fill="#FBB351" d="M52.5 69.5c-.1 0-.2 0-.3-.1 0 .2.1.5.2.7h-.1c.2.1.3.3.3.5v.2c0 .2-.2.3-.4.3h-.1-.2c-.2-.1-.3-.2-.3-.4s.2-.4.4-.4l-3.5-3.7h-.2c-1.3-.1-2.4-.6-3.3-1.5 0 1.4-.1 2.8-.3 4.2v.3h-.2c.2.1.3.3.3.4 0 .3-.2.5-.5.5s-.5-.2-.5-.5v-.1-.3c-.5.1-1 .2-1.5.4 1.5.7 3 2.7 4.2 3.6 0 .1.1.1.2.2.2.1.5.2.7.3.4.1.7 0 1.1-.1.6-.2 1.1-.6 1.6-1 .6-.5 1.2-1.1 1.8-1.7l.3-.3.3-.3c.4-.4.9-.7 1.4-.9-.2 0-.4-.1-.5-.1 0 .1-.2.2-.5.2s-.4-.1-.4-.4zm-6.9 1.6c0 .3-.2.5-.5.5s-.5-.2-.5-.5.2-.5.5-.5.5.2.5.5zm.7 1.6c-.2 0-.4-.1-.5-.3-.1-.2.1-.5.3-.6h.3c.2 0 .4.2.4.5 0 .2-.2.4-.5.4zm1.2.7c-.2.1-.5 0-.6-.3v-.2c0-.2.1-.4.3-.4.2-.1.5.1.6.3.1.2 0 .5-.3.6zm1.3-.2c-.3 0-.5-.3-.5-.5s.1-.3.3-.4h.3c.2 0 .4.3.4.5s-.3.5-.5.4zm1.6-1c0 .3-.3.5-.5.4s-.5-.3-.4-.5V72c0-.2.3-.4.5-.4.2.1.4.3.4.6 0-.1 0 0 0 0zm1-.9v.2c-.1.2-.2.3-.4.3-.3 0-.5-.3-.4-.5 0-.2.1-.3.3-.3h.2c.2-.2.4 0 .3.3z"/><path fill="#DC913C" d="M51.9 66.7c0-.6-.1-1.2-.1-1.9h-.1c0 .4 0 .8.1 1.3 0-.4-.1-.8-.1-1.3-.9.6-2 .8-3.1.8h-.1c-1.3 0-2.5-.4-3.6-1l.2.2c.8.9 2 1.5 3.3 1.5 0 .1 0 .1.1.1l3.5 3.7h.3c-.1-.2-.1-.4-.2-.7v-.8c-.1-.5-.1-1.1-.2-1.9z"/><path fill="#FBB351" d="M48.5 65.7c1.2 0 2.3-.3 3.2-.9 0 .4 0 .9.1 1.3 0-.4 0-.9-.1-1.3v-.2c.5-.3 1.1-.7 1.5-1.2 1-3.2 1.6-7.5.9-10.1-.3-.2-.4-.6-.5-.9-.2-.6-.5-1.2-1-1.6-.2-.2-.4-.4-.7-.4-.1 0-.2 0-.3.1l-.4.2c-.3.2-.7.4-1.1.5-1.1.4-2.2.4-3.3.1-1.1-.4-2.2-1.2-3.4-1.3-.6 0-1.1.1-1.6.3h-.2c-.9 2.2-1.3 4.5-1.3 6.8.4 2.7 1.8 5.2 3.8 7 .2.2.5.3.7.4 0 0 .1 0 .1.1 1.1.6 2.3 1 3.6 1.1z"/><path fill="#494130" d="M53.1 65.3c-.1.1-.1.3-.2.5v.1c2.5-2.5 4.5-7.9 4.5-11.4l-2.1-.7.6.2 1.2.5c-.2 3.9-1.6 7.7-4 10.8z"/><path fill="#FBB351" d="M56.8 70.7zM60.5 73.3c-.4-.5-.9-1-1.5-1.4-.7-.5-1.4-.9-2.2-1.2v.1c.2 1.2.1 2.5.3 3.8 0 .2.1.4.1.6s.1.3.1.4c.2.7.5 1.3 1 1.8l.4.4c.3.2.6.3.7.6 0 0 .1.1.1.2.1.2.1.4.1.6v1.5c1-.5 2-1.1 3-1.8-.1-1-.2-2.1-.5-3.1-.1-1.1-.7-2-1.6-2.5zM39.7 76.6c.1-.7.2-1.3.1-2 0-.2-.1-.4-.1-.7-.3-.9-.3-1.9-.2-2.9-1.2.5-2.2 1.3-3 2.3-.6.5-1 1.2-1.1 1.9-.3 1.1-.5 2.3-.6 3.4.9.6 1.8 1.2 2.8 1.7l.3-.6.2-.2.9-1.2c.3-.5.6-1.1.7-1.7z"/><path fill="#1524AF" d="M59.6 79.3v-.2c-.1.2-.1.1-.1.1 0-.3 0-.5-.1-.8v-.1c-.1-.3-.4-.4-.7-.6-.2-.1-.3-.3-.4-.4-.5-.6-.8-1.2-1.1-1.9 0-.1-.1-.3-.1-.4s-.1-.3-.1-.5c-.2-1.2-.1-2.5-.3-3.8v-.1c-.4-.2-.8-.3-1.2-.4-.4-.1-.8-.3-1.3-.4l-.2.1c-.5.2-1 .5-1.4.9l-.3.3-.3.3c-.6.6-1.2 1.2-1.8 1.7-.5.4-1 .8-1.6 1-.4.1-.7.2-1.1.1-.2-.1-.5-.2-.7-.3-.1-.1-.2-.1-.2-.2-1.2-.8-2.7-2.8-4.2-3.6l-.1-.1H42c-.1 0-.2 0-.2.1h-.3c-.1 0-.1 0-.2.1s-.1 0-.2.1-.1.1-.2.1h-.1c-.1 0-.1.1-.2.1h-.2c-.1 0-.1 0-.2.1h-.1c-.2.1-.3.2-.5.2-.1 1-.1 2 .2 2.9 0 .2.1.5.1.7.1.7 0 1.5-.2 2.2-.2.6-.4 1.2-.7 1.8l-.9 1.2-.3.6c.3.1.5.3.8.4 6.5 3.1 13.9 3.1 20.4 0l.6-.3v-1z"/><path fill="#FFFCF8" d="M43.8 69.7v.4c0 .3.2.5.5.5s.5-.2.5-.5c0-.2-.1-.4-.3-.4h-.2c-.1 0-.2 0-.3.1 0-.1-.1-.1-.2-.1zM45.1 70.6c-.3 0-.5.2-.5.4 0 .3.2.5.5.5s.5-.2.5-.5v-.1c0-.2-.3-.3-.5-.3zM46.4 71.7c-.3 0-.6.2-.6.5v.2c0 .3.3.5.6.4.3 0 .5-.3.4-.6 0-.2-.2-.5-.4-.5zM47.8 72.8c-.1-.2-.3-.4-.6-.3-.2.1-.3.2-.3.4v.2c.1.2.3.4.6.3.2-.1.4-.4.3-.6zM49.2 72.8c.1-.2-.1-.5-.4-.5h-.2c-.2 0-.3.2-.3.4s.2.5.4.5h.1c.2 0 .4-.2.4-.4zM50 71.6c-.2 0-.5.2-.5.4v.1c0 .2.2.4.4.4s.4-.1.5-.4c0-.2-.2-.4-.4-.5zM51 70.8h-.2c-.1.1-.3.2-.3.3 0 .2.2.5.4.5s.4-.1.5-.2v-.2c.1-.2-.1-.4-.4-.4zM51.6 70.5c0 .2.1.4.2.5h.2c.2 0 .4-.1.5-.2v-.2c0-.2-.1-.4-.3-.5H52c-.2 0-.4.2-.4.4zM52.5 69.5c0 .2.2.5.4.5s.4-.1.5-.3v-.1c0-.2-.2-.5-.4-.5h-.2c-.1 0-.2.1-.2.2-.1.1-.1.1-.1.2z"/><path fill="#09094C" d="M772.3 675.8h1.8v9.5h-1.8zM773.2 671.9c-.6 0-1.1.5-1.1 1.1 0 .6.5 1.1 1.1 1.1.6 0 1.1-.5 1.1-1.1 0-.6-.5-1.1-1.1-1.1z"/><path d="M97.7 74.3h1.2v-4.4c0-1.8-.9-3-2.8-3-1-.1-1.9.4-2.3 1.3v-4.7h-1.2v10.8h1.2v-4.4c-.1-1 .7-1.9 1.7-2h.3c.9-.1 1.8.6 1.9 1.5v4.9zM100.5 70.6c-.2 1.9 1.2 3.6 3.2 3.8h.4c1.3 0 2.5-.6 3.1-1.8l-1.1-.5c-.4.8-1.1 1.3-2 1.3-1.3 0-2.3-1-2.4-2.2v-.3h5.5v-.1c0-2.2-.9-3.9-3.3-3.9-1.9 0-3.4 1.6-3.4 3.5v.2zm3.5-2.8c1.1-.1 2 .8 2.1 1.9v.2h-4.3c.1-1.1 1-2.1 2.2-2.1zM115.2 70.8c0-2.2-.9-3.9-3.3-3.9-1.9 0-3.5 1.6-3.4 3.5v.2c-.2 1.9 1.3 3.6 3.2 3.8h.4c1.3 0 2.4-.7 3-1.8l-1-.5c-.4.8-1.1 1.3-2 1.3-1.3 0-2.3-1-2.4-2.2v-.4h5.5zm-5.5-.9c.1-1.2 1-2.1 2.2-2.1 1.1-.1 2.1.8 2.1 1.9v.2h-4.3zM123.2 74.3v-4.4c0-1.8-.8-3-2.7-3-1-.1-1.9.4-2.4 1.3V67h-1.2v7.3h1.2v-4.4c-.1-1 .7-1.9 1.8-2h.2c.9-.1 1.8.5 1.9 1.4v5h1.2zM125 68.7l1 .4c.3-.8 1-1.3 1.8-1.3 1.5 0 1.7.9 1.7 2.2-1.6 0-4.7-.1-4.7 2.3 0 1.2 1 2.2 2.2 2.2h.3c.9 0 1.7-.3 2.3-1v.9h1.2v-4.8c.1-1.4-1-2.6-2.5-2.7h-.3c-1.3-.1-2.5.6-3 1.8zm4.6 3.1c-.1 1.1-1.1 1.9-2.2 1.8-.8 0-1.4-.3-1.4-1.2 0-1.3 1.6-1.4 2.6-1.4h1v.8zM135 67.8c.8 0 1.5.4 1.8 1.1l.9-.4c-.5-1-1.5-1.7-2.7-1.7-1.2 0-2.5.8-2.5 2.1 0 .4.1.8.3 1.1.5.5 1.1.8 1.8.9.6.1 1.3.3 1.8.6.2.2.3.4.3.7 0 1-.9 1.2-1.6 1.2-.9 0-1.6-.5-1.9-1.3l-.9.4c.4 1.2 1.5 2 2.8 1.9 1.4 0 2.7-.7 2.7-2.3 0-.4-.1-.8-.3-1.1-.5-.5-1.1-.8-1.8-.9-.6-.1-1.3-.3-1.8-.6-.2-.2-.3-.4-.3-.7 0-.7.8-1 1.4-1zM139.6 67h1.2v7.3h-1.2zM140.2 65.4c.4 0 .8-.3.8-.8 0-.4-.3-.8-.8-.8-.4 0-.8.3-.8.8s.4.8.8.8c0 .1 0 .1 0 0zM144.3 68.2V67h-1.2v7.3h1.2v-4.4c-.1-1 .7-1.9 1.8-2h.2c.9-.1 1.8.6 1.9 1.5v4.9h1.2v-4.4c0-1.8-.9-3-2.7-3-1-.1-1.9.4-2.4 1.3zM154.5 74.1c1 0 2-.5 2.6-1.4v1.1c0 1.2-.9 2.2-2.1 2.3h-.4c-1 .1-1.9-.4-2.4-1.2l-.9.4c.6 1.2 2 1.9 3.3 1.8 1.9 0 3.6-1 3.6-3.2V67H157v1.2c-.6-.8-1.5-1.3-2.5-1.3-1.9 0-3.4 1.6-3.4 3.5v.1c-.1 1.8 1.3 3.4 3.1 3.6h.3zm.2-6.3c1.3 0 2.4 1 2.4 2.3v.3c.1 1.3-.9 2.5-2.2 2.7h-.3c-1.3-.1-2.4-1.2-2.3-2.5-.2-1.3.8-2.6 2.2-2.7.1-.1.1-.1.2-.1zM161.7 68.2v-4.7h-1.2v10.8h1.2v-4.4c-.1-1 .7-1.9 1.7-2h.3c.9-.1 1.8.6 1.9 1.5v4.9h1.2v-4.4c0-1.8-.9-3-2.8-3-.9-.1-1.8.4-2.3 1.3zM174.3 76.4c1.6.1 3.3-.5 4.4-1.7l-.9-.4c-1 .8-2.3 1.2-3.5 1.1-2.5.1-4.6-1.9-4.7-4.4v-.4c-.1-2.6 1.9-4.9 4.6-5h.3c2.6 0 4.6 1.5 4.6 4.2 0 1-.3 2.7-1.6 2.7-.5 0-.7-.3-.7-.8v-.3l.4-3.5H176l-.1.8c-.3-.6-1-1-1.7-.9-1.6.1-2.8 1.5-2.7 3.2-.1 1.2.7 2.3 1.9 2.4h.3c.9 0 1.7-.5 2.1-1.3.1 1 .7 1.2 1.6 1.2 1.9 0 2.6-2 2.6-3.6 0-3.2-2.6-5.1-5.6-5.1-3.3 0-6 2.7-6 6-.1 3.1 2.3 5.6 5.3 5.7.3.1.5.1.6.1zm-.3-3.8c-.9 0-1.3-.7-1.3-1.6s.5-2.3 1.6-2.3c1 0 1.5.6 1.5 1.6s-.6 2.3-1.8 2.3zM187 67h-5.7v1h4.1l-4.5 5.8v.5h6.1v-1h-4.4l4.4-5.8zM189.1 63.9c-.4 0-.8.3-.8.8 0 .4.3.8.8.8.4 0 .8-.3.8-.8 0-.4-.3-.8-.8-.8zM188.6 67h1.2v7.3h-1.2zM192.1 74.3h1.2V63.2l-1.2.5zM196.9 63.2l-1.2.5v10.6h1.2zM199.9 71.6V67h-1.2v4.6c-.2 1.4.8 2.6 2.2 2.8h.6c.9.1 1.8-.4 2.2-1.3v1.2h1.2V67h-1.2v4.4c.1 1-.7 1.9-1.7 2h-.3c-.9.1-1.8-.6-1.9-1.5.1-.1.1-.2.1-.3zM208.4 69.8c-.1-1 .6-1.9 1.6-2h.2c.9-.1 1.7.5 1.8 1.3v5.1h1.2v-4.5c-.1-1 .6-1.9 1.6-2h.2c.9-.1 1.7.5 1.8 1.4v5h1.2v-4.5c.2-1.4-.8-2.7-2.3-2.9h-.4c-1 0-1.9.5-2.4 1.4-.4-.9-1.4-1.4-2.4-1.4-.9 0-1.7.5-2 1.2V67h-1.2v7.3h1.2l-.1-4.5z"/><circle cx="220.9" cy="73.5" r=".9"/><path d="M226.8 74.4c1.5.1 2.8-.9 3.3-2.3l-1-.4c-.3 1-1.2 1.7-2.2 1.7-1.6 0-2.4-1.2-2.4-2.7s.7-2.9 2.4-2.9c1 0 1.8.6 2.2 1.5l1.1-.5c-.5-1.3-1.8-2.1-3.2-2-2 0-3.6 1.6-3.6 3.5v.2c-.1 2.3 1.2 3.9 3.4 3.9zM235 74.4c2.1.1 3.9-1.5 3.9-3.6.1-2.1-1.5-3.9-3.6-3.9-2.1-.1-3.9 1.5-3.9 3.6v.1c-.1 2 1.4 3.7 3.4 3.8h.2zm0-6.6c1.4 0 2.5 1.1 2.5 2.5v.3c0 1.5-.8 2.9-2.4 2.9s-2.4-1.2-2.4-2.8.6-2.9 2.3-2.9zM241.6 69.8c-.1-1 .6-1.9 1.6-2h.2c.9-.1 1.7.5 1.8 1.4v5h1.2v-4.4c-.1-1 .6-1.9 1.6-2h.2c.9-.1 1.7.5 1.8 1.4v5h1.1v-4.5c.2-1.4-.9-2.7-2.3-2.9h-.4c-1 0-1.9.5-2.3 1.4-.4-.9-1.4-1.4-2.4-1.4-.9 0-1.7.4-2.1 1.2v-1h-1.2v7.3h1.2v-4.5z"/><path fill="#ECECEC" d="M561.2 359.8h-1V504h1V393.9z"/><path fill="#2785E2" d="M171 620.5v12.3h1.7v-5c-.1-1.1.7-2.1 1.9-2.1h.3c1-.1 1.9.6 2 1.6v5.5h1.7v-5.2c0-2-1-3.4-3.1-3.4-1.1-.1-2.2.5-2.7 1.5v-5.3l-1.8.1zM188 631l-1.4-.6c-.4.8-1.3 1.3-2.2 1.3-1.6 0-2.4-1.2-2.5-2.7h6.2v-.1c0-2.6-1-4.6-3.9-4.6-2.2 0-4 1.8-4 4v.3c0 2.5 1.6 4.4 4.1 4.4 1.6.1 3-.7 3.7-2zm-3.7-5.4c1.1-.1 2.1.8 2.2 1.9v.3H182c0-1.2 1-2.2 2.3-2.2zM195.8 630.4c-.4.8-1.3 1.3-2.2 1.3-1.6 0-2.4-1.2-2.5-2.7h6.2v-.1c0-2.6-1-4.6-3.9-4.6-2.2 0-4 1.8-4 4v.3c0 2.5 1.6 4.4 4.1 4.4 1.5.1 2.9-.7 3.6-2l-1.3-.6zm-2.4-4.8c1.1-.1 2.1.8 2.2 1.9v.3h-4.5c.1-1.2 1.1-2.2 2.3-2.2zM203.5 624.3c-1.1-.1-2.2.5-2.7 1.5v-1.3h-1.7v8.4h1.7v-5c-.1-1.1.7-2.1 1.8-2.1h.3c1-.1 1.8.6 1.9 1.6v5.5h1.6v-5.2c.1-2-.8-3.4-2.9-3.4zM208.6 626.3l1.4.6c.3-.8 1.1-1.3 2-1.3 1.6 0 1.8.9 1.8 2.3-1.9 0-5.4 0-5.4 2.6 0 1.7 1.3 2.5 2.8 2.5 1 0 2-.4 2.6-1.2v1h1.6v-5.5c0-2-1.4-3-3.3-3-1.5-.2-2.9.7-3.5 2zm5.1 3.6c-.1 1.1-1 1.9-2.1 1.9h-.1c-.9 0-1.4-.4-1.4-1.3 0-1.3 1.6-1.5 2.6-1.5h1v.9zM223.6 630.3c0-3.3-4.9-1.7-4.9-3.7 0-.8.8-1.1 1.5-1.1.8-.1 1.6.4 1.9 1.1l1.2-.5c-.6-1.2-1.8-1.9-3.2-1.9-1.4 0-3 .8-3 2.4 0 3.2 4.8 1.8 4.8 3.7 0 1-.9 1.2-1.7 1.2-.9 0-1.7-.5-2.1-1.4l-1.3.6c.5 1.4 1.9 2.2 3.3 2.1 2 .2 3.5-.6 3.5-2.5zM226.3 622.9c.6 0 1-.4 1-1s-.4-1-1-1-1 .4-1 1 .5 1 1 1zM225.5 624.5h1.6v8.4h-1.6zM237.1 632.8v-5.2c0-1.9-.9-3.4-3-3.4-1.1-.1-2.2.5-2.7 1.5v-1.3h-1.7v8.4h1.7v-5c-.1-1.1.7-2.1 1.8-2.1h.3c1-.1 1.8.6 1.9 1.6v5.5h1.7zM238.9 628.4c0 2.2 1.4 4.1 3.7 4.1 1.2 0 2.3-.6 2.9-1.6v1.2c.1 1.3-.9 2.3-2.2 2.4h-.5c-1 .1-2-.4-2.5-1.3l-1.3.6c.7 1.5 2.2 2 3.8 2 2.3 0 4.2-1.1 4.2-3.7v-7.8h-1.6v1.3c-.6-1-1.7-1.5-2.8-1.5-2.2 0-3.9 1.8-3.8 4 .1.2.1.3.1.3zm4.2-2.8c1.3 0 2.5 1 2.5 2.4v.4c.2 1.4-.9 2.7-2.3 2.8h-.3c-1.4 0-2.5-1.2-2.4-2.6v-.1c0-1.5.8-2.9 2.5-2.9zM254.1 624.3c-1.1-.1-2.2.5-2.7 1.5v-5.3h-1.7v12.3h1.7v-5c-.1-1.1.7-2.1 1.9-2.1h.3c1-.1 1.9.6 2 1.6v5.5h1.7v-5.2c-.2-1.9-1.2-3.3-3.2-3.3zM265.9 621.8c-3.8 0-6.9 3.1-6.9 6.8.2 3.8 3.5 6.7 7.3 6.5 1.7-.1 3.2-.8 4.4-1.9l-1-.5c-1.1.9-2.5 1.4-4 1.3-2.9.2-5.3-2-5.4-4.9v-.6c-.1-3.1 2.2-5.7 5.3-5.8h.4c3 0 5.2 1.7 5.2 4.8 0 1.2-.3 3.1-1.8 3.1-.6 0-.8-.4-.8-.9v-.3l.5-4.1h-1.5l-.1.9c-.4-.7-1.1-1.1-1.9-1-2 0-3.1 1.9-3.1 3.7-.2 1.4.8 2.6 2.2 2.8h.4c1 0 1.9-.6 2.3-1.5.1 1.1 1 1.4 2 1.4 2.2 0 3.1-2.2 3.1-4.1-.2-3.5-3.2-5.7-6.6-5.7zm-.6 8.9c-1 0-1.4-.8-1.4-1.7 0-1 .5-2.4 1.8-2.4 1.1 0 1.5.6 1.5 1.7s-.7 2.4-1.9 2.4zM273.6 625.8h4.4l-4.8 6.3v.7h7v-1.3h-4.7l4.8-6.3v-.7h-6.7zM282.8 620.9c-.6 0-1 .4-1 1s.4 1 1 1 1-.4 1-1-.5-1-1-1zM282 624.5h1.6v8.4H282zM286.2 620.9v11.9h1.6v-12.6zM292.1 620.2l-1.7.7v11.9h1.7zM299.8 629.5c.1 1.1-.8 2.1-1.9 2.1h-.2c-1 .1-1.8-.6-1.9-1.6V624.4h-1.6v5.3c-.2 1.6.9 3 2.5 3.2h.5c1.1.1 2.1-.5 2.6-1.5v1.3h1.6v-8.4h-1.6v5.2zM313.4 624.3c-1.1 0-2.2.6-2.8 1.5-.5-1-1.5-1.6-2.6-1.5-1 0-2 .5-2.4 1.4v-1.3h-1.7v8.4h1.7v-5c-.1-1 .6-1.9 1.7-2.1h.2c.9-.1 1.7.6 1.8 1.5V632.8h1.6v-5c-.1-1 .6-1.9 1.7-2.1h.2c.9-.1 1.7.6 1.8 1.5V632.8h1.7v-5.2c0-1.9-.9-3.3-2.9-3.3zM319.7 630.6c-.6 0-1.1.5-1.1 1.2s.5 1.2 1.2 1.1c.6 0 1.1-.5 1.1-1.2 0-.6-.5-1.1-1.2-1.1zM326.7 631.7c-1.7 0-2.5-1.3-2.5-2.9s.7-3.1 2.5-3.1c1 0 2 .6 2.3 1.6l1.4-.6c-.6-1.5-2.1-2.4-3.7-2.3-2.3 0-4.1 1.8-4.2 4.1v.2c0 2.5 1.5 4.4 4.1 4.4 1.7.1 3.3-.9 3.8-2.6l-1.3-.6c-.3 1-1.3 1.8-2.4 1.8zM335.9 624.3c-2.4-.1-4.4 1.8-4.4 4.2-.1 2.4 1.8 4.4 4.2 4.4s4.4-1.8 4.4-4.2c.2-2.3-1.6-4.2-3.8-4.4h-.4zm0 7.4c-1.8 0-2.5-1.3-2.5-3s.7-3.1 2.5-3.1 2.5 1.4 2.5 3-.7 3.1-2.5 3.1zM351.4 624.3c-1.1 0-2.2.6-2.8 1.5-.5-1-1.5-1.6-2.6-1.5-1 0-2 .5-2.4 1.4v-1.3H342v8.4h1.7v-5c-.1-1 .6-1.9 1.7-2.1h.2c.9-.1 1.7.6 1.8 1.5V632.8h1.6v-5c-.1-1 .6-1.9 1.7-2.1h.2c1.2 0 1.8.7 1.8 1.9v5.2h1.6v-5.2c.1-1.9-.9-3.3-2.9-3.3z"/></svg>